<?xml version="1.0" encoding="UTF-8" standalone="no"?>
<svg
   width="16"
   height="16"
   fill="currentColor"
   class="bi bi-thermometer-low"
   viewBox="0 0 16 16"
   version="1.1"
   id="svg2"
   sodipodi:docname="temperature-low.svg"
   inkscape:version="1.4.2 (ebf0e940d0, 2025-05-08)"
   xmlns:inkscape="http://www.inkscape.org/namespaces/inkscape"
   xmlns:sodipodi="http://sodipodi.sourceforge.net/DTD/sodipodi-0.dtd"
   xmlns="http://www.w3.org/2000/svg"
   xmlns:svg="http://www.w3.org/2000/svg">
  <defs
     id="defs2" />
  <sodipodi:namedview
     id="namedview2"
     pagecolor="#ffffff"
     bordercolor="#000000"
     borderopacity="0.25"
     inkscape:showpageshadow="2"
     inkscape:pageopacity="0.0"
     inkscape:pagecheckerboard="0"
     inkscape:deskcolor="#d1d1d1"
     inkscape:zoom="50.625"
     inkscape:cx="8"
     inkscape:cy="8"
     inkscape:window-width="1920"
     inkscape:window-height="1012"
     inkscape:window-x="0"
     inkscape:window-y="0"
     inkscape:window-maximized="1"
     inkscape:current-layer="svg2" />
  <path
     d="M9.5 12.5a1.5 1.5 0 1 1-2-1.415V9.5a.5.5 0 0 1 1 0v1.585a1.5 1.5 0 0 1 1 1.415"
     id="path1" />
  <path
     d="M5.5 2.5a2.5 2.5 0 0 1 5 0v7.55a3.5 3.5 0 1 1-5 0zM8 1a1.5 1.5 0 0 0-1.5 1.5v7.987l-.167.15a2.5 2.5 0 1 0 3.333 0l-.166-.15V2.5A1.5 1.5 0 0 0 8 1"
     id="path2" />
  <path
     style="fill:#deddda;stroke:#1d671d;stroke-width:0"
     d="M 7.4850066,15.951199 C 6.5626299,15.801005 5.7500072,15.314311 5.2097765,14.588525 4.5994805,13.768607 4.3750527,12.734762 4.5947333,11.755277 4.7263277,11.16854 5.009628,10.611935 5.3918826,10.189103 L 5.5111111,10.057218 5.5112276,6.1891028 C 5.5113563,1.9130489 5.5053122,2.1253529 5.6382264,1.7281445 5.768867,1.3377309 5.9540042,1.0376056 6.2414964,0.75018558 6.7268211,0.26498276 7.3195793,0.0182668 8,0.0182668 c 0.6816292,0 1.2723168,0.24585415 1.7585037,0.73191878 0.2874923,0.28742002 0.4726293,0.58754532 0.6032703,0.97795892 0.132914,0.3972084 0.12687,0.1849044 0.126998,4.4609583 l 1.17e-4,3.8681152 0.119228,0.131885 c 0.276308,0.305639 0.551844,0.774321 0.688117,1.170475 0.376387,1.094184 0.187951,2.296626 -0.50601,3.228947 -0.503731,0.676749 -1.2504085,1.148826 -2.1087425,1.333223 -0.2572046,0.05526 -0.9354704,0.07195 -1.1964749,0.02945 z m 0.998944,-0.988114 c 0.4778442,-0.0985 0.887777,-0.309579 1.2342783,-0.635542 0.3736811,-0.351533 0.6319701,-0.81396 0.7428791,-1.330012 0.05011,-0.233139 0.05152,-0.754898 0.0027,-0.981564 -0.07612,-0.353127 -0.23662,-0.721299 -0.430995,-0.988635 -0.095341,-0.13113 -0.4857329,-0.538443 -0.5160726,-0.538443 -0.00851,0 -0.015601,-1.8466668 -0.015762,-4.1037038 C 9.5006246,1.916743 9.5073132,2.1886131 9.3908954,1.912017 9.21099,1.484581 8.8373541,1.1621745 8.3741659,1.0346918 8.1984385,0.9863266 7.8015615,0.9863266 7.6258341,1.0346918 7.1626459,1.1621745 6.78901,1.484581 6.6091046,1.912017 6.4926961,2.1885912 6.4993754,1.9177643 6.4990574,6.3741904 l -2.92e-4,4.0927086 -0.1135802,0.104822 c -0.2954843,0.2727 -0.4788891,0.5071 -0.624405,0.79802 -0.1720276,0.343923 -0.2481396,0.645909 -0.2633981,1.045074 -0.049386,1.291945 0.8854747,2.397166 2.1793541,2.576499 0.1874712,0.02598 0.6171068,0.01096 0.8072144,-0.02823 z"
     id="path3" />
  <path
     style="fill:#deddda;stroke:#1d671d;stroke-width:0"
     d="M 7.437037,15.93301 C 6.4691571,15.747811 5.6687222,15.235994 5.1405803,14.464604 4.4894072,13.513517 4.3472634,12.319775 4.7586094,11.256764 c 0.1396223,-0.360816 0.399334,-0.791429 0.630177,-1.044861 l 0.1173542,-0.128838 0.013394,-3.8217793 c 0.00749,-2.1372251 0.021782,-3.925564 0.032424,-4.0572371 0.057157,-0.7072403 0.5015861,-1.39617512 1.1723138,-1.8172709 0.7380802,-0.46338104 1.7672233,-0.47446034 2.5131842,-0.0270558 0.4180845,0.25075435 0.7564413,0.61075648 0.9680904,1.0300208 0.152768,0.3026256 0.221948,0.5431836 0.243236,0.8458105 0.01018,0.1447668 0.02263,1.9669683 0.02766,4.0493369 l 0.0091,3.7861249 0.142224,0.164492 c 0.372437,0.43075 0.671436,1.033461 0.777357,1.566962 0.214423,1.080005 -0.07878,2.165578 -0.811164,3.003296 -0.460988,0.527288 -1.1789391,0.944342 -1.8927694,1.099498 -0.2338126,0.05082 -1.0499904,0.06874 -1.2641976,0.02775 z m 1.1555556,-0.986116 c 0.9281165,-0.239959 1.5968514,-0.900164 1.8506894,-1.827081 0.04908,-0.179226 0.05245,-0.218468 0.05281,-0.616109 3.71e-4,-0.400121 -0.0027,-0.435766 -0.05242,-0.61611 -0.0621,-0.225076 -0.172909,-0.489531 -0.293241,-0.699843 -0.08266,-0.144469 -0.37722,-0.491829 -0.5446932,-0.642326 l -0.07996,-0.07186 -0.012698,-3.8886348 C 9.506095,4.4461819 9.4955018,2.5762963 9.4895388,2.4296296 9.4765331,2.1097545 9.4616972,2.0354975 9.373777,1.8502234 9.195348,1.4742199 8.8677906,1.1869908 8.4641975,1.0526293 8.3203018,1.0047245 8.278798,1.0000168 8,0.9999762 7.7241995,0.99993602 7.6788043,1.0049412 7.5423872,1.0504314 7.2571283,1.1455551 6.9904308,1.3273131 6.8160798,1.5454201 6.7099642,1.6781669 6.5754066,1.9320848 6.5354084,2.0750631 6.5162489,2.1435506 6.5093351,3.0765813 6.5041019,6.2998746 l -0.00672,4.1369114 -0.2333576,0.239798 c -0.3354459,0.344702 -0.5223868,0.640558 -0.6551638,1.03687 -0.1591354,0.474988 -0.1569612,1.1036 0.0055,1.59025 0.2458325,0.736386 0.8098762,1.309618 1.5430871,1.568226 0.3337511,0.117716 0.4942483,0.141463 0.8919316,0.131969 0.2945875,-0.007 0.3877332,-0.01681 0.5432099,-0.05701 z"
     id="path4" />
  <path
     style="fill:#deddda;stroke:#1d671d;stroke-width:0"
     d="M 7.6938272,13.957215 C 7.234878,13.851296 6.8689555,13.562085 6.6670368,13.145679 6.5480992,12.9004 6.5114201,12.717762 6.5228819,12.427879 6.5334905,12.159574 6.5888765,11.966881 6.7184312,11.747544 6.8687631,11.493032 7.173854,11.222781 7.4146707,11.130812 l 0.089948,-0.03435 0.00572,-0.861811 C 7.5166655,9.2799274 7.5116952,9.3174361 7.6515941,9.1686394 7.7515871,9.0622868 7.8527929,9.0187452 8,9.0187452 c 0.1472071,0 0.2484129,0.043542 0.3484059,0.1498942 0.1398989,0.1487967 0.1349286,0.111288 0.1412599,1.0660106 l 0.00572,0.861811 0.089948,0.03435 c 0.2408166,0.09197 0.5459075,0.36222 0.6962394,0.616732 0.1315927,0.222787 0.1851808,0.411487 0.1955372,0.688542 0.00742,0.198466 0.00186,0.266517 -0.03309,0.404939 -0.1324421,0.524581 -0.4826781,0.901746 -0.9995716,1.076428 -0.1939198,0.06553 -0.5558669,0.08471 -0.7506172,0.03976 z"
     id="path5" />
</svg>
