<?xml version="1.0" encoding="UTF-8" standalone="no"?>
<svg
   width="16"
   height="16"
   fill="currentColor"
   class="bi bi-lightning-charge"
   viewBox="0 0 16 16"
   version="1.1"
   id="svg1"
   sodipodi:docname="volt.svg"
   inkscape:version="1.4.2 (ebf0e940d0, 2025-05-08)"
   xmlns:inkscape="http://www.inkscape.org/namespaces/inkscape"
   xmlns:sodipodi="http://sodipodi.sourceforge.net/DTD/sodipodi-0.dtd"
   xmlns="http://www.w3.org/2000/svg"
   xmlns:svg="http://www.w3.org/2000/svg">
  <defs
     id="defs1" />
  <sodipodi:namedview
     id="namedview1"
     pagecolor="#ffffff"
     bordercolor="#000000"
     borderopacity="0.25"
     inkscape:showpageshadow="2"
     inkscape:pageopacity="0.0"
     inkscape:pagecheckerboard="0"
     inkscape:deskcolor="#d1d1d1"
     inkscape:zoom="50.625"
     inkscape:cx="8"
     inkscape:cy="8"
     inkscape:window-width="1920"
     inkscape:window-height="1012"
     inkscape:window-x="0"
     inkscape:window-y="0"
     inkscape:window-maximized="1"
     inkscape:current-layer="svg1" />
  <path
     d="M11.251.068a.5.5 0 0 1 .227.58L9.677 6.5H13a.5.5 0 0 1 .364.843l-8 8.5a.5.5 0 0 1-.842-.49L6.323 9.5H3a.5.5 0 0 1-.364-.843l8-8.5a.5.5 0 0 1 .615-.09zM4.157 8.5H7a.5.5 0 0 1 .478.647L6.11 13.59l5.732-6.09H9a.5.5 0 0 1-.478-.647L9.89 2.41z"
     id="path1" />
  <path
     style="fill:#deddda;stroke:#1d671d;stroke-width:0"
     d="M 4.9185185,15.980391 C 4.8116909,15.960361 4.6915388,15.890154 4.6234542,15.807981 4.5461938,15.714732 4.4950971,15.548698 4.5133434,15.450186 4.5242507,15.391298 6.2989361,9.6014374 6.3344322,9.5089361 6.3433758,9.4856292 6.082786,9.4814118 4.6095208,9.48102 L 2.8740741,9.4805586 2.7760872,9.4266991 C 2.5339015,9.2935791 2.4452051,9.0147561 2.5704809,8.7803629 2.5987707,8.7274321 4.2166883,6.9939704 6.6607002,4.3980393 9.9159265,0.94046884 10.72173,0.09475852 10.794474,0.05954378 c 0.190843,-0.09238536 0.443351,-0.03495384 0.581984,0.13236879 0.07734,0.0933443 0.128452,0.25934934 0.110199,0.35790122 -0.01091,0.0588881 -1.7855931,5.84874881 -1.8210892,5.94125011 -0.00894,0.023308 0.2504352,0.027455 1.7175612,0.027455 1.878365,0 1.791872,-0.00493 1.928454,0.1099927 0.03412,0.028708 0.08626,0.093481 0.115876,0.1439411 0.07419,0.126419 0.0761,0.3077158 0.0046,0.4425132 -0.03233,0.060998 -1.444951,1.5754868 -4.0919443,4.3870391 -3.2103266,3.409909 -4.0602317,4.302126 -4.1283951,4.333928 -0.101951,0.04757 -0.1985547,0.06221 -0.2932411,0.04446 z M 8.9944946,10.543982 C 10.566041,8.8740367 11.851852,7.5029256 11.851852,7.4970686 c 0,-0.00586 -0.664445,-0.010844 -1.476543,-0.011083 C 8.9325719,7.4855621 8.8967303,7.4846309 8.8098765,7.4453154 8.7609877,7.423185 8.6954189,7.3811581 8.6641683,7.351922 8.5829481,7.2759376 8.5140032,7.1188889 8.5137732,7.0093393 8.5136361,6.9441029 8.7142756,6.2656595 9.205391,4.6706975 9.585887,3.4349869 9.8917886,2.418562 9.8851723,2.4119755 c -0.00662,-0.00659 -0.02682,0.00617 -0.044897,0.028351 -0.018077,0.02218 -1.3039787,1.3900672 -2.857559,3.0397495 -1.5535802,1.6496826 -2.8276543,3.0070912 -2.8312757,3.0164635 -0.00365,0.00946 0.6511827,0.017126 1.471605,0.017233 L 7.1012346,8.5139662 7.2,8.5606576 c 0.1732077,0.081884 0.2851382,0.2502501 0.285986,0.4301805 3.107e-4,0.065964 -0.1956174,0.7285946 -0.6909243,2.3367129 -0.3802469,1.234551 -0.691358,2.249415 -0.691358,2.255252 0,0.0058 0.00752,0.0076 0.016717,0.004 0.00919,-0.0036 1.3025276,-1.372903 2.8740741,-3.042849 z"
     id="path2" />
</svg>
