<?xml version="1.0" encoding="UTF-8" standalone="no"?>
<svg
   width="16"
   height="16"
   fill="currentColor"
   class="bi bi-fan"
   viewBox="0 0 16 16"
   version="1.1"
   id="svg2"
   sodipodi:docname="fan.svg"
   inkscape:version="1.4.2 (ebf0e940d0, 2025-05-08)"
   xmlns:inkscape="http://www.inkscape.org/namespaces/inkscape"
   xmlns:sodipodi="http://sodipodi.sourceforge.net/DTD/sodipodi-0.dtd"
   xmlns="http://www.w3.org/2000/svg"
   xmlns:svg="http://www.w3.org/2000/svg">
  <defs
     id="defs2" />
  <sodipodi:namedview
     id="namedview2"
     pagecolor="#ffffff"
     bordercolor="#000000"
     borderopacity="0.25"
     inkscape:showpageshadow="2"
     inkscape:pageopacity="0.0"
     inkscape:pagecheckerboard="0"
     inkscape:deskcolor="#d1d1d1"
     inkscape:zoom="50.625"
     inkscape:cx="8"
     inkscape:cy="8"
     inkscape:window-width="1920"
     inkscape:window-height="1012"
     inkscape:window-x="0"
     inkscape:window-y="0"
     inkscape:window-maximized="1"
     inkscape:current-layer="svg2" />
  <path
     d="M10 3c0 1.313-.304 2.508-.8 3.4a2 2 0 0 0-1.484-.38c-.28-.982-.91-2.04-1.838-2.969a8 8 0 0 0-.491-.454A6 6 0 0 1 8 2c.691 0 1.355.117 1.973.332Q10 2.661 10 3m0 5q0 .11-.012.217c1.018-.019 2.2-.353 3.331-1.006a8 8 0 0 0 .57-.361 6 6 0 0 0-2.53-3.823 9 9 0 0 1-.145.64c-.34 1.269-.944 2.346-1.656 3.079.277.343.442.78.442 1.254m-.137.728a2 2 0 0 1-1.07 1.109c.525.87 1.405 1.725 2.535 2.377q.3.174.605.317a6 6 0 0 0 2.053-4.111q-.311.11-.641.199c-1.264.339-2.493.356-3.482.11ZM8 10c-.45 0-.866-.149-1.2-.4-.494.89-.796 2.082-.796 3.391q0 .346.027.678A6 6 0 0 0 8 14c.94 0 1.83-.216 2.623-.602a8 8 0 0 1-.497-.458c-.925-.926-1.555-1.981-1.836-2.96Q8.149 10 8 10M6 8q0-.12.014-.239c-1.02.017-2.205.351-3.34 1.007a8 8 0 0 0-.568.359 6 6 0 0 0 2.525 3.839 8 8 0 0 1 .148-.653c.34-1.267.94-2.342 1.65-3.075A2 2 0 0 1 6 8m-3.347-.632c1.267-.34 2.498-.355 3.488-.107.196-.494.583-.89 1.07-1.1-.524-.874-1.406-1.733-2.541-2.388a8 8 0 0 0-.594-.312 6 6 0 0 0-2.06 4.106q.309-.11.637-.199M8 9a1 1 0 1 0 0-2 1 1 0 0 0 0 2"
     id="path1" />
  <path
     d="M8 15A7 7 0 1 1 8 1a7 7 0 0 1 0 14m0 1A8 8 0 1 0 8 0a8 8 0 0 0 0 16"
     id="path2" />
  <path
     style="fill:none;stroke:#1d671d;stroke-width:0"
     d="M 2.0346749,7.4835949 C 2.0348881,7.3515054 2.1166472,6.8579184 2.1835857,6.5846068 2.3918025,5.7344527 2.7853326,4.9343704 3.3288981,4.2560829 3.4972159,4.0460478 3.8922246,3.6289845 4.0147317,3.5319572 l 0.074218,-0.058782 0.2518215,0.1331825 C 5.4913746,4.2148852 6.4460755,5.0369675 7.0542127,5.9428725 L 7.1915621,6.1474734 7.040254,6.2337 C 6.8398121,6.3479265 6.6917223,6.4607589 6.5511998,6.6063194 6.4190779,6.7431779 6.2197037,7.0350323 6.1707275,7.1632751 6.1467933,7.2259461 6.1286552,7.2476525 6.1057952,7.2409829 6.0416753,7.2222754 5.7716415,7.171666 5.5506173,7.1369325 5.2222923,7.0853367 4.1562441,7.0854931 3.7728395,7.1371931 3.4582778,7.1796101 3.070536,7.2523925 2.7950617,7.3207303 c -0.1675045,0.041553 -0.6331214,0.180298 -0.7306053,0.217706 -0.023036,0.00884 -0.029864,-0.00373 -0.029781,-0.054841 z"
     id="path3" />
  <path
     style="fill:none;stroke:#1d671d;stroke-width:0"
     d="M 2.0346749,7.4835949 C 2.0348881,7.3515054 2.1166472,6.8579184 2.1835857,6.5846068 2.3918025,5.7344527 2.7853326,4.9343704 3.3288981,4.2560829 3.4972159,4.0460478 3.8922246,3.6289845 4.0147317,3.5319572 l 0.074218,-0.058782 0.2518215,0.1331825 C 5.4913746,4.2148852 6.4460755,5.0369675 7.0542127,5.9428725 L 7.1915621,6.1474734 7.040254,6.2337 C 6.8398121,6.3479265 6.6917223,6.4607589 6.5511998,6.6063194 6.4190779,6.7431779 6.2197037,7.0350323 6.1707275,7.1632751 6.1467933,7.2259461 6.1286552,7.2476525 6.1057952,7.2409829 6.0416753,7.2222754 5.7716415,7.171666 5.5506173,7.1369325 5.2222923,7.0853367 4.1562441,7.0854931 3.7728395,7.1371931 3.4582778,7.1796101 3.070536,7.2523925 2.7950617,7.3207303 c -0.1675045,0.041553 -0.6331214,0.180298 -0.7306053,0.217706 -0.023036,0.00884 -0.029864,-0.00373 -0.029781,-0.054841 z"
     id="path4" />
  <path
     style="fill:#6f6f6d;stroke:#1d671d;stroke-width:0;fill-opacity:1"
     d="M 9.0392225,6.2803729 C 8.7313209,6.0904126 8.3987386,6.0002598 7.9950985,5.9973428 L 7.7235305,5.9953803 7.6611716,5.8075666 C 7.4706424,5.2337284 7.1425696,4.6082256 6.7313217,4.034718 6.430781,3.6155976 6.0920479,3.2369286 5.6140719,2.785747 L 5.4108598,2.5939266 5.6320841,2.4994792 C 6.9481367,1.9376159 8.3823117,1.859794 9.7535311,2.2758394 9.9319571,2.3299761 9.9580527,2.3435667 9.9697685,2.3884561 9.9977369,2.4956169 9.9828845,3.5193162 9.9489152,3.825777 9.8566686,4.6579953 9.6687455,5.3765948 9.3738704,6.0246914 9.3170252,6.1496296 9.2533335,6.2797754 9.2323332,6.313904 l -0.038182,0.062052 z"
     id="path5" />
  <path
     style="fill:#6f6f6d;fill-opacity:1;stroke:#1d671d;stroke-width:0"
     d="M 10.008989,8.0839506 C 10.040085,7.7370469 9.9038136,7.2402603 9.6872767,6.9111299 L 9.5810898,6.7497284 9.6349893,6.6859488 C 9.6646341,6.6508701 9.7628818,6.5344034 9.8533177,6.427134 10.50809,5.6504838 11.039935,4.5152476 11.30706,3.3240846 l 0.06298,-0.2808537 0.190056,0.1425821 c 0.836341,0.6274346 1.48843,1.4378616 1.90418,2.3665483 0.131848,0.2945175 0.302967,0.8007079 0.365545,1.081324 l 0.0455,0.2040559 -0.04877,0.038129 c -0.02683,0.020971 -0.146766,0.099009 -0.266533,0.1734181 -0.97838,0.6078491 -2.006678,0.9864587 -3.037575,1.1184063 -0.128211,0.01641 -0.298479,0.029837 -0.378374,0.029837 H 9.998808 Z"
     id="path6" />
  <path
     style="fill:#6f6f6d;fill-opacity:1;stroke:#1d671d;stroke-width:0"
     d="M 11.682961,12.39254 C 10.575285,11.823254 9.5603213,10.957163 8.9574742,10.066823 L 8.8112784,9.850908 8.9611662,9.7654908 C 9.1602234,9.6520531 9.3085556,9.5389531 9.4488003,9.3936806 9.5807432,9.2570075 9.7802769,8.9650182 9.8291093,8.8371525 c 0.018176,-0.047594 0.042951,-0.086418 0.055056,-0.086276 0.012104,1.427e-4 0.1064522,0.017767 0.2096617,0.039166 0.539666,0.1118893 1.417346,0.1430045 2.014815,0.071429 0.575312,-0.068922 1.209213,-0.2054077 1.657131,-0.3567997 l 0.205279,-0.069382 -0.01331,0.1626022 c -0.01947,0.2377816 -0.08368,0.5963905 -0.159608,0.89145 -0.222126,0.863133 -0.633259,1.664263 -1.203887,2.345881 -0.222917,0.266274 -0.624784,0.668481 -0.667918,0.668481 -0.01489,0 -0.124402,-0.05002 -0.243364,-0.111164 z"
     id="path7" />
  <path
     style="fill:#6f6f6d;fill-opacity:1;stroke:#1d671d;stroke-width:0"
     d="M 7.5160494,13.971713 C 7.1409118,13.939282 6.6077257,13.835821 6.2505557,13.726153 l -0.2023945,-0.06214 -0.013852,-0.09126 c -0.025855,-0.170341 -0.013685,-1.048099 0.019021,-1.371876 0.060056,-0.59453 0.1792027,-1.161856 0.3488746,-1.661193 0.086651,-0.25501 0.2796655,-0.7083369 0.3563248,-0.8368891 l 0.047599,-0.079821 0.1376764,0.086915 C 7.2702071,9.91594 7.7089048,10.028294 8.1212672,10.01144 l 0.1590597,-0.0065 0.084094,0.237037 c 0.1214462,0.342321 0.1553324,0.422002 0.3150138,0.740741 0.3916509,0.781771 1.0317989,1.617098 1.6896223,2.20478 0.120186,0.107371 0.218537,0.200618 0.218559,0.207216 6.1e-5,0.01918 -0.420029,0.193206 -0.6698262,0.277486 -0.6477892,0.218561 -1.2558447,0.315184 -1.9474198,0.309455 -0.2064198,-0.0017 -0.4108642,-0.0062 -0.454321,-0.0099 z"
     id="path8" />
  <path
     style="fill:#6f6f6d;fill-opacity:1;stroke:#1d671d;stroke-width:0"
     d="M 4.4124134,12.792824 C 3.4629886,12.084761 2.7241104,11.071573 2.3399862,9.9510052 2.2370873,9.6508286 2.1065538,9.143201 2.1281827,9.1273294 2.3272765,8.9812312 2.7979307,8.7047394 3.1330705,8.5369953 3.9570897,8.1245574 4.9303992,7.8381424 5.6599818,7.7934031 5.7682264,7.7867653 5.890386,7.7770538 5.9314477,7.7718219 l 0.074658,-0.00951 -0.012887,0.1257822 C 5.9558339,8.252988 6.0968922,8.7716893 6.3255633,9.1101937 6.4143761,9.2416643 6.4147319,9.242863 6.3753894,9.2780949 6.3535957,9.2976119 6.2648514,9.3980247 6.17818,9.5012346 5.4839508,10.327935 4.9563593,11.444535 4.6814921,12.668839 c -0.031367,0.139714 -0.060653,0.257647 -0.065079,0.262073 -0.00443,0.0044 -0.096226,-0.05771 -0.2039997,-0.138088 z"
     id="path9" />
  <path
     style="fill:#6f6f6d;fill-opacity:1;stroke:#1d671d;stroke-width:0"
     d="M 2.0346749,7.4835949 C 2.0348881,7.3515054 2.1166472,6.8579184 2.1835857,6.5846068 2.3918025,5.7344527 2.7853326,4.9343704 3.3288981,4.2560829 3.4972159,4.0460478 3.8922246,3.6289845 4.0147317,3.5319572 l 0.074218,-0.058782 0.2518215,0.1331825 C 5.4913746,4.2148852 6.4460755,5.0369675 7.0542127,5.9428725 L 7.1915621,6.1474734 7.040254,6.2337 C 6.8398121,6.3479265 6.6917223,6.4607589 6.5511998,6.6063194 6.4190779,6.7431779 6.2197037,7.0350323 6.1707275,7.1632751 6.1467933,7.2259461 6.1286552,7.2476525 6.1057952,7.2409829 6.0416753,7.2222754 5.7716415,7.171666 5.5506173,7.1369325 5.2222923,7.0853367 4.1562441,7.0854931 3.7728395,7.1371931 3.4582778,7.1796101 3.070536,7.2523925 2.7950617,7.3207303 c -0.1675045,0.041553 -0.6331214,0.180298 -0.7306053,0.217706 -0.023036,0.00884 -0.029864,-0.00373 -0.029781,-0.054841 z"
     id="path10" />
  <path
     style="fill:#6f6f6d;fill-opacity:1;stroke:#1d671d;stroke-width:0"
     d="M 7.7698346,8.9596087 C 7.336847,8.8545817 7.0123457,8.4434941 7.0123457,8 7.0123457,7.4668757 7.4668757,7.0123457 8,7.0123457 c 0.5331243,0 0.9876543,0.45453 0.9876543,0.9876543 0,0.5410436 -0.4610479,0.994066 -1.0034414,0.9859743 C 7.9222785,8.9850505 7.8258083,8.973186 7.7698346,8.9596087 Z"
     id="path11" />
  <path
     style="fill:#6f6f6d;fill-opacity:1;stroke:#1d671d;stroke-width:0"
     d="M 7.6444444,15.978965 C 5.9556976,15.90661 4.3334068,15.292263 2.982716,14.213609 2.6633051,13.95853 2.0369073,13.332391 1.7858962,13.017284 0.78235149,11.757485 0.18378732,10.273991 0.04046029,8.691358 0.01396035,8.3987429 0.01396035,7.6012571 0.04046029,7.308642 0.18386833,5.7251149 0.78311176,4.2399488 1.78591,2.982716 2.0391431,2.6652316 2.6657124,2.0387253 2.982716,1.7860305 4.2448358,0.7799503 5.723219,0.18442376 7.3185185,0.03947018 7.6666501,0.00783794 8.4317906,0.01289538 8.7802469,0.04913195 10.349615,0.21233323 11.779046,0.79826254 13.017284,1.78591 c 0.317484,0.2532331 0.943991,0.8798024 1.196685,1.196806 1.012236,1.2698418 1.611471,2.7649644 1.747441,4.3599556 0.03124,0.3664178 0.01408,1.3124207 -0.02948,1.6252296 -0.219308,1.5750128 -0.788619,2.9026888 -1.757488,4.0985928 -0.221627,0.27356 -0.824846,0.877926 -1.097901,1.099987 -0.937915,0.762758 -2.020911,1.306104 -3.1615856,1.58619 -0.5161633,0.126741 -1.0184754,0.201971 -1.4590953,0.218525 -0.1475142,0.0055 -0.3170967,0.0127 -0.3768498,0.0159 -0.059753,0.0032 -0.2553086,-4.55e-4 -0.4345679,-0.0081 z M 8.8098765,14.962442 C 11.618104,14.636402 13.938121,12.671144 14.736032,9.9424701 14.918436,9.318689 15.000135,8.7221347 15.000704,8.0098765 15.00138,7.1647905 14.897024,6.5162837 14.635629,5.741152 13.960327,3.7386353 12.386511,2.1324166 10.390123,1.4082374 9.6195725,1.128724 8.8702368,0.99998329 8.0098765,0.99929568 7.4914189,0.99888132 7.2483427,1.0183495 6.7828344,1.0975704 4.9186202,1.4148255 3.2232865,2.5234611 2.1631783,4.1185185 1.5422234,5.0528182 1.1728553,6.064176 1.0341523,7.2098765 c -0.0477964,0.3948032 -0.0477964,1.1854438 0,1.580247 0.2277117,1.8809215 1.1348111,3.5195825 2.5982202,4.6936455 1.1102835,0.890757 2.4927985,1.419771 3.9626892,1.516306 0.2313705,0.01519 0.9521069,-0.0071 1.2148148,-0.03763 z"
     id="path12" />
</svg>
