<?xml version="1.0" encoding="UTF-8" standalone="no"?>
<svg
   width="16"
   height="16"
   fill="currentColor"
   class="bi bi-thermometer-high"
   viewBox="0 0 16 16"
   version="1.1"
   id="svg2"
   sodipodi:docname="active_temperature_high.svg"
   inkscape:version="1.4.2 (ebf0e940d0, 2025-05-08)"
   xmlns:inkscape="http://www.inkscape.org/namespaces/inkscape"
   xmlns:sodipodi="http://sodipodi.sourceforge.net/DTD/sodipodi-0.dtd"
   xmlns="http://www.w3.org/2000/svg"
   xmlns:svg="http://www.w3.org/2000/svg">
  <defs
     id="defs2" />
  <sodipodi:namedview
     id="namedview2"
     pagecolor="#ffffff"
     bordercolor="#000000"
     borderopacity="0.25"
     inkscape:showpageshadow="2"
     inkscape:pageopacity="0.0"
     inkscape:pagecheckerboard="0"
     inkscape:deskcolor="#d1d1d1"
     inkscape:zoom="50.625"
     inkscape:cx="8"
     inkscape:cy="8"
     inkscape:window-width="1920"
     inkscape:window-height="1012"
     inkscape:window-x="0"
     inkscape:window-y="0"
     inkscape:window-maximized="1"
     inkscape:current-layer="svg2" />
  <path
     d="M9.5 12.5a1.5 1.5 0 1 1-2-1.415V2.5a.5.5 0 0 1 1 0v8.585a1.5 1.5 0 0 1 1 1.415"
     id="path1" />
  <path
     d="M5.5 2.5a2.5 2.5 0 0 1 5 0v7.55a3.5 3.5 0 1 1-5 0zM8 1a1.5 1.5 0 0 0-1.5 1.5v7.987l-.167.15a2.5 2.5 0 1 0 3.333 0l-.166-.15V2.5A1.5 1.5 0 0 0 8 1"
     id="path2" />
  <path
     style="fill:#deddda;stroke:#1d671d;stroke-width:0"
     d="M 7.4850066,15.951199 C 6.5626299,15.801005 5.7500072,15.314311 5.2097765,14.588525 4.5994805,13.768607 4.3750527,12.734762 4.5947333,11.755277 4.7263277,11.16854 5.009628,10.611935 5.3918826,10.189103 L 5.5111111,10.057218 5.5112276,6.1891028 C 5.5113563,1.9130489 5.5053122,2.1253529 5.6382264,1.7281445 5.768867,1.3377309 5.9540042,1.0376056 6.2414964,0.75018558 6.7268211,0.26498276 7.3195793,0.0182668 8,0.0182668 c 0.6816292,0 1.2723168,0.24585415 1.7585037,0.73191878 0.2874923,0.28742002 0.4726293,0.58754532 0.6032703,0.97795892 0.132914,0.3972084 0.12687,0.1849044 0.126998,4.4609583 l 1.17e-4,3.8681152 0.119228,0.131885 c 0.276308,0.305639 0.551844,0.774321 0.688117,1.170475 0.376387,1.094184 0.187951,2.296626 -0.50601,3.228947 -0.503731,0.676749 -1.2504085,1.148826 -2.1087425,1.333223 -0.2572046,0.05526 -0.9354704,0.07195 -1.1964749,0.02945 z m 0.998944,-0.988114 c 0.4778442,-0.0985 0.887777,-0.309579 1.2342783,-0.635542 0.3736811,-0.351533 0.6319701,-0.81396 0.7428791,-1.330012 0.05011,-0.233139 0.05152,-0.754898 0.0027,-0.981564 -0.07612,-0.353127 -0.23662,-0.721299 -0.430995,-0.988635 -0.095341,-0.13113 -0.4857329,-0.538443 -0.5160726,-0.538443 -0.00851,0 -0.015601,-1.8466668 -0.015762,-4.1037038 C 9.5006246,1.916743 9.5073132,2.1886131 9.3908954,1.912017 9.21099,1.484581 8.8373541,1.1621745 8.3741659,1.0346918 8.1984385,0.9863266 7.8015615,0.9863266 7.6258341,1.0346918 7.1626459,1.1621745 6.78901,1.484581 6.6091046,1.912017 6.4926961,2.1885912 6.4993754,1.9177643 6.4990574,6.3741904 l -2.92e-4,4.0927086 -0.1135802,0.104822 c -0.2954843,0.2727 -0.4788891,0.5071 -0.624405,0.79802 -0.1720276,0.343923 -0.2481396,0.645909 -0.2633981,1.045074 -0.049386,1.291945 0.8854747,2.397166 2.1793541,2.576499 0.1874712,0.02598 0.6171068,0.01096 0.8072144,-0.02823 z"
     id="path3" />
  <path
     style="fill:#deddda;stroke:#1d671d;stroke-width:0"
     d="M 7.437037,15.93301 C 6.4691571,15.747811 5.6687222,15.235994 5.1405803,14.464604 4.4894072,13.513517 4.3472634,12.319775 4.7586094,11.256764 c 0.1396223,-0.360816 0.399334,-0.791429 0.630177,-1.044861 l 0.1173542,-0.128838 0.013394,-3.8217793 c 0.00749,-2.1372251 0.021782,-3.925564 0.032424,-4.0572371 0.057157,-0.7072403 0.5015861,-1.39617512 1.1723138,-1.8172709 0.7380802,-0.46338104 1.7672233,-0.47446034 2.5131842,-0.0270558 0.4180845,0.25075435 0.7564413,0.61075648 0.9680904,1.0300208 0.152768,0.3026256 0.221948,0.5431836 0.243236,0.8458105 0.01018,0.1447668 0.02263,1.9669683 0.02766,4.0493369 l 0.0091,3.7861249 0.142224,0.164492 c 0.372437,0.43075 0.671436,1.033461 0.777357,1.566962 0.214423,1.080005 -0.07878,2.165578 -0.811164,3.003296 -0.460988,0.527288 -1.1789391,0.944342 -1.8927694,1.099498 -0.2338126,0.05082 -1.0499904,0.06874 -1.2641976,0.02775 z m 1.1555556,-0.986116 c 0.9281165,-0.239959 1.5968514,-0.900164 1.8506894,-1.827081 0.04908,-0.179226 0.05245,-0.218468 0.05281,-0.616109 3.71e-4,-0.400121 -0.0027,-0.435766 -0.05242,-0.61611 -0.0621,-0.225076 -0.172909,-0.489531 -0.293241,-0.699843 -0.08266,-0.144469 -0.37722,-0.491829 -0.5446932,-0.642326 l -0.07996,-0.07186 -0.012698,-3.8886348 C 9.506095,4.4461819 9.4955018,2.5762963 9.4895388,2.4296296 9.4765331,2.1097545 9.4616972,2.0354975 9.373777,1.8502234 9.195348,1.4742199 8.8677906,1.1869908 8.4641975,1.0526293 8.3203018,1.0047245 8.278798,1.0000168 8,0.9999762 7.7241995,0.99993602 7.6788043,1.0049412 7.5423872,1.0504314 7.2571283,1.1455551 6.9904308,1.3273131 6.8160798,1.5454201 6.7099642,1.6781669 6.5754066,1.9320848 6.5354084,2.0750631 6.5162489,2.1435506 6.5093351,3.0765813 6.5041019,6.2998746 l -0.00672,4.1369114 -0.2333576,0.239798 c -0.3354459,0.344702 -0.5223868,0.640558 -0.6551638,1.03687 -0.1591354,0.474988 -0.1569612,1.1036 0.0055,1.59025 0.2458325,0.736386 0.8098762,1.309618 1.5430871,1.568226 0.3337511,0.117716 0.4942483,0.141463 0.8919316,0.131969 0.2945875,-0.007 0.3877332,-0.01681 0.5432099,-0.05701 z"
     id="path4" />
  <path
     style="fill:#deddda;stroke:#1d671d;stroke-width:0"
     d="M 7.6938272,13.957215 C 7.234878,13.851296 6.8689555,13.562085 6.6670368,13.145679 6.5480992,12.9004 6.5114201,12.717762 6.5228819,12.427879 c 0.010609,-0.268305 0.065995,-0.460998 0.1955493,-0.680335 0.1505394,-0.254863 0.4554302,-0.524766 0.6970164,-0.617028 l 0.090725,-0.03465 V 6.7762102 c 0,-4.7413394 -0.00788,-4.434679 0.1179201,-4.5867735 0.2433372,-0.2941901 0.7316836,-0.195609 0.8406719,0.1697041 0.025196,0.084451 0.029062,0.6721636 0.029062,4.4170694 v 4.3196568 l 0.090725,0.03465 c 0.2415864,0.09226 0.546477,0.362165 0.6970165,0.617028 0.1315927,0.222787 0.1851808,0.411487 0.1955372,0.688542 0.00742,0.198466 0.00186,0.266517 -0.03309,0.404939 -0.1324421,0.524581 -0.4826781,0.901746 -0.9995716,1.076428 -0.1939198,0.06553 -0.5558669,0.08471 -0.7506172,0.03976 z"
     id="path5" />
  <path
     style="fill:#ff8800;stroke:#ff8800;stroke-width:0"
     d="M 7.437037,15.93301 C 6.4477359,15.743712 5.6402212,15.21839 5.1108892,14.419753 4.322671,13.230519 4.3312471,11.738054 5.1331473,10.546261 5.2092039,10.433225 5.3240101,10.282963 5.388272,10.212346 L 5.5051118,10.083951 5.5189206,6.2518519 C 5.5267848,4.0694643 5.5410031,2.3225254 5.5519483,2.1939036 5.5661267,2.0272871 5.5888798,1.9151208 5.638704,1.7662234 5.8382268,1.1699581 6.1909769,0.72159091 6.7236832,0.38714761 7.3666021,-0.01648932 8.233715,-0.08297533 8.952494,0.2162532 c 0.8078675,0.33631608 1.428669,1.1614293 1.495585,1.9877954 0.01072,0.1324233 0.02468,1.9080294 0.03189,4.0576798 l 0.01282,3.8222226 0.07476,0.07901 c 0.205237,0.216918 0.431923,0.562937 0.592283,0.90407 0.751717,1.599131 0.115958,3.563584 -1.4380123,4.443363 -0.3286902,0.186088 -0.7061369,0.330328 -1.0533396,0.40253 -0.2047404,0.04258 -1.0424816,0.05624 -1.2314381,0.02008 z m 0.908642,-0.942562 c 0.8157657,-0.09997 1.5899562,-0.669673 1.933002,-1.422439 0.181489,-0.398249 0.241511,-0.71828 0.223692,-1.1927 -0.01173,-0.312466 -0.045,-0.484483 -0.14516,-0.750618 -0.13813,-0.367028 -0.293757,-0.604548 -0.6140586,-0.937187 L 9.5254631,10.461427 9.5119024,6.5393557 C 9.504444,4.3822161 9.4910894,2.4926914 9.4822256,2.3404115 9.4685817,2.1060152 9.4578461,2.0438918 9.4122485,1.9354731 9.2475445,1.5438525 8.9338475,1.2350164 8.5499915,1.0865772 7.9295949,0.84666663 7.1885655,1.0526111 6.7986149,1.573314 6.689743,1.7186912 6.5714392,1.9460325 6.535602,2.0787392 6.5189177,2.1405211 6.5105586,3.2654961 6.5042301,6.3007317 L 6.495603,10.4385 6.2726463,10.6681 c -0.2537988,0.261361 -0.3910165,0.446002 -0.517186,0.695929 -0.2019037,0.399948 -0.2742531,0.748029 -0.2574125,1.23844 0.011096,0.323111 0.041841,0.489665 0.1422069,0.770371 0.2947931,0.824482 1.04167,1.449142 1.9236313,1.608853 0.1855145,0.03359 0.546148,0.03763 0.781793,0.0088 z"
     id="path6" />
  <path
     style="fill:#ff8800;stroke:#ff8800;stroke-width:0"
     d="M 7.6049383,13.919082 C 7.10557,13.769986 6.7167771,13.375817 6.5791261,12.879087 6.5238039,12.67945 6.5225729,12.334368 6.5764317,12.123782 6.6425098,11.865419 6.8084418,11.59331 7.0086264,11.415035 7.1354311,11.302109 7.3753895,11.146574 7.4471098,11.130821 l 0.059063,-0.01297 0.00229,-2.2058383 c 0.00374,-3.5988182 0.027354,-6.5217373 0.053325,-6.5994126 0.030181,-0.090264 0.1109432,-0.1721873 0.2292332,-0.2325282 0.081885,-0.04177 0.1180359,-0.048402 0.2295181,-0.042103 0.1701219,0.00961 0.2979618,0.08378 0.3838769,0.2227103 l 0.059781,0.09667 0.01227,2.4114495 c 0.00675,1.3262973 0.013415,3.2981164 0.014815,4.3818201 0.00202,1.5616232 0.00767,1.9704232 0.027236,1.9706212 0.050032,5.07e-4 0.2576295,0.119464 0.3840836,0.220086 0.2549096,0.202838 0.4459168,0.489016 0.5201732,0.779356 0.054648,0.213671 0.053813,0.557352 -0.00184,0.758189 -0.083644,0.301838 -0.2839812,0.604964 -0.5160616,0.780839 -0.158163,0.119859 -0.4127824,0.240523 -0.5841993,0.276849 -0.2071414,0.0439 -0.5371715,0.03584 -0.7157351,-0.01748 z"
     id="path7" />
  <path
     style="fill:#000000;stroke:#ff8800;stroke-width:0"
     d="M 7.762963,14.981561 C 7.7358025,14.97689 7.651358,14.963145 7.5753086,14.951017 7.2367679,14.897027 6.8089036,14.713488 6.5209825,14.498747 6.3300082,14.356312 6.0612539,14.076159 5.9398666,13.892984 5.7934896,13.672098 5.6534805,13.359296 5.5858148,13.101975 5.5290744,12.886202 5.5244632,12.8438 5.5229015,12.523457 c -0.0013,-0.265982 0.0066,-0.383461 0.034255,-0.509552 0.1145384,-0.522254 0.3442398,-0.933229 0.73665,-1.317993 l 0.2219937,-0.217667 0.00699,-4.1378881 0.00699,-4.1378878 0.053127,-0.1580247 C 6.6620584,1.8089867 6.7630336,1.6511776 6.9633512,1.4498555 7.1144576,1.2979914 7.1712464,1.2558278 7.3291389,1.1782715 7.5866811,1.0517674 7.7241355,1.0191684 8,1.0191684 c 0.2758645,0 0.4133189,0.032599 0.670861,0.1591031 0.1578926,0.077556 0.2146815,0.1197199 0.3657879,0.271584 0.1997576,0.2007594 0.3005908,0.3580616 0.3811405,0.5945889 l 0.053816,0.1580247 0.00534,4.1372763 0.00534,4.1372766 0.2224585,0.21837 c 0.5442541,0.534253 0.8121031,1.191351 0.7773711,1.907077 -0.03026,0.623594 -0.25705,1.157729 -0.6804867,1.602689 -0.3583299,0.376543 -0.7779175,0.614365 -1.2880558,0.730069 -0.1604397,0.03639 -0.6372839,0.06582 -0.7506172,0.04633 z m 0.54894,-1.008063 c 0.6978849,-0.144152 1.1893316,-0.749144 1.1893316,-1.464116 0,-0.261791 -0.040437,-0.443704 -0.148355,-0.667407 C 9.2022471,11.529731 8.9673884,11.29162 8.6668826,11.146478 L 8.514012,11.072644 8.5088579,6.7165687 8.5037037,2.3604938 8.4461967,2.2567046 C 8.35,2.0830873 8.2018596,1.9967958 8,1.9967958 c -0.2018596,0 -0.35,0.086291 -0.4461967,0.2599088 l -0.057507,0.1037892 -0.00515,4.3575913 -0.00515,4.3575909 -0.083735,0.03698 c -0.3492831,0.154265 -0.6145988,0.415731 -0.7733224,0.762101 -0.2120704,0.462784 -0.1668299,1.042938 0.113827,1.459689 0.3450017,0.512298 0.9634366,0.764161 1.5691454,0.639049 z"
     id="path8" />
</svg>
