<?xml version="1.0" encoding="UTF-8" standalone="no"?>
<svg
   width="16"
   height="16"
   fill="currentColor"
   class="bi bi-fan"
   viewBox="0 0 16 16"
   version="1.1"
   id="svg2"
   sodipodi:docname="active_fan.svg"
   inkscape:version="1.4.2 (ebf0e940d0, 2025-05-08)"
   xmlns:inkscape="http://www.inkscape.org/namespaces/inkscape"
   xmlns:sodipodi="http://sodipodi.sourceforge.net/DTD/sodipodi-0.dtd"
   xmlns="http://www.w3.org/2000/svg"
   xmlns:svg="http://www.w3.org/2000/svg">
  <defs
     id="defs2" />
  <sodipodi:namedview
     id="namedview2"
     pagecolor="#ffffff"
     bordercolor="#000000"
     borderopacity="0.25"
     inkscape:showpageshadow="2"
     inkscape:pageopacity="0.0"
     inkscape:pagecheckerboard="0"
     inkscape:deskcolor="#d1d1d1"
     inkscape:zoom="50.625"
     inkscape:cx="8"
     inkscape:cy="8"
     inkscape:window-width="1920"
     inkscape:window-height="1012"
     inkscape:window-x="0"
     inkscape:window-y="0"
     inkscape:window-maximized="1"
     inkscape:current-layer="svg2" />
  <path
     d="M10 3c0 1.313-.304 2.508-.8 3.4a2 2 0 0 0-1.484-.38c-.28-.982-.91-2.04-1.838-2.969a8 8 0 0 0-.491-.454A6 6 0 0 1 8 2c.691 0 1.355.117 1.973.332Q10 2.661 10 3m0 5q0 .11-.012.217c1.018-.019 2.2-.353 3.331-1.006a8 8 0 0 0 .57-.361 6 6 0 0 0-2.53-3.823 9 9 0 0 1-.145.64c-.34 1.269-.944 2.346-1.656 3.079.277.343.442.78.442 1.254m-.137.728a2 2 0 0 1-1.07 1.109c.525.87 1.405 1.725 2.535 2.377q.3.174.605.317a6 6 0 0 0 2.053-4.111q-.311.11-.641.199c-1.264.339-2.493.356-3.482.11ZM8 10c-.45 0-.866-.149-1.2-.4-.494.89-.796 2.082-.796 3.391q0 .346.027.678A6 6 0 0 0 8 14c.94 0 1.83-.216 2.623-.602a8 8 0 0 1-.497-.458c-.925-.926-1.555-1.981-1.836-2.96Q8.149 10 8 10M6 8q0-.12.014-.239c-1.02.017-2.205.351-3.34 1.007a8 8 0 0 0-.568.359 6 6 0 0 0 2.525 3.839 8 8 0 0 1 .148-.653c.34-1.267.94-2.342 1.65-3.075A2 2 0 0 1 6 8m-3.347-.632c1.267-.34 2.498-.355 3.488-.107.196-.494.583-.89 1.07-1.1-.524-.874-1.406-1.733-2.541-2.388a8 8 0 0 0-.594-.312 6 6 0 0 0-2.06 4.106q.309-.11.637-.199M8 9a1 1 0 1 0 0-2 1 1 0 0 0 0 2"
     id="path1" />
  <path
     d="M8 15A7 7 0 1 1 8 1a7 7 0 0 1 0 14m0 1A8 8 0 1 0 8 0a8 8 0 0 0 0 16"
     id="path2" />
  <path
     style="fill:none;stroke:#1d671d;stroke-width:0"
     d="M 2.0346749,7.4835949 C 2.0348881,7.3515054 2.1166472,6.8579184 2.1835857,6.5846068 2.3918025,5.7344527 2.7853326,4.9343704 3.3288981,4.2560829 3.4972159,4.0460478 3.8922246,3.6289845 4.0147317,3.5319572 l 0.074218,-0.058782 0.2518215,0.1331825 C 5.4913746,4.2148852 6.4460755,5.0369675 7.0542127,5.9428725 L 7.1915621,6.1474734 7.040254,6.2337 C 6.8398121,6.3479265 6.6917223,6.4607589 6.5511998,6.6063194 6.4190779,6.7431779 6.2197037,7.0350323 6.1707275,7.1632751 6.1467933,7.2259461 6.1286552,7.2476525 6.1057952,7.2409829 6.0416753,7.2222754 5.7716415,7.171666 5.5506173,7.1369325 5.2222923,7.0853367 4.1562441,7.0854931 3.7728395,7.1371931 3.4582778,7.1796101 3.070536,7.2523925 2.7950617,7.3207303 c -0.1675045,0.041553 -0.6331214,0.180298 -0.7306053,0.217706 -0.023036,0.00884 -0.029864,-0.00373 -0.029781,-0.054841 z"
     id="path3" />
  <path
     style="fill:none;stroke:#1d671d;stroke-width:0"
     d="M 2.0346749,7.4835949 C 2.0348881,7.3515054 2.1166472,6.8579184 2.1835857,6.5846068 2.3918025,5.7344527 2.7853326,4.9343704 3.3288981,4.2560829 3.4972159,4.0460478 3.8922246,3.6289845 4.0147317,3.5319572 l 0.074218,-0.058782 0.2518215,0.1331825 C 5.4913746,4.2148852 6.4460755,5.0369675 7.0542127,5.9428725 L 7.1915621,6.1474734 7.040254,6.2337 C 6.8398121,6.3479265 6.6917223,6.4607589 6.5511998,6.6063194 6.4190779,6.7431779 6.2197037,7.0350323 6.1707275,7.1632751 6.1467933,7.2259461 6.1286552,7.2476525 6.1057952,7.2409829 6.0416753,7.2222754 5.7716415,7.171666 5.5506173,7.1369325 5.2222923,7.0853367 4.1562441,7.0854931 3.7728395,7.1371931 3.4582778,7.1796101 3.070536,7.2523925 2.7950617,7.3207303 c -0.1675045,0.041553 -0.6331214,0.180298 -0.7306053,0.217706 -0.023036,0.00884 -0.029864,-0.00373 -0.029781,-0.054841 z"
     id="path4" />
  <path
     style="fill:#deddda;stroke:#1d671d;stroke-width:0;fill-opacity:1"
     d="M 9.0392225,6.2803729 C 8.7313209,6.0904126 8.3987386,6.0002598 7.9950985,5.9973428 L 7.7235305,5.9953803 7.6611716,5.8075666 C 7.4706424,5.2337284 7.1425696,4.6082256 6.7313217,4.034718 6.430781,3.6155976 6.0920479,3.2369286 5.6140719,2.785747 L 5.4108598,2.5939266 5.6320841,2.4994792 C 6.9481367,1.9376159 8.3823117,1.859794 9.7535311,2.2758394 9.9319571,2.3299761 9.9580527,2.3435667 9.9697685,2.3884561 9.9977369,2.4956169 9.9828845,3.5193162 9.9489152,3.825777 9.8566686,4.6579953 9.6687455,5.3765948 9.3738704,6.0246914 9.3170252,6.1496296 9.2533335,6.2797754 9.2323332,6.313904 l -0.038182,0.062052 z"
     id="path5" />
  <path
     style="fill:#deddda;fill-opacity:1;stroke:#1d671d;stroke-width:0"
     d="M 10.008989,8.0839506 C 10.040085,7.7370469 9.9038136,7.2402603 9.6872767,6.9111299 L 9.5810898,6.7497284 9.6349893,6.6859488 C 9.6646341,6.6508701 9.7628818,6.5344034 9.8533177,6.427134 10.50809,5.6504838 11.039935,4.5152476 11.30706,3.3240846 l 0.06298,-0.2808537 0.190056,0.1425821 c 0.836341,0.6274346 1.48843,1.4378616 1.90418,2.3665483 0.131848,0.2945175 0.302967,0.8007079 0.365545,1.081324 l 0.0455,0.2040559 -0.04877,0.038129 c -0.02683,0.020971 -0.146766,0.099009 -0.266533,0.1734181 -0.97838,0.6078491 -2.006678,0.9864587 -3.037575,1.1184063 -0.128211,0.01641 -0.298479,0.029837 -0.378374,0.029837 H 9.998808 Z"
     id="path6" />
  <path
     style="fill:#deddda;fill-opacity:1;stroke:#1d671d;stroke-width:0"
     d="M 11.682961,12.39254 C 10.575285,11.823254 9.5603213,10.957163 8.9574742,10.066823 L 8.8112784,9.850908 8.9611662,9.7654908 C 9.1602234,9.6520531 9.3085556,9.5389531 9.4488003,9.3936806 9.5807432,9.2570075 9.7802769,8.9650182 9.8291093,8.8371525 c 0.018176,-0.047594 0.042951,-0.086418 0.055056,-0.086276 0.012104,1.427e-4 0.1064522,0.017767 0.2096617,0.039166 0.539666,0.1118893 1.417346,0.1430045 2.014815,0.071429 0.575312,-0.068922 1.209213,-0.2054077 1.657131,-0.3567997 l 0.205279,-0.069382 -0.01331,0.1626022 c -0.01947,0.2377816 -0.08368,0.5963905 -0.159608,0.89145 -0.222126,0.863133 -0.633259,1.664263 -1.203887,2.345881 -0.222917,0.266274 -0.624784,0.668481 -0.667918,0.668481 -0.01489,0 -0.124402,-0.05002 -0.243364,-0.111164 z"
     id="path7" />
  <path
     style="fill:#deddda;fill-opacity:1;stroke:#1d671d;stroke-width:0"
     d="M 7.5160494,13.971713 C 7.1409118,13.939282 6.6077257,13.835821 6.2505557,13.726153 l -0.2023945,-0.06214 -0.013852,-0.09126 c -0.025855,-0.170341 -0.013685,-1.048099 0.019021,-1.371876 0.060056,-0.59453 0.1792027,-1.161856 0.3488746,-1.661193 0.086651,-0.25501 0.2796655,-0.7083369 0.3563248,-0.8368891 l 0.047599,-0.079821 0.1376764,0.086915 C 7.2702071,9.91594 7.7089048,10.028294 8.1212672,10.01144 l 0.1590597,-0.0065 0.084094,0.237037 c 0.1214462,0.342321 0.1553324,0.422002 0.3150138,0.740741 0.3916509,0.781771 1.0317989,1.617098 1.6896223,2.20478 0.120186,0.107371 0.218537,0.200618 0.218559,0.207216 6.1e-5,0.01918 -0.420029,0.193206 -0.6698262,0.277486 -0.6477892,0.218561 -1.2558447,0.315184 -1.9474198,0.309455 -0.2064198,-0.0017 -0.4108642,-0.0062 -0.454321,-0.0099 z"
     id="path8" />
  <path
     style="fill:#deddda;fill-opacity:1;stroke:#1d671d;stroke-width:0"
     d="M 4.4124134,12.792824 C 3.4629886,12.084761 2.7241104,11.071573 2.3399862,9.9510052 2.2370873,9.6508286 2.1065538,9.143201 2.1281827,9.1273294 2.3272765,8.9812312 2.7979307,8.7047394 3.1330705,8.5369953 3.9570897,8.1245574 4.9303992,7.8381424 5.6599818,7.7934031 5.7682264,7.7867653 5.890386,7.7770538 5.9314477,7.7718219 l 0.074658,-0.00951 -0.012887,0.1257822 C 5.9558339,8.252988 6.0968922,8.7716893 6.3255633,9.1101937 6.4143761,9.2416643 6.4147319,9.242863 6.3753894,9.2780949 6.3535957,9.2976119 6.2648514,9.3980247 6.17818,9.5012346 5.4839508,10.327935 4.9563593,11.444535 4.6814921,12.668839 c -0.031367,0.139714 -0.060653,0.257647 -0.065079,0.262073 -0.00443,0.0044 -0.096226,-0.05771 -0.2039997,-0.138088 z"
     id="path9" />
  <path
     style="fill:#deddda;fill-opacity:1;stroke:#1d671d;stroke-width:0"
     d="M 2.0346749,7.4835949 C 2.0348881,7.3515054 2.1166472,6.8579184 2.1835857,6.5846068 2.3918025,5.7344527 2.7853326,4.9343704 3.3288981,4.2560829 3.4972159,4.0460478 3.8922246,3.6289845 4.0147317,3.5319572 l 0.074218,-0.058782 0.2518215,0.1331825 C 5.4913746,4.2148852 6.4460755,5.0369675 7.0542127,5.9428725 L 7.1915621,6.1474734 7.040254,6.2337 C 6.8398121,6.3479265 6.6917223,6.4607589 6.5511998,6.6063194 6.4190779,6.7431779 6.2197037,7.0350323 6.1707275,7.1632751 6.1467933,7.2259461 6.1286552,7.2476525 6.1057952,7.2409829 6.0416753,7.2222754 5.7716415,7.171666 5.5506173,7.1369325 5.2222923,7.0853367 4.1562441,7.0854931 3.7728395,7.1371931 3.4582778,7.1796101 3.070536,7.2523925 2.7950617,7.3207303 c -0.1675045,0.041553 -0.6331214,0.180298 -0.7306053,0.217706 -0.023036,0.00884 -0.029864,-0.00373 -0.029781,-0.054841 z"
     id="path10" />
  <path
     style="fill:#deddda;fill-opacity:1;stroke:#1d671d;stroke-width:0"
     d="M 7.7698346,8.9596087 C 7.336847,8.8545817 7.0123457,8.4434941 7.0123457,8 7.0123457,7.4668757 7.4668757,7.0123457 8,7.0123457 c 0.5331243,0 0.9876543,0.45453 0.9876543,0.9876543 0,0.5410436 -0.4610479,0.994066 -1.0034414,0.9859743 C 7.9222785,8.9850505 7.8258083,8.973186 7.7698346,8.9596087 Z"
     id="path11" />
  <path
     style="fill:#deddda;fill-opacity:1;stroke:#1d671d;stroke-width:0"
     d="M 7.6444444,15.978965 C 5.9556976,15.90661 4.3334068,15.292263 2.982716,14.213609 2.6633051,13.95853 2.0369073,13.332391 1.7858962,13.017284 0.78235149,11.757485 0.18378732,10.273991 0.04046029,8.691358 0.01396035,8.3987429 0.01396035,7.6012571 0.04046029,7.308642 0.18386833,5.7251149 0.78311176,4.2399488 1.78591,2.982716 2.0391431,2.6652316 2.6657124,2.0387253 2.982716,1.7860305 4.2448358,0.7799503 5.723219,0.18442376 7.3185185,0.03947018 7.6666501,0.00783794 8.4317906,0.01289538 8.7802469,0.04913195 10.349615,0.21233323 11.779046,0.79826254 13.017284,1.78591 c 0.317484,0.2532331 0.943991,0.8798024 1.196685,1.196806 1.012236,1.2698418 1.611471,2.7649644 1.747441,4.3599556 0.03124,0.3664178 0.01408,1.3124207 -0.02948,1.6252296 -0.219308,1.5750128 -0.788619,2.9026888 -1.757488,4.0985928 -0.221627,0.27356 -0.824846,0.877926 -1.097901,1.099987 -0.937915,0.762758 -2.020911,1.306104 -3.1615856,1.58619 -0.5161633,0.126741 -1.0184754,0.201971 -1.4590953,0.218525 -0.1475142,0.0055 -0.3170967,0.0127 -0.3768498,0.0159 -0.059753,0.0032 -0.2553086,-4.55e-4 -0.4345679,-0.0081 z M 8.8098765,14.962442 C 11.618104,14.636402 13.938121,12.671144 14.736032,9.9424701 14.918436,9.318689 15.000135,8.7221347 15.000704,8.0098765 15.00138,7.1647905 14.897024,6.5162837 14.635629,5.741152 13.960327,3.7386353 12.386511,2.1324166 10.390123,1.4082374 9.6195725,1.128724 8.8702368,0.99998329 8.0098765,0.99929568 7.4914189,0.99888132 7.2483427,1.0183495 6.7828344,1.0975704 4.9186202,1.4148255 3.2232865,2.5234611 2.1631783,4.1185185 1.5422234,5.0528182 1.1728553,6.064176 1.0341523,7.2098765 c -0.0477964,0.3948032 -0.0477964,1.1854438 0,1.580247 0.2277117,1.8809215 1.1348111,3.5195825 2.5982202,4.6936455 1.1102835,0.890757 2.4927985,1.419771 3.9626892,1.516306 0.2313705,0.01519 0.9521069,-0.0071 1.2148148,-0.03763 z"
     id="path12" />
  <path
     style="fill:#ff8800;stroke:#ff8800;stroke-width:0;fill-opacity:1"
     d="M 10.014472,7.9858949 C 10.013843,7.5950428 9.8801492,7.1654969 9.6591556,6.8442937 L 9.5964572,6.7531648 9.7169545,6.6111502 C 9.9183391,6.3738046 10.195315,6.0000638 10.329642,5.7844122 10.761146,5.091666 11.109715,4.2251043 11.316343,3.3314221 c 0.03227,-0.1395697 0.06152,-0.2565502 0.06499,-0.2599567 0.0035,-0.00341 0.128052,0.090344 0.276837,0.2083345 0.532458,0.4222537 0.95998,0.8841728 1.32126,1.4275644 0.372545,0.5603345 0.634073,1.1538474 0.819837,1.8605369 l 0.0675,0.2567902 -0.04867,0.039638 c -0.08101,0.065976 -0.419838,0.2722368 -0.694455,0.4227457 -0.938935,0.5146014 -1.984523,0.8360375 -2.926116,0.899551 l -0.182716,0.012325 z"
     id="path13" />
  <path
     style="fill:#ff8800;fill-opacity:1;stroke:#ff8800;stroke-width:0"
     d="M 9.0132399,6.2533811 C 8.6994283,6.0732875 8.3452259,5.9855565 7.9308642,5.985292 L 7.7333333,5.9851658 7.6774835,5.8222125 C 7.5262137,5.3808516 7.3203285,4.9458722 7.0577251,4.5128316 6.7106806,3.940545 6.3866079,3.5371169 5.8261027,2.9796225 L 5.4357269,2.5913438 5.7351474,2.4721068 c 1.2272755,-0.4887329 2.4744633,-0.5779854 3.7160968,-0.265935 0.3748718,0.094214 0.4823631,0.1360998 0.5055104,0.196982 0.043433,0.114239 0.0084,1.2722534 -0.050755,1.6777323 C 9.791967,4.8625088 9.565858,5.6252251 9.2818536,6.186271 l -0.086792,0.171456 z"
     id="path14" />
  <path
     style="fill:#ff8800;fill-opacity:1;stroke:#ff8800;stroke-width:0"
     d="m 2.054321,7.4304845 c 0,-0.1396296 0.085883,-0.6231069 0.1661828,-0.9355239 C 2.4231648,5.706481 2.8228727,4.9088778 3.3322332,4.2765432 3.52159,4.0414703 3.9837798,3.5564448 4.0544891,3.5186023 c 0.046693,-0.024989 0.067168,-0.017375 0.3133375,0.1165241 1.1671445,0.6348445 2.0516015,1.4007219 2.677501,2.3185267 0.067029,0.09829 0.1181397,0.1847455 0.1135797,0.1921241 -0.00456,0.00738 -0.059402,0.042019 -0.1218709,0.07698 C 6.674656,6.4255639 6.3658671,6.7495032 6.1743682,7.1277517 6.1260662,7.2231575 6.1160662,7.2320575 6.0701244,7.2205268 6.0421754,7.2135121 5.8894082,7.1850519 5.7306416,7.1572822 5.4747542,7.1125248 5.3735631,7.105838 4.8395062,7.0983943 4.0115951,7.0868547 3.6336499,7.122862 2.9298554,7.2803289 2.74058,7.3226773 2.1950994,7.4761154 2.0888889,7.516884 2.0587812,7.5284405 2.054321,7.5172926 2.054321,7.4304845 Z"
     id="path15" />
  <path
     style="fill:#ff8800;fill-opacity:1;stroke:#ff8800;stroke-width:0"
     d="M 4.4246914,12.786381 C 3.3268171,11.958976 2.551563,10.794821 2.2094511,9.4598803 2.1649194,9.2861151 2.1317976,9.1412658 2.1358471,9.1379928 2.2676036,9.0315026 2.7949217,8.7247334 3.1604938,8.5419009 3.9772755,8.1334061 4.8475913,7.8751029 5.6493827,7.8032174 5.774321,7.7920159 5.8999789,7.7828207 5.9286226,7.7827835 l 0.052079,-6.75e-5 0.0095,0.271605 c 0.013535,0.3871439 0.1108259,0.716907 0.3023828,1.0249091 0.048217,0.077527 0.087667,0.1465658 0.087667,0.1534192 0,0.00685 -0.082207,0.1106728 -0.1826829,0.2307097 -0.7017281,0.838346 -1.2047194,1.874562 -1.4973912,3.084789 -0.046635,0.19284 -0.094363,0.350452 -0.106062,0.350251 -0.011699,-2.02e-4 -0.087938,-0.05061 -0.1694194,-0.112018 z"
     id="path16" />
  <path
     style="fill:#ff8800;fill-opacity:1;stroke:#ff8800;stroke-width:0"
     d="M 7.7194607,8.9308362 C 7.4059544,8.8276059 7.1629377,8.5816988 7.069092,8.2727323 7.0151182,8.0950352 7.0240058,7.8293719 7.0895988,7.6597577 7.1837621,7.4162647 7.412526,7.1869214 7.6597577,7.0881545 7.7546047,7.050264 7.8094699,7.0429794 8,7.0429794 c 0.1905301,0 0.2453953,0.00728 0.3402423,0.045175 0.2462712,0.098383 0.47322,0.325332 0.5716032,0.5716032 0.03789,0.094847 0.045175,0.1497122 0.045175,0.3402423 0,0.1905301 -0.00728,0.2453953 -0.045175,0.3402423 -0.098713,0.2470962 -0.3277259,0.475612 -0.5716032,0.5703619 -0.1595526,0.061989 -0.46385,0.071906 -0.6207816,0.020232 z"
     id="path17" />
  <path
     style="fill:#ff8800;fill-opacity:1;stroke:#ff8800;stroke-width:0"
     d="M 7.2847704,13.93521 C 7.0008325,13.89649 6.6217469,13.816918 6.3251829,13.733789 6.0899331,13.667846 6.061252,13.655045 6.0486397,13.610355 c -0.026357,-0.09339 -0.00818,-1.200965 0.02432,-1.48196 0.08815,-0.762127 0.2390767,-1.369196 0.4883564,-1.964308 0.081047,-0.1934858 0.2230606,-0.4972564 0.2431873,-0.5201842 0.00265,-0.00301 0.069725,0.034543 0.1490649,0.083459 0.2990091,0.1843514 0.6033038,0.2685998 1.0196332,0.2823002 l 0.2991273,0.0098 0.093074,0.259383 c 0.3702504,1.031839 1.128078,2.14096 1.9918162,2.91513 0.114509,0.102636 0.204302,0.192919 0.199537,0.20063 -0.0048,0.0077 -0.104208,0.05414 -0.220982,0.103178 -0.5604281,0.235346 -1.0661156,0.36915 -1.6541709,0.43769 -0.3194855,0.03724 -1.1228106,0.03706 -1.3968322,-3.06e-4 z"
     id="path18" />
  <path
     style="fill:#ff8800;fill-opacity:1;stroke:#ff8800;stroke-width:0"
     d="M 11.674074,12.373164 C 10.51946,11.759765 9.5939054,10.965425 8.9518019,10.036826 L 8.8270607,9.856427 8.8892399,9.8220407 C 9.3036495,9.592864 9.6282505,9.2639957 9.8249061,8.8740741 c 0.032874,-0.065182 0.06502,-0.1036815 0.086538,-0.103644 0.018829,3.29e-5 0.1231239,0.017196 0.2317659,0.038141 0.34858,0.067202 0.66805,0.090029 1.244444,0.088918 0.601662,-0.00116 0.808132,-0.020688 1.37284,-0.1298514 0.370604,-0.071641 0.687411,-0.1502452 0.977108,-0.2424335 0.119137,-0.037912 0.218091,-0.067149 0.219896,-0.064969 0.0091,0.011004 -0.05319,0.4735242 -0.08902,0.6607959 -0.179432,0.9378589 -0.609982,1.8658309 -1.216623,2.6222049 -0.21656,0.270011 -0.681454,0.740795 -0.731153,0.740415 -0.02157,-1.65e-4 -0.132551,-0.04988 -0.246625,-0.110487 z"
     id="path19" />
  <path
     style="fill:#ff8800;fill-opacity:1;stroke:#ff8800;stroke-width:0"
     d="M 7.4507226,15.960029 C 6.0441774,15.849339 4.7768565,15.416443 3.6049383,14.646374 3.0777393,14.299951 2.6185041,13.905574 2.1190325,13.370323 0.99745736,12.168406 0.26665971,10.562683 0.07044944,8.8691358 0.02788525,8.5017521 0.02788525,7.4982479 0.07044944,7.1308642 0.23795858,5.6850449 0.78368764,4.3266783 1.6649888,3.1619186 1.8715768,2.8888843 2.0574584,2.682064 2.4174447,2.3247018 3.0495832,1.6971714 3.6408676,1.2734458 4.4444444,0.87211514 5.705469,0.2423212 6.9694663,-0.02524436 8.3817389,0.03866039 c 1.6157523,0.07311213 3.1739401,0.6448845 4.4832991,1.64513321 0.437111,0.3339182 1.106674,1.0029033 1.442144,1.440898 0.902351,1.1781218 1.457603,2.5570184 1.624769,4.0348999 0.04831,0.4271301 0.03137,1.5632484 -0.02885,1.9342145 -0.207896,1.280728 -0.600002,2.311508 -1.255787,3.301256 -0.364699,0.550422 -0.720957,0.96675 -1.25472,1.466279 -1.219348,1.141143 -2.84397,1.882001 -4.5349132,2.068006 -0.3426279,0.03769 -1.1062973,0.05434 -1.4069572,0.03068 z m 1.0628576,-0.967832 c 0.4002318,-0.02431 0.7415281,-0.07683 1.1557768,-0.177849 1.004422,-0.244947 1.899698,-0.683239 2.712913,-1.328138 0.302806,-0.240133 0.840128,-0.774738 1.076838,-1.071395 0.833694,-1.044824 1.350486,-2.267551 1.506951,-3.5654323 0.04265,-0.3538092 0.04793,-1.2940804 0.0092,-1.6395062 C 14.886582,6.4189067 14.635177,5.5683791 14.277828,4.850384 14.049305,4.3912304 13.664027,3.8179889 13.297912,3.392403 12.674098,2.6672565 11.7878,2.0056413 10.911203,1.6107416 10.011577,1.2054674 9.205501,1.0236889 8.1777778,0.99432597 7.0139451,0.96107421 5.9639141,1.1855069 4.9283951,1.688846 3.526926,2.3700642 2.3777952,3.515745 1.6989031,4.908642 1.464206,5.3901748 1.3363293,5.7378374 1.2048459,6.2518519 0.65856188,8.3874659 1.1425851,10.656389 2.5120555,12.37957 c 0.2521286,0.317249 0.7824492,0.848186 1.0928828,1.094153 1.1263812,0.89247 2.3356446,1.372556 3.8419753,1.52529 0.1542096,0.01564 0.7608221,0.01176 1.0666666,-0.0068 z"
     id="path20" />
  <path
     style="fill:#000000;stroke:#ff8800;stroke-width:0;fill-rule:nonzero"
     d="M 7.4668093,14.97123 C 6.3378696,14.878064 5.2498819,14.520526 4.3160494,13.935816 2.4891019,12.791891 1.3116613,10.934727 1.0536841,8.7901235 0.98176183,8.1922226 1.0132228,7.3195824 1.12846,6.7160494 1.6434405,4.0189363 3.6709363,1.8718894 6.3226159,1.215621 6.9048529,1.0715222 7.3634991,1.0179678 8.0098765,1.0186057 c 0.5496216,5.424e-4 0.8746663,0.03104 1.3530865,0.1269539 2.466794,0.494545 4.472905,2.268076 5.2732,4.6618478 0.144882,0.4333592 0.262435,0.9804391 0.320451,1.491358 0.03182,0.2801954 0.03182,1.1222738 0,1.4024692 -0.101665,0.8953041 -0.326489,1.6603304 -0.714013,2.4296294 -0.481258,0.955377 -1.128294,1.742197 -1.97362,2.4 -0.987434,0.768386 -2.196635,1.260855 -3.468981,1.412805 -0.3176237,0.03793 -1.02925,0.05264 -1.3331907,0.02756 z m 1.3930722,-1.02244 c 0.3373199,-0.0518 0.6668357,-0.126514 0.9421343,-0.213605 0.3318782,-0.104989 0.8251442,-0.307717 0.8251442,-0.339126 0,-0.0074 -0.07198,-0.0756 -0.159963,-0.151639 -0.08798,-0.07604 -0.26824,-0.249814 -0.400579,-0.386174 C 9.2666005,12.033922 8.6823166,11.116839 8.374673,10.202596 L 8.3015994,9.9854384 8.0075897,9.9828488 C 7.7616251,9.9806823 7.6825316,9.972078 7.5235777,9.930196 7.3130675,9.8747293 7.0984379,9.7819222 6.9268913,9.6721851 6.8648273,9.6324834 6.8068097,9.6 6.7979631,9.6 c -0.019222,0 -0.2333326,0.442545 -0.315377,0.651852 -0.2338124,0.596488 -0.3886776,1.283307 -0.458758,2.034568 -0.023328,0.250075 -0.029469,1.170288 -0.00873,1.308567 l 0.013084,0.08725 0.1315893,0.04225 c 0.356572,0.114478 0.8725203,0.219953 1.2673918,0.259091 0.3126329,0.03099 1.1343664,0.01104 1.432721,-0.03478 z M 4.7111206,12.641975 C 4.8810621,11.850503 5.2682888,10.890446 5.6897722,10.215588 5.852721,9.9546823 6.1400051,9.5714206 6.3102153,9.3878635 L 6.4428182,9.2448626 6.3515159,9.1075243 C 6.2258742,8.9185325 6.1291097,8.7016241 6.0699765,8.4764223 6.0293914,8.3218594 6.0195943,8.2359571 6.0174503,8.0158746 l -0.00264,-0.2705452 -0.079012,0.00817 C 5.8923457,7.7579951 5.7695206,7.7666289 5.6628581,7.772687 5.4199188,7.7864851 4.9808926,7.8601641 4.662208,7.9406197 3.8609734,8.1429003 3.1091103,8.4724134 2.3456482,8.9558801 l -0.2518827,0.159506 0.012223,0.069467 C 2.1678155,9.536224 2.35505,10.108919 2.541629,10.517346 c 0.4175988,0.914138 1.1218144,1.771728 1.928405,2.348401 0.1875314,0.134076 0.1584563,0.161063 0.2410866,-0.223772 z M 12.23416,12.261728 c 0.496793,-0.497297 0.834086,-0.963613 1.139442,-1.575308 0.301017,-0.603002 0.495298,-1.2319094 0.579699,-1.8765435 0.04674,-0.3570238 0.04812,-0.3988596 0.01276,-0.3888452 -0.01665,0.00472 -0.177357,0.053467 -0.357138,0.1083372 -1.226289,0.3742706 -2.519872,0.4553369 -3.583913,0.2245967 L 9.8607974,8.7183542 9.7686967,8.9002339 C 9.591006,9.2511362 9.2791463,9.5706019 8.9409142,9.748205 8.8582132,9.791631 8.7904535,9.83455 8.7903364,9.843582 c -4.077e-4,0.031434 0.2554246,0.39983 0.4275557,0.615677 0.2360652,0.296018 0.7308105,0.786314 1.0537129,1.044236 0.281182,0.224597 0.596746,0.445333 0.908642,0.635592 0.191629,0.116894 0.72783,0.402952 0.756729,0.403706 0.0088,2.29e-4 0.142526,-0.12625 0.297184,-0.281065 z M 8.2429,8.9779933 C 8.6951475,8.8601977 9.0074074,8.4607405 9.0074074,8 9.0074074,7.4462617 8.5537383,6.9925926 8,6.9925926 7.4462617,6.9925926 6.9925926,7.4462617 6.9925926,8 c 0,0.4563856 0.309885,0.8568403 0.7560397,0.9770066 0.1369647,0.03689 0.3547571,0.037325 0.4942677,9.867e-4 z M 10.528985,8.1869679 C 11.326182,8.0888535 12.100126,7.846995 12.901448,7.4455696 13.193992,7.2990187 13.531643,7.1045829 13.760982,6.9506094 L 13.90221,6.855791 13.863841,6.6822165 C 13.592324,5.4539447 12.895729,4.2837013 11.952432,3.471148 11.7282,3.2779957 11.391564,3.0222222 11.361578,3.0222222 c -0.01035,0 -0.02509,0.042222 -0.03275,0.093827 -0.0238,0.1602597 -0.165292,0.7016268 -0.255316,0.9768766 -0.313777,0.9593762 -0.775058,1.7944034 -1.3622412,2.4659743 l -0.1648397,0.1885302 0.077863,0.1077661 c 0.1185483,0.1640779 0.2470204,0.4441618 0.3037744,0.6622628 0.040514,0.1556916 0.051662,0.2480314 0.054078,0.4479371 l 0.00304,0.2518163 0.1487375,3.56e-5 c 0.08181,1.96e-5 0.259584,-0.013607 0.395062,-0.03028 z M 2.637037,7.3850121 C 3.3421029,7.1926489 3.9547747,7.1110234 4.691358,7.1113177 c 0.4793359,1.916e-4 0.8272755,0.031584 1.2108403,0.1092472 0.1354635,0.027428 0.2473302,0.047355 0.2485926,0.044282 C 6.2637343,6.989919 6.4834137,6.6847694 6.7030272,6.4977529 6.8315899,6.3882726 7.1038882,6.2115712 7.2,6.1752543 7.2616535,6.1519579 6.858045,5.5949349 6.48782,5.1923698 5.9069304,4.5607376 5.0606382,3.9352541 4.243772,3.5338232 L 4.0727293,3.4497681 3.9528737,3.5536008 C 3.7881815,3.696276 3.5023966,4.0009801 3.3163465,4.2322667 2.7353854,4.9544826 2.3219248,5.8235496 2.1249111,6.7365857 2.0724907,6.9795218 2.0148148,7.3810272 2.0148148,7.5030112 v 0.073827 L 2.217284,7.5105661 C 2.328642,7.4741163 2.5175309,7.417617 2.637037,7.3850121 Z M 9.3390485,6.1481481 C 9.6752737,5.4478991 9.8705264,4.7293213 9.9683678,3.8320988 10.003074,3.5138353 10.016979,2.5300633 9.9887759,2.3881975 9.9749543,2.3186723 9.9709185,2.3159968 9.8021393,2.2644613 9.1338811,2.0604137 8.5246457,1.9801582 7.804468,2.0013048 7.1222775,2.021336 6.5167336,2.1368089 5.911758,2.3622309 5.7168409,2.4348597 5.4150821,2.5643992 5.3876136,2.5872366 c -0.00817,0.00679 0.084279,0.100777 0.2054442,0.2088534 0.2420916,0.2159408 0.6097187,0.6060741 0.8459474,0.8977372 0.5494746,0.6784156 0.9608702,1.4041195 1.1928269,2.1041527 l 0.072146,0.2177327 0.2912207,0.00188 c 0.2455471,0.00158 0.3212891,0.00982 0.4829405,0.052513 0.2015887,0.05324 0.4587304,0.1660656 0.6082803,0.2668934 0.048889,0.032961 0.098522,0.060621 0.1102955,0.061466 0.011773,8.448e-4 0.075824,-0.1117973 0.1423332,-0.2503159 z"
     id="path21" />
</svg>
