<?xml version="1.0" encoding="UTF-8" standalone="no"?>
<svg
   width="16"
   height="16"
   fill="currentColor"
   class="bi bi-lightning-charge"
   viewBox="0 0 16 16"
   version="1.1"
   id="svg1"
   sodipodi:docname="active_volt.svg"
   inkscape:version="1.4.2 (ebf0e940d0, 2025-05-08)"
   xmlns:inkscape="http://www.inkscape.org/namespaces/inkscape"
   xmlns:sodipodi="http://sodipodi.sourceforge.net/DTD/sodipodi-0.dtd"
   xmlns="http://www.w3.org/2000/svg"
   xmlns:svg="http://www.w3.org/2000/svg">
  <defs
     id="defs1" />
  <sodipodi:namedview
     id="namedview1"
     pagecolor="#ffffff"
     bordercolor="#000000"
     borderopacity="0.25"
     inkscape:showpageshadow="2"
     inkscape:pageopacity="0.0"
     inkscape:pagecheckerboard="0"
     inkscape:deskcolor="#d1d1d1"
     inkscape:zoom="50.625"
     inkscape:cx="8"
     inkscape:cy="8"
     inkscape:window-width="1920"
     inkscape:window-height="1012"
     inkscape:window-x="0"
     inkscape:window-y="0"
     inkscape:window-maximized="1"
     inkscape:current-layer="svg1" />
  <path
     d="M11.251.068a.5.5 0 0 1 .227.58L9.677 6.5H13a.5.5 0 0 1 .364.843l-8 8.5a.5.5 0 0 1-.842-.49L6.323 9.5H3a.5.5 0 0 1-.364-.843l8-8.5a.5.5 0 0 1 .615-.09zM4.157 8.5H7a.5.5 0 0 1 .478.647L6.11 13.59l5.732-6.09H9a.5.5 0 0 1-.478-.647L9.89 2.41z"
     id="path1" />
  <path
     style="fill:#deddda;stroke:#1d671d;stroke-width:0"
     d="M 4.9185185,15.980391 C 4.8116909,15.960361 4.6915388,15.890154 4.6234542,15.807981 4.5461938,15.714732 4.4950971,15.548698 4.5133434,15.450186 4.5242507,15.391298 6.2989361,9.6014374 6.3344322,9.5089361 6.3433758,9.4856292 6.082786,9.4814118 4.6095208,9.48102 L 2.8740741,9.4805586 2.7760872,9.4266991 C 2.5339015,9.2935791 2.4452051,9.0147561 2.5704809,8.7803629 2.5987707,8.7274321 4.2166883,6.9939704 6.6607002,4.3980393 9.9159265,0.94046884 10.72173,0.09475852 10.794474,0.05954378 c 0.190843,-0.09238536 0.443351,-0.03495384 0.581984,0.13236879 0.07734,0.0933443 0.128452,0.25934934 0.110199,0.35790122 -0.01091,0.0588881 -1.7855931,5.84874881 -1.8210892,5.94125011 -0.00894,0.023308 0.2504352,0.027455 1.7175612,0.027455 1.878365,0 1.791872,-0.00493 1.928454,0.1099927 0.03412,0.028708 0.08626,0.093481 0.115876,0.1439411 0.07419,0.126419 0.0761,0.3077158 0.0046,0.4425132 -0.03233,0.060998 -1.444951,1.5754868 -4.0919443,4.3870391 -3.2103266,3.409909 -4.0602317,4.302126 -4.1283951,4.333928 -0.101951,0.04757 -0.1985547,0.06221 -0.2932411,0.04446 z M 8.9944946,10.543982 C 10.566041,8.8740367 11.851852,7.5029256 11.851852,7.4970686 c 0,-0.00586 -0.664445,-0.010844 -1.476543,-0.011083 C 8.9325719,7.4855621 8.8967303,7.4846309 8.8098765,7.4453154 8.7609877,7.423185 8.6954189,7.3811581 8.6641683,7.351922 8.5829481,7.2759376 8.5140032,7.1188889 8.5137732,7.0093393 8.5136361,6.9441029 8.7142756,6.2656595 9.205391,4.6706975 9.585887,3.4349869 9.8917886,2.418562 9.8851723,2.4119755 c -0.00662,-0.00659 -0.02682,0.00617 -0.044897,0.028351 -0.018077,0.02218 -1.3039787,1.3900672 -2.857559,3.0397495 -1.5535802,1.6496826 -2.8276543,3.0070912 -2.8312757,3.0164635 -0.00365,0.00946 0.6511827,0.017126 1.471605,0.017233 L 7.1012346,8.5139662 7.2,8.5606576 c 0.1732077,0.081884 0.2851382,0.2502501 0.285986,0.4301805 3.107e-4,0.065964 -0.1956174,0.7285946 -0.6909243,2.3367129 -0.3802469,1.234551 -0.691358,2.249415 -0.691358,2.255252 0,0.0058 0.00752,0.0076 0.016717,0.004 0.00919,-0.0036 1.3025276,-1.372903 2.8740741,-3.042849 z"
     id="path2" />
  <path
     style="fill:#ff8800;stroke:#ff8800;stroke-width:0"
     d="M 4.8511749,15.950236 C 4.6792186,15.884859 4.5546513,15.733433 4.5310242,15.561054 4.5205938,15.484957 4.5407597,15.397877 4.6610246,14.99969 4.8814382,14.269918 5.8210633,11.202836 6.0960231,10.315632 6.2316162,9.8781179 6.3380757,9.5129029 6.3325999,9.5040429 6.327124,9.4951828 5.5431048,9.4823739 4.590335,9.4755789 L 2.8580263,9.4632241 2.7536394,9.3939153 C 2.5679406,9.2706181 2.47826,9.0269416 2.5530005,8.8487473 2.5893272,8.7621377 2.7979865,8.5344711 4.7700101,6.4297839 8.2291939,2.7378908 10.690056,0.14371268 10.792822,0.0806897 c 0.195036,-0.11960971 0.487752,-0.03222985 0.614065,0.1833074 0.09166,0.15639741 0.08774,0.22200452 -0.03803,0.63789003 C 11.097158,1.8002792 10.145109,4.9072067 9.8641063,5.8125051 9.7502665,6.1792595 9.662574,6.4881483 9.6692344,6.4989248 c 0.00775,0.012546 0.4148946,0.02029 1.1319316,0.021528 1.655725,0.00286 2.348681,0.020627 2.426111,0.062204 0.127826,0.068637 0.243202,0.2579737 0.243784,0.400059 5.72e-4,0.1396974 -0.034,0.2133516 -0.171729,0.3658638 -0.407537,0.4512772 -1.716596,1.8509082 -4.0545986,4.3351314 -3.3643642,3.574773 -3.9623052,4.199661 -4.0654884,4.248705 -0.097603,0.04639 -0.2335026,0.05377 -0.3280701,0.01782 z m 2.0751321,-3.19468 c 2.4536472,-2.597387 4.925545,-5.2320696 4.925545,-5.2499127 0,-0.00745 -0.664445,-0.019988 -1.476543,-0.027867 C 8.9673841,7.464116 8.8946459,7.461644 8.8101227,7.4245875 8.7613691,7.4032128 8.7001926,7.3661588 8.674175,7.3422449 8.6071475,7.2806374 8.5337537,7.1149027 8.5335263,7.0246376 8.5332895,6.9306519 8.6689963,6.4622769 9.1952618,4.7407407 9.6114295,3.3793602 9.8962963,2.4351319 9.8962963,2.4170704 c 0,-0.040267 -0.09522,0.047529 -0.3778161,0.3483617 C 9.3398819,2.9555556 8.2824703,4.08 7.1686765,5.2641975 4.5801248,8.0163739 4.1481481,8.4788468 4.1481481,8.4979668 c 0,0.00859 0.6587558,0.015613 1.4639017,0.015613 h 1.4639018 l 0.1146272,0.061096 c 0.129914,0.069243 0.1751158,0.1126198 0.2345013,0.2250315 0.0883,0.1671446 0.1329683,-0.00247 -0.8094607,3.0736967 -0.2815536,0.919014 -0.5119157,1.681236 -0.5119157,1.693827 0,0.01259 0.0077,0.02289 0.01711,0.02289 0.00941,0 0.3718825,-0.375555 0.805493,-0.834567 z"
     id="path3" />
</svg>
