<?xml version="1.0" encoding="UTF-8" standalone="no"?>
<svg
   width="16"
   height="16"
   fill="currentColor"
   class="bi bi-fan"
   viewBox="0 0 16 16"
   version="1.1"
   id="svg2"
   sodipodi:docname="inactive_fan.svg"
   inkscape:version="1.4.2 (ebf0e940d0, 2025-05-08)"
   xmlns:inkscape="http://www.inkscape.org/namespaces/inkscape"
   xmlns:sodipodi="http://sodipodi.sourceforge.net/DTD/sodipodi-0.dtd"
   xmlns="http://www.w3.org/2000/svg"
   xmlns:svg="http://www.w3.org/2000/svg">
  <defs
     id="defs2" />
  <sodipodi:namedview
     id="namedview2"
     pagecolor="#ffffff"
     bordercolor="#000000"
     borderopacity="0.25"
     inkscape:showpageshadow="2"
     inkscape:pageopacity="0.0"
     inkscape:pagecheckerboard="0"
     inkscape:deskcolor="#d1d1d1"
     inkscape:zoom="50.625"
     inkscape:cx="8"
     inkscape:cy="8"
     inkscape:window-width="1920"
     inkscape:window-height="1012"
     inkscape:window-x="0"
     inkscape:window-y="0"
     inkscape:window-maximized="1"
     inkscape:current-layer="svg2" />
  <path
     d="M10 3c0 1.313-.304 2.508-.8 3.4a2 2 0 0 0-1.484-.38c-.28-.982-.91-2.04-1.838-2.969a8 8 0 0 0-.491-.454A6 6 0 0 1 8 2c.691 0 1.355.117 1.973.332Q10 2.661 10 3m0 5q0 .11-.012.217c1.018-.019 2.2-.353 3.331-1.006a8 8 0 0 0 .57-.361 6 6 0 0 0-2.53-3.823 9 9 0 0 1-.145.64c-.34 1.269-.944 2.346-1.656 3.079.277.343.442.78.442 1.254m-.137.728a2 2 0 0 1-1.07 1.109c.525.87 1.405 1.725 2.535 2.377q.3.174.605.317a6 6 0 0 0 2.053-4.111q-.311.11-.641.199c-1.264.339-2.493.356-3.482.11ZM8 10c-.45 0-.866-.149-1.2-.4-.494.89-.796 2.082-.796 3.391q0 .346.027.678A6 6 0 0 0 8 14c.94 0 1.83-.216 2.623-.602a8 8 0 0 1-.497-.458c-.925-.926-1.555-1.981-1.836-2.96Q8.149 10 8 10M6 8q0-.12.014-.239c-1.02.017-2.205.351-3.34 1.007a8 8 0 0 0-.568.359 6 6 0 0 0 2.525 3.839 8 8 0 0 1 .148-.653c.34-1.267.94-2.342 1.65-3.075A2 2 0 0 1 6 8m-3.347-.632c1.267-.34 2.498-.355 3.488-.107.196-.494.583-.89 1.07-1.1-.524-.874-1.406-1.733-2.541-2.388a8 8 0 0 0-.594-.312 6 6 0 0 0-2.06 4.106q.309-.11.637-.199M8 9a1 1 0 1 0 0-2 1 1 0 0 0 0 2"
     id="path1" />
  <path
     d="M8 15A7 7 0 1 1 8 1a7 7 0 0 1 0 14m0 1A8 8 0 1 0 8 0a8 8 0 0 0 0 16"
     id="path2" />
  <path
     style="fill:none;stroke:#1d671d;stroke-width:0"
     d="M 2.0346749,7.4835949 C 2.0348881,7.3515054 2.1166472,6.8579184 2.1835857,6.5846068 2.3918025,5.7344527 2.7853326,4.9343704 3.3288981,4.2560829 3.4972159,4.0460478 3.8922246,3.6289845 4.0147317,3.5319572 l 0.074218,-0.058782 0.2518215,0.1331825 C 5.4913746,4.2148852 6.4460755,5.0369675 7.0542127,5.9428725 L 7.1915621,6.1474734 7.040254,6.2337 C 6.8398121,6.3479265 6.6917223,6.4607589 6.5511998,6.6063194 6.4190779,6.7431779 6.2197037,7.0350323 6.1707275,7.1632751 6.1467933,7.2259461 6.1286552,7.2476525 6.1057952,7.2409829 6.0416753,7.2222754 5.7716415,7.171666 5.5506173,7.1369325 5.2222923,7.0853367 4.1562441,7.0854931 3.7728395,7.1371931 3.4582778,7.1796101 3.070536,7.2523925 2.7950617,7.3207303 c -0.1675045,0.041553 -0.6331214,0.180298 -0.7306053,0.217706 -0.023036,0.00884 -0.029864,-0.00373 -0.029781,-0.054841 z"
     id="path3" />
  <path
     style="fill:none;stroke:#1d671d;stroke-width:0"
     d="M 2.0346749,7.4835949 C 2.0348881,7.3515054 2.1166472,6.8579184 2.1835857,6.5846068 2.3918025,5.7344527 2.7853326,4.9343704 3.3288981,4.2560829 3.4972159,4.0460478 3.8922246,3.6289845 4.0147317,3.5319572 l 0.074218,-0.058782 0.2518215,0.1331825 C 5.4913746,4.2148852 6.4460755,5.0369675 7.0542127,5.9428725 L 7.1915621,6.1474734 7.040254,6.2337 C 6.8398121,6.3479265 6.6917223,6.4607589 6.5511998,6.6063194 6.4190779,6.7431779 6.2197037,7.0350323 6.1707275,7.1632751 6.1467933,7.2259461 6.1286552,7.2476525 6.1057952,7.2409829 6.0416753,7.2222754 5.7716415,7.171666 5.5506173,7.1369325 5.2222923,7.0853367 4.1562441,7.0854931 3.7728395,7.1371931 3.4582778,7.1796101 3.070536,7.2523925 2.7950617,7.3207303 c -0.1675045,0.041553 -0.6331214,0.180298 -0.7306053,0.217706 -0.023036,0.00884 -0.029864,-0.00373 -0.029781,-0.054841 z"
     id="path4" />
  <path
     style="fill:#6f6f6d;stroke:#1d671d;stroke-width:0;fill-opacity:1"
     d="M 9.0392225,6.2803729 C 8.7313209,6.0904126 8.3987386,6.0002598 7.9950985,5.9973428 L 7.7235305,5.9953803 7.6611716,5.8075666 C 7.4706424,5.2337284 7.1425696,4.6082256 6.7313217,4.034718 6.430781,3.6155976 6.0920479,3.2369286 5.6140719,2.785747 L 5.4108598,2.5939266 5.6320841,2.4994792 C 6.9481367,1.9376159 8.3823117,1.859794 9.7535311,2.2758394 9.9319571,2.3299761 9.9580527,2.3435667 9.9697685,2.3884561 9.9977369,2.4956169 9.9828845,3.5193162 9.9489152,3.825777 9.8566686,4.6579953 9.6687455,5.3765948 9.3738704,6.0246914 9.3170252,6.1496296 9.2533335,6.2797754 9.2323332,6.313904 l -0.038182,0.062052 z"
     id="path5" />
  <path
     style="fill:#6f6f6d;fill-opacity:1;stroke:#1d671d;stroke-width:0"
     d="M 10.008989,8.0839506 C 10.040085,7.7370469 9.9038136,7.2402603 9.6872767,6.9111299 L 9.5810898,6.7497284 9.6349893,6.6859488 C 9.6646341,6.6508701 9.7628818,6.5344034 9.8533177,6.427134 10.50809,5.6504838 11.039935,4.5152476 11.30706,3.3240846 l 0.06298,-0.2808537 0.190056,0.1425821 c 0.836341,0.6274346 1.48843,1.4378616 1.90418,2.3665483 0.131848,0.2945175 0.302967,0.8007079 0.365545,1.081324 l 0.0455,0.2040559 -0.04877,0.038129 c -0.02683,0.020971 -0.146766,0.099009 -0.266533,0.1734181 -0.97838,0.6078491 -2.006678,0.9864587 -3.037575,1.1184063 -0.128211,0.01641 -0.298479,0.029837 -0.378374,0.029837 H 9.998808 Z"
     id="path6" />
  <path
     style="fill:#6f6f6d;fill-opacity:1;stroke:#1d671d;stroke-width:0"
     d="M 11.682961,12.39254 C 10.575285,11.823254 9.5603213,10.957163 8.9574742,10.066823 L 8.8112784,9.850908 8.9611662,9.7654908 C 9.1602234,9.6520531 9.3085556,9.5389531 9.4488003,9.3936806 9.5807432,9.2570075 9.7802769,8.9650182 9.8291093,8.8371525 c 0.018176,-0.047594 0.042951,-0.086418 0.055056,-0.086276 0.012104,1.427e-4 0.1064522,0.017767 0.2096617,0.039166 0.539666,0.1118893 1.417346,0.1430045 2.014815,0.071429 0.575312,-0.068922 1.209213,-0.2054077 1.657131,-0.3567997 l 0.205279,-0.069382 -0.01331,0.1626022 c -0.01947,0.2377816 -0.08368,0.5963905 -0.159608,0.89145 -0.222126,0.863133 -0.633259,1.664263 -1.203887,2.345881 -0.222917,0.266274 -0.624784,0.668481 -0.667918,0.668481 -0.01489,0 -0.124402,-0.05002 -0.243364,-0.111164 z"
     id="path7" />
  <path
     style="fill:#6f6f6d;fill-opacity:1;stroke:#1d671d;stroke-width:0"
     d="M 7.5160494,13.971713 C 7.1409118,13.939282 6.6077257,13.835821 6.2505557,13.726153 l -0.2023945,-0.06214 -0.013852,-0.09126 c -0.025855,-0.170341 -0.013685,-1.048099 0.019021,-1.371876 0.060056,-0.59453 0.1792027,-1.161856 0.3488746,-1.661193 0.086651,-0.25501 0.2796655,-0.7083369 0.3563248,-0.8368891 l 0.047599,-0.079821 0.1376764,0.086915 C 7.2702071,9.91594 7.7089048,10.028294 8.1212672,10.01144 l 0.1590597,-0.0065 0.084094,0.237037 c 0.1214462,0.342321 0.1553324,0.422002 0.3150138,0.740741 0.3916509,0.781771 1.0317989,1.617098 1.6896223,2.20478 0.120186,0.107371 0.218537,0.200618 0.218559,0.207216 6.1e-5,0.01918 -0.420029,0.193206 -0.6698262,0.277486 -0.6477892,0.218561 -1.2558447,0.315184 -1.9474198,0.309455 -0.2064198,-0.0017 -0.4108642,-0.0062 -0.454321,-0.0099 z"
     id="path8" />
  <path
     style="fill:#6f6f6d;fill-opacity:1;stroke:#1d671d;stroke-width:0"
     d="M 4.4124134,12.792824 C 3.4629886,12.084761 2.7241104,11.071573 2.3399862,9.9510052 2.2370873,9.6508286 2.1065538,9.143201 2.1281827,9.1273294 2.3272765,8.9812312 2.7979307,8.7047394 3.1330705,8.5369953 3.9570897,8.1245574 4.9303992,7.8381424 5.6599818,7.7934031 5.7682264,7.7867653 5.890386,7.7770538 5.9314477,7.7718219 l 0.074658,-0.00951 -0.012887,0.1257822 C 5.9558339,8.252988 6.0968922,8.7716893 6.3255633,9.1101937 6.4143761,9.2416643 6.4147319,9.242863 6.3753894,9.2780949 6.3535957,9.2976119 6.2648514,9.3980247 6.17818,9.5012346 5.4839508,10.327935 4.9563593,11.444535 4.6814921,12.668839 c -0.031367,0.139714 -0.060653,0.257647 -0.065079,0.262073 -0.00443,0.0044 -0.096226,-0.05771 -0.2039997,-0.138088 z"
     id="path9" />
  <path
     style="fill:#6f6f6d;fill-opacity:1;stroke:#1d671d;stroke-width:0"
     d="M 2.0346749,7.4835949 C 2.0348881,7.3515054 2.1166472,6.8579184 2.1835857,6.5846068 2.3918025,5.7344527 2.7853326,4.9343704 3.3288981,4.2560829 3.4972159,4.0460478 3.8922246,3.6289845 4.0147317,3.5319572 l 0.074218,-0.058782 0.2518215,0.1331825 C 5.4913746,4.2148852 6.4460755,5.0369675 7.0542127,5.9428725 L 7.1915621,6.1474734 7.040254,6.2337 C 6.8398121,6.3479265 6.6917223,6.4607589 6.5511998,6.6063194 6.4190779,6.7431779 6.2197037,7.0350323 6.1707275,7.1632751 6.1467933,7.2259461 6.1286552,7.2476525 6.1057952,7.2409829 6.0416753,7.2222754 5.7716415,7.171666 5.5506173,7.1369325 5.2222923,7.0853367 4.1562441,7.0854931 3.7728395,7.1371931 3.4582778,7.1796101 3.070536,7.2523925 2.7950617,7.3207303 c -0.1675045,0.041553 -0.6331214,0.180298 -0.7306053,0.217706 -0.023036,0.00884 -0.029864,-0.00373 -0.029781,-0.054841 z"
     id="path10" />
  <path
     style="fill:#6f6f6d;fill-opacity:1;stroke:#1d671d;stroke-width:0"
     d="M 7.7698346,8.9596087 C 7.336847,8.8545817 7.0123457,8.4434941 7.0123457,8 7.0123457,7.4668757 7.4668757,7.0123457 8,7.0123457 c 0.5331243,0 0.9876543,0.45453 0.9876543,0.9876543 0,0.5410436 -0.4610479,0.994066 -1.0034414,0.9859743 C 7.9222785,8.9850505 7.8258083,8.973186 7.7698346,8.9596087 Z"
     id="path11" />
  <path
     style="fill:#6f6f6d;fill-opacity:1;stroke:#1d671d;stroke-width:0"
     d="M 7.6444444,15.978965 C 5.9556976,15.90661 4.3334068,15.292263 2.982716,14.213609 2.6633051,13.95853 2.0369073,13.332391 1.7858962,13.017284 0.78235149,11.757485 0.18378732,10.273991 0.04046029,8.691358 0.01396035,8.3987429 0.01396035,7.6012571 0.04046029,7.308642 0.18386833,5.7251149 0.78311176,4.2399488 1.78591,2.982716 2.0391431,2.6652316 2.6657124,2.0387253 2.982716,1.7860305 4.2448358,0.7799503 5.723219,0.18442376 7.3185185,0.03947018 7.6666501,0.00783794 8.4317906,0.01289538 8.7802469,0.04913195 10.349615,0.21233323 11.779046,0.79826254 13.017284,1.78591 c 0.317484,0.2532331 0.943991,0.8798024 1.196685,1.196806 1.012236,1.2698418 1.611471,2.7649644 1.747441,4.3599556 0.03124,0.3664178 0.01408,1.3124207 -0.02948,1.6252296 -0.219308,1.5750128 -0.788619,2.9026888 -1.757488,4.0985928 -0.221627,0.27356 -0.824846,0.877926 -1.097901,1.099987 -0.937915,0.762758 -2.020911,1.306104 -3.1615856,1.58619 -0.5161633,0.126741 -1.0184754,0.201971 -1.4590953,0.218525 -0.1475142,0.0055 -0.3170967,0.0127 -0.3768498,0.0159 -0.059753,0.0032 -0.2553086,-4.55e-4 -0.4345679,-0.0081 z M 8.8098765,14.962442 C 11.618104,14.636402 13.938121,12.671144 14.736032,9.9424701 14.918436,9.318689 15.000135,8.7221347 15.000704,8.0098765 15.00138,7.1647905 14.897024,6.5162837 14.635629,5.741152 13.960327,3.7386353 12.386511,2.1324166 10.390123,1.4082374 9.6195725,1.128724 8.8702368,0.99998329 8.0098765,0.99929568 7.4914189,0.99888132 7.2483427,1.0183495 6.7828344,1.0975704 4.9186202,1.4148255 3.2232865,2.5234611 2.1631783,4.1185185 1.5422234,5.0528182 1.1728553,6.064176 1.0341523,7.2098765 c -0.0477964,0.3948032 -0.0477964,1.1854438 0,1.580247 0.2277117,1.8809215 1.1348111,3.5195825 2.5982202,4.6936455 1.1102835,0.890757 2.4927985,1.419771 3.9626892,1.516306 0.2313705,0.01519 0.9521069,-0.0071 1.2148148,-0.03763 z"
     id="path12" />
  <path
     style="fill:#ffffff;stroke:#ff8800;stroke-width:0;fill-opacity:1"
     d="m 10.014815,7.9903212 c 0,-0.1150989 -0.01395,-0.2767959 -0.030995,-0.3593268 C 9.945118,7.4436267 9.8403907,7.1506173 9.8121237,7.1506173 c -0.011648,0 -0.015632,-0.00555 -0.00885,-0.012322 C 9.8178211,7.1237428 9.7594921,7.0048444 9.6655434,6.8575536 L 9.5983085,6.7521442 9.7127345,6.6138274 C 10.070955,6.1808146 10.23062,5.9585126 10.439129,5.6024658 c 0.219726,-0.375201 0.602532,-1.2291067 0.57267,-1.2774247 -0.0064,-0.010378 -0.0037,-0.018868 0.006,-0.018868 0.03155,0 0.261562,-0.7590615 0.267827,-0.883862 0.0018,-0.03526 0.0089,-0.064149 0.01584,-0.064198 0.0069,-4.87e-5 0.01859,-0.033422 0.0259,-0.074163 0.0073,-0.040741 0.02207,-0.107796 0.03282,-0.1490116 l 0.01954,-0.074938 0.171845,0.1329004 c 0.793685,0.6138123 1.370029,1.2994008 1.780189,2.1176201 0.23019,0.4592002 0.389382,0.906786 0.522795,1.4698973 0.01217,0.051356 0.0018,0.061738 -0.180101,0.1803405 -1.089287,0.7102339 -2.322077,1.1438922 -3.48684,1.2265643 l -0.172839,0.012268 z"
     id="path13" />
  <path
     style="fill:#ffffff;fill-opacity:1;stroke:#ff8800;stroke-width:0"
     d="M 10.010027,7.9039737 C 10.001926,7.6587081 9.9922088,7.589328 9.9460141,7.4469136 9.881801,7.2489495 9.7820996,7.0276095 9.6854474,6.8684482 9.6374547,6.7894163 9.6219961,6.7467783 9.6353165,6.7301766 10.136057,6.106081 10.211699,6.0028158 10.401404,5.6843222 10.615976,5.324078 10.887706,4.7497168 11.006679,4.4049383 c 0.135502,-0.392677 0.21631,-0.6554153 0.264275,-0.8592593 0.02812,-0.1195062 0.06466,-0.2731319 0.0812,-0.3413906 l 0.03007,-0.1241067 0.07185,0.053696 c 0.408803,0.3054997 0.92676,0.8005427 1.205891,1.1525426 0.535305,0.6750514 0.916131,1.450172 1.138971,2.3182273 l 0.05507,0.2145235 -0.04799,0.037691 c -0.110032,0.086415 -0.620534,0.3892391 -0.877621,0.5205958 -0.829323,0.4237355 -1.730586,0.6994076 -2.548148,0.7794098 -0.119506,0.011694 -0.249545,0.024638 -0.288976,0.028764 l -0.07169,0.0075 z"
     id="path14" />
  <path
     style="fill:#ffffff;fill-opacity:1;stroke:#ff8800;stroke-width:0"
     d="M 9.037037,6.269934 C 8.7473991,6.0883753 8.4463267,6.0066129 8.0072727,5.9902805 L 7.7281256,5.9798965 7.7041442,5.8985902 C 7.6550359,5.732095 7.4580446,5.2564608 7.3432278,5.0271605 6.9512207,4.2442837 6.4330246,3.5560453 5.722286,2.8743185 L 5.4297571,2.5937304 5.7321625,2.4737374 C 6.4129636,2.2035988 6.9660314,2.079118 7.6885624,2.0334041 c 0.5590323,-0.035369 1.1976821,0.028791 1.7830425,0.1791282 0.401571,0.103135 0.4493454,0.1215326 0.4804486,0.1850173 0.050133,0.1023265 0.018922,1.2443819 -0.045953,1.6814627 C 9.7884672,4.8715463 9.605267,5.504241 9.3184109,6.108642 9.2526682,6.2471605 9.1935755,6.3596198 9.1870937,6.3585515 9.180612,6.3574833 9.1130864,6.3176055 9.037037,6.269934 Z"
     id="path15" />
  <path
     style="fill:#ffffff;fill-opacity:1;stroke:#ff8800;stroke-width:0"
     d="m 2.054321,7.4283712 c 0,-0.1374475 0.086235,-0.6222236 0.1661518,-0.9340399 C 2.3167961,6.1185037 2.447635,5.7690005 2.6366135,5.382716 2.9021889,4.8398627 3.1896114,4.4148777 3.5784408,3.9901235 3.8227145,3.7232807 4.0598293,3.4962733 4.0941973,3.4963519 4.1263353,3.4964254 4.6573244,3.7913058 4.9145934,3.951952 5.5727903,4.3629494 6.2692602,4.963966 6.7055818,5.4974803 6.8916229,5.7249626 7.1730084,6.1229608 7.1612496,6.141987 7.1567096,6.149327 7.0880186,6.19396 7.0085979,6.241165 6.6410471,6.4596257 6.3630473,6.755073 6.1743682,7.1277519 c -0.044887,0.088661 -0.06033,0.1038534 -0.096614,0.095044 -0.1397569,-0.03393 -0.3960474,-0.07365 -0.4188265,-0.064908 -0.01471,0.00564 -0.029629,0.00161 -0.033153,-0.00896 -0.010437,-0.031312 -0.3434811,-0.047197 -0.9640468,-0.045982 -0.7206084,0.00141 -0.7317863,0.00185 -0.9868817,0.039009 -0.5007654,0.07294 -1.3619203,0.275861 -1.3798266,0.3251406 -0.00342,0.00941 -0.017147,0.012907 -0.030509,0.00778 -0.013362,-0.00513 -0.062794,0.00426 -0.1098493,0.020863 -0.047055,0.016602 -0.088882,0.030185 -0.092948,0.030185 -0.00407,0 -0.00739,-0.0439 -0.00739,-0.097555 z"
     id="path16" />
  <path
     style="fill:#ffffff;fill-opacity:1;stroke:#ff8800;stroke-width:0"
     d="M 7.7194607,8.9308362 C 7.4064721,8.8277764 7.1629301,8.5816737 7.0694852,8.274027 7.0149955,8.0946314 7.0234769,7.8262592 7.088898,7.6597577 7.1849942,7.4151859 7.4122234,7.1875056 7.6597577,7.0877648 7.755027,7.0493773 7.8086216,7.0421999 8,7.0421999 c 0.1913784,0 0.244973,0.00718 0.3402423,0.045565 0.2467802,0.099437 0.4725559,0.3252127 0.5719929,0.5719929 C 8.9506227,7.755027 8.9578001,7.8086216 8.9578001,8 c 0,0.1913784 -0.00718,0.244973 -0.045565,0.3402423 -0.099875,0.2478668 -0.3283706,0.4757111 -0.5719929,0.5703619 -0.1595526,0.061989 -0.46385,0.071906 -0.6207815,0.020232 z"
     id="path17" />
  <path
     style="fill:#ffffff;fill-opacity:1;stroke:#ff8800;stroke-width:0"
     d="M 4.4230017,12.78467 C 3.7014381,12.24019 3.0956744,11.522374 2.6920513,10.733534 2.453124,10.266575 2.3109752,9.8856049 2.1898278,9.3875361 L 2.13006,9.1418147 2.1745238,9.109179 C 2.2696598,9.0393507 2.6888383,8.7892056 2.9333333,8.6563588 3.5321964,8.3309656 4.3016599,8.0443172 4.9403544,7.9086829 c 0.0912,-0.019367 0.1687998,-0.042355 0.1724438,-0.051084 0.00364,-0.00873 0.014224,-0.011174 0.02351,-0.00543 0.00929,0.00574 0.1174165,-0.00242 0.2402882,-0.018129 0.1228717,-0.01571 0.3100698,-0.034741 0.4159957,-0.042291 l 0.1925926,-0.013726 -4.01e-5,0.2048182 c -4.23e-5,0.2151213 0.050079,0.5504971 0.08227,0.5504971 0.010377,0 0.014279,0.00742 0.00867,0.016494 -0.01418,0.022944 0.030293,0.161284 0.051848,0.161284 0.00968,0 0.01217,0.00879 0.00553,0.019542 -0.012999,0.021033 0.1191816,0.2956733 0.1984429,0.4123166 0.026587,0.039127 0.04834,0.078409 0.04834,0.087295 0,0.00889 -0.069012,0.097933 -0.1533598,0.1978838 -0.5480756,0.6494584 -0.9531269,1.3656374 -1.2646489,2.2360494 -0.1192257,0.333124 -0.2487988,0.791559 -0.2315954,0.819394 0.00684,0.01106 0.00442,0.02011 -0.00536,0.02011 -0.00979,0 -0.037948,0.08889 -0.062581,0.197531 -0.024874,0.109705 -0.054806,0.197301 -0.067322,0.197015 -0.012395,-2.83e-4 -0.089963,-0.05139 -0.1723735,-0.11358 z"
     id="path18" />
  <path
     style="fill:#ffffff;fill-opacity:1;stroke:#ff8800;stroke-width:0"
     d="m 7.4554246,13.963278 c -0.00407,-0.0066 -0.06765,-0.01815 -0.1412891,-0.02563 C 7.110369,13.916939 6.6245828,13.817462 6.328368,13.735783 6.0877428,13.669433 6.0620111,13.657997 6.0489518,13.611598 c -0.027807,-0.0988 -0.00957,-1.184883 0.025096,-1.494464 0.092749,-0.828313 0.2939914,-1.5668 0.6048581,-2.2196112 0.064347,-0.1351279 0.1202801,-0.2489719 0.1242949,-0.2529866 0.00401,-0.00401 0.059381,0.026053 0.1230371,0.066817 0.2976759,0.1906263 0.6269077,0.2843029 1.0482742,0.2982658 l 0.3004377,0.01 0.032014,0.09638 c 0.017608,0.05301 0.040713,0.09638 0.051345,0.09638 0.010632,0 0.014074,0.0085 0.00765,0.0189 -0.03413,0.05522 0.3125468,0.806471 0.566134,1.226813 0.363595,0.602689 0.8995275,1.257292 1.4003682,1.710448 0.129263,0.116956 0.22759,0.220082 0.218503,0.229169 -0.02797,0.02797 -0.367804,0.168987 -0.6010867,0.249422 -0.3769083,0.129958 -0.6981053,0.208661 -1.1101624,0.272023 -0.2001918,0.03078 -1.3695682,0.06808 -1.3842882,0.04415 z"
     id="path19" />
  <path
     style="fill:#ffffff;fill-opacity:1;stroke:#ff8800;stroke-width:0"
     d="M 11.654321,12.363354 C 10.524913,11.767032 9.5990003,10.96774 8.9400313,10.020251 L 8.8270383,9.8577853 8.8925313,9.8191623 C 9.3418744,9.554172 9.6264731,9.2656309 9.8247064,8.8740743 c 0.059198,-0.1169293 0.06178,-0.11767 0.2628916,-0.075424 0.134683,0.028292 0.572011,0.080921 0.7766,0.093458 0.237984,0.014584 1.154062,0.00126 1.160107,-0.016873 0.0035,-0.010377 0.03057,-0.015304 0.06025,-0.010948 0.05323,0.00781 0.688846,-0.087818 0.723338,-0.1088304 0.0098,-0.00595 0.04821,-0.013558 0.0854,-0.016895 0.130704,-0.011728 0.847803,-0.2018675 1.037476,-0.2750871 0.03072,-0.011859 0.03329,-0.00286 0.02357,0.082596 -0.05827,0.5126623 -0.178222,1.0442193 -0.333661,1.4786202 -0.199234,0.556796 -0.576663,1.229035 -0.959318,1.708642 -0.216938,0.271904 -0.689821,0.750721 -0.740989,0.750289 -0.02139,-1.81e-4 -0.141118,-0.0543 -0.266056,-0.120268 z"
     id="path20" />
  <path
     style="fill:#ffffff;fill-opacity:1;stroke:#ff8800;stroke-width:0"
     d="M 7.4469136,15.958654 C 5.6840476,15.834871 3.9684302,15.103763 2.6754392,13.925298 1.8827904,13.202858 1.3357269,12.483948 0.87215449,11.555556 0.54313626,10.896634 0.34306927,10.32847 0.19561519,9.6342738 0.13137856,9.3318554 0.0600705,8.8661049 0.05956822,8.745679 0.05939829,8.7049383 0.05259259,8.6716049 0.04444444,8.6716049 0.0362963,8.6716049 0.02962963,8.3693827 0.02962963,8 c 0,-0.3693827 0.0066667,-0.6716049 0.01481481,-0.6716049 0.0081481,0 0.01495385,-0.033333 0.01512378,-0.074074 C 0.05973815,7.2135802 0.07700032,7.0602469 0.0979286,6.9135802 0.28195457,5.6239151 0.76766995,4.4117213 1.5249893,3.3520826 1.7472377,3.0411133 1.862995,2.9011455 2.1626133,2.5811008 3.496652,1.1561147 5.1564934,0.3165907 7.1308642,0.06823086 c 0.3680117,-0.04629288 1.3373576,-0.0461465 1.7283951,2.61e-4 1.7430057,0.20685621 3.3108927,0.92455987 4.5432097,2.07966384 0.78109,0.7321487 1.2772,1.3941438 1.735682,2.3160418 0.428309,0.8612265 0.681657,1.7163283 0.791258,2.6706604 0.03596,0.3131466 0.04224,1.2456037 0.01094,1.6256359 -0.05416,0.6575398 -0.284342,1.5827522 -0.564779,2.2700912 -0.597846,1.465291 -1.695246,2.787256 -3.029887,3.649904 -1.470963,0.950761 -3.1865738,1.398391 -4.8987654,1.278165 z m 1.2018271,-0.97343 c 0.2028581,-0.01274 0.5781284,-0.07004 0.8592372,-0.131209 0.2753673,-0.05992 0.6253551,-0.160154 0.6253551,-0.179101 0,-0.0093 0.01333,-0.01177 0.02963,-0.0055 0.0163,0.0063 0.02963,0.0018 0.02963,-0.0099 0,-0.01168 0.01333,-0.01613 0.02963,-0.0099 0.0163,0.0063 0.02963,0.0018 0.02963,-0.0099 0,-0.01168 0.01333,-0.01613 0.02963,-0.0099 0.0163,0.0063 0.02963,0.001 0.02963,-0.01166 0,-0.01267 0.0086,-0.0177 0.01917,-0.01118 0.02928,0.01809 0.408458,-0.134735 0.761072,-0.30675 1.585259,-0.773335 2.802729,-2.105828 3.460063,-3.786958 0.04798,-0.122718 0.08191,-0.231756 0.07539,-0.242307 -0.0065,-0.01055 -0.0015,-0.01918 0.01118,-0.01918 0.01267,0 0.01792,-0.01333 0.01166,-0.02963 -0.0063,-0.0163 -0.0042,-0.02963 0.0046,-0.02963 0.03541,0 0.196102,-0.6063374 0.258222,-0.9743562 0.07244,-0.429167 0.08897,-0.6645997 0.0876,-1.2478664 C 14.99867,7.3525972 14.9746,7.075062 14.883094,6.6189085 14.821254,6.3106434 14.697008,5.8665927 14.672593,5.8665927 c -0.01,0 -0.01339,-0.00775 -0.0075,-0.017224 C 14.689624,5.8097681 14.494796,5.3051473 14.301871,4.908642 13.543554,3.3501239 12.188586,2.1017391 10.564814,1.4655473 10.222359,1.331374 9.6496306,1.1581768 9.5953446,1.172373 9.5761766,1.177383 9.5604936,1.174393 9.5604936,1.165723 9.5604936,1.144546 9.176304,1.073774 8.8592591,1.036548 8.7180247,1.0199659 8.411358,1.0009514 8.1777778,0.99429493 7.5830886,0.97734758 7.2465027,1.0065703 6.4938272,1.1404974 c -0.029877,0.00532 -0.054321,0.016713 -0.054321,0.025327 0,0.00861 -0.017778,0.011013 -0.039506,0.00533 -0.021728,-0.00568 -0.039506,-6.844e-4 -0.039506,0.011106 0,0.01179 -0.012344,0.0167 -0.027432,0.010911 C 6.2696247,1.1688286 5.5672342,1.4001477 5.145679,1.5842141 4.6660514,1.793637 4.0656806,2.1613849 3.6049383,2.5279708 3.3038208,2.7675526 2.7818999,3.2843338 2.5568703,3.5657177 2.0372225,4.2155014 1.662067,4.8794139 1.3962014,5.6197531 1.2932982,5.906301 1.2204716,6.1599078 1.2345481,6.182684 c 0.00673,0.010882 0.00434,0.019785 -0.0053,0.019785 -0.020621,0 -0.068599,0.1935661 -0.053882,0.21738 0.00553,0.00896 0.00215,0.019264 -0.00751,0.022908 -0.019059,0.00718 -0.1053815,0.4646602 -0.1447495,0.7671192 -0.0336752,0.258722 -0.0333109,1.3114152 5.469e-4,1.580247 0.030658,0.2434244 0.1176917,0.7276231 0.1361604,0.7575059 0.00705,0.01141 0.014213,0.038973 0.015913,0.06125 0.00673,0.088187 0.034599,0.1886519 0.052329,0.1886519 0.010296,0 0.014057,0.00755 0.00836,0.01677 -0.013779,0.022295 0.066967,0.307303 0.089464,0.315781 0.00967,0.0036 0.012855,0.01427 0.00708,0.02362 -0.015198,0.02459 0.1508053,0.472444 0.2852866,0.769662 0.6539483,1.445292 1.8525064,2.679428 3.2706492,3.367733 0.3283794,0.159381 0.5997493,0.27094 0.6234445,0.256296 0.010192,-0.0063 0.018531,-0.0024 0.018531,0.0087 0,0.0255 0.4669766,0.1765 0.7906193,0.255646 0.2874062,0.07028 0.6234089,0.130848 0.888393,0.160133 0.1032099,0.01141 0.214321,0.02438 0.2469136,0.02882 0.078311,0.01068 0.9570232,-7.21e-4 1.1919506,-0.01547 z"
     id="path21" />
  <path
     style="fill:#deddda;stroke:#ff8800;stroke-width:0;fill-opacity:1"
     d="M 9.0076895,6.2415915 C 8.8391289,6.142801 8.6356336,6.0659571 8.4350027,6.0253333 8.3539718,6.0089262 7.9020553,5.9703368 7.7382716,5.965839 7.7301216,5.9656152 7.7234566,5.951171 7.7234566,5.933742 7.7234566,5.880977 7.5290048,5.400419 7.387618,5.1037677 7.0022771,4.295263 6.4070888,3.4976476 5.6844728,2.8213721 L 5.4476485,2.599735 5.7707378,2.4731077 C 7.0157968,1.9851361 8.2041489,1.9079914 9.4931382,2.2314591 9.83557,2.3173912 9.932686,2.3573361 9.9446412,2.4171671 9.97986,2.5934231 9.962444,3.4753171 9.9153335,3.9012346 9.8451917,4.5353742 9.6607714,5.2687785 9.4344774,5.8135068 9.3668269,5.9763532 9.1905636,6.3412954 9.1800486,6.3402854 9.1774416,6.3400352 9.0998801,6.2956229 9.0076895,6.2415915 Z"
     id="path22" />
  <path
     style="fill:#deddda;fill-opacity:1;stroke:#ff8800;stroke-width:0"
     d="M 10.010043,7.9045418 C 10.002027,7.6617956 9.9919868,7.5886963 9.9481242,7.4537432 9.8845064,7.2580091 9.7786581,7.0222236 9.6853746,6.8684482 9.638278,6.7908107 9.6220597,6.7464853 9.6347818,6.7301766 9.6450803,6.7169744 9.7289022,6.6128395 9.8210527,6.4987654 10.165618,6.0722242 10.359046,5.7828367 10.575921,5.3694062 c 0.296056,-0.5643749 0.555861,-1.2469633 0.69414,-1.8237272 0.07907,-0.3297867 0.11045,-0.4537622 0.116366,-0.4596779 0.01,-0.010001 0.39863,0.3073896 0.609227,0.4975515 0.898177,0.8110237 1.503548,1.8297665 1.810568,3.046899 0.02238,0.088724 0.04069,0.1703847 0.04069,0.1814688 0,0.011084 -0.07778,0.071442 -0.17284,0.1341284 -0.995872,0.6567066 -2.236418,1.1127133 -3.293827,1.2107631 -0.13037,0.012089 -0.264847,0.025462 -0.298837,0.029718 l -0.0618,0.00774 z"
     id="path23" />
  <path
     style="fill:#deddda;fill-opacity:1;stroke:#ff8800;stroke-width:0"
     d="M 11.624691,12.32918 C 10.802654,11.899448 10.027368,11.298096 9.4483197,10.641073 9.2618781,10.429525 8.9180434,9.987681 8.869989,9.8978906 8.8533754,9.8668478 8.8772569,9.8444413 9.0426382,9.7359047 9.3692537,9.5215532 9.625695,9.2526763 9.7986704,8.9432099 c 0.097888,-0.175129 0.079159,-0.1688408 0.3655956,-0.1227486 0.894897,0.1440032 1.827431,0.1150835 2.813512,-0.087252 0.193963,-0.0398 0.795944,-0.1998626 0.896566,-0.2383914 0.03138,-0.012017 0.06156,-0.017348 0.06706,-0.011848 0.03204,0.032039 -0.114934,0.8212179 -0.222745,1.1960427 -0.179444,0.6238684 -0.538148,1.3351674 -0.95942,1.9025024 -0.260622,0.350985 -0.77131,0.883231 -0.846558,0.882294 -0.01716,-2.13e-4 -0.146757,-0.0608 -0.287992,-0.134629 z"
     id="path24" />
  <path
     style="fill:#deddda;fill-opacity:1;stroke:#ff8800;stroke-width:0"
     d="m 7.1703704,13.907056 c -0.6034829,-0.105938 -1.0709312,-0.23133 -1.10589,-0.296651 -0.025352,-0.04737 -0.025565,-0.70709 -3.749e-4,-1.160875 0.042799,-0.770996 0.204068,-1.51663 0.4753233,-2.197678 0.064663,-0.162351 0.2489043,-0.5707272 0.2657449,-0.5890311 0.0032,-0.00347 0.075561,0.03416 0.160812,0.083629 0.2826783,0.164031 0.659953,0.2681221 0.9732976,0.2685371 0.187377,2.47e-4 0.3372599,0.02148 0.3372599,0.04779 0,0.01249 0.017778,0.05757 0.039506,0.100191 0.021728,0.04262 0.039506,0.08871 0.039506,0.102428 0,0.07689 0.2871545,0.702495 0.4808699,1.047639 0.2001811,0.356664 0.5552725,0.858229 0.8499502,1.20055 0.065465,0.07605 0.2833991,0.304721 0.4842987,0.508159 0.200899,0.203439 0.36135,0.373776 0.356558,0.378527 -0.02226,0.02207 -0.517669,0.215715 -0.715411,0.279641 -0.5394992,0.174408 -0.9188063,0.237837 -1.5846609,0.264989 -0.6522669,0.0266 -0.6993064,0.02492 -1.0567901,-0.03784 z"
     id="path25" />
  <path
     style="fill:#deddda;fill-opacity:1;stroke:#ff8800;stroke-width:0"
     d="M 4.4213606,12.765397 C 3.4028803,12.001968 2.6172569,10.861016 2.2728339,9.645115 2.2304145,9.4953635 2.1846634,9.3215496 2.1711648,9.2588621 2.141798,9.1224817 2.1054938,9.1581824 2.5382716,8.8978575 3.2728802,8.4559752 4.0260193,8.1440122 4.8415984,7.9437807 5.1430979,7.86976 5.2330856,7.856886 5.891358,7.7935981 l 0.093827,-0.00902 7.84e-4,0.2212915 c 9.201e-4,0.2596629 0.046624,0.5292085 0.1200857,0.7082249 0.014931,0.036384 0.079116,0.1694531 0.1426349,0.2957087 L 6.364178,9.2393581 6.143375,9.5135062 C 5.9037053,9.8110795 5.6544085,10.175256 5.4919919,10.465055 c -0.301121,0.53729 -0.5942218,1.268307 -0.7302752,1.821365 -0.022717,0.09234 -0.053929,0.212345 -0.06936,0.266666 -0.015431,0.05432 -0.042216,0.149877 -0.059524,0.212346 -0.017307,0.06247 -0.037886,0.113565 -0.045731,0.113545 -0.00784,-1.9e-5 -0.082429,-0.05113 -0.1657411,-0.11358 z"
     id="path26" />
  <path
     style="fill:#deddda;fill-opacity:1;stroke:#ff8800;stroke-width:0"
     d="M 2.0800673,7.3267595 C 2.1036352,6.9671656 2.2643166,6.3048184 2.4318807,5.8765432 2.5466191,5.5832845 2.8134337,5.0545633 2.9772022,4.7959312 3.0508521,4.6796193 3.1938087,4.4779281 3.2948836,4.3477285 3.4904077,4.0958641 3.971906,3.5825525 4.0536968,3.5387795 c 0.044232,-0.023672 0.062786,-0.019278 0.1907822,0.04518 0.9565472,0.4817095 1.9443058,1.2734802 2.5430862,2.0384956 0.183391,0.2343046 0.3655443,0.5067982 0.3483376,0.5210987 -0.0082,0.00682 -0.106189,0.072341 -0.2177458,0.1456079 C 6.6038973,6.495556 6.3841857,6.7325576 6.1923498,7.0720855 6.1525999,7.1424385 6.1170777,7.2030191 6.113412,7.2067089 6.1049335,7.2152429 5.72755,7.1558931 5.6098765,7.1275198 5.5593067,7.1153264 5.218657,7.101825 4.8196695,7.0962005 4.05739,7.0854548 3.8312564,7.0988658 3.38114,7.1815129 3.0460246,7.2430445 2.40904,7.3968148 2.3359071,7.4338357 c -0.029934,0.015153 -0.08839,0.033705 -0.1299024,0.041226 -0.041512,0.00752 -0.089574,0.019084 -0.106803,0.025696 -0.027743,0.010646 -0.029932,-0.00926 -0.019134,-0.1739982 z"
     id="path27" />
  <path
     style="fill:#deddda;fill-opacity:1;stroke:#ff8800;stroke-width:0"
     d="M 7.7133223,8.9138262 C 7.4568488,8.8220078 7.2573459,8.6447676 7.1374864,8.4022483 7.0680076,8.2616676 7.0619362,8.2354446 7.0549081,8.0455834 7.0485982,7.8751246 7.0545488,7.8181807 7.0902855,7.7070391 7.1668064,7.4690591 7.3695916,7.2459022 7.6284116,7.1148536 7.7270131,7.0649285 7.7493967,7.0617476 8,7.0620466 c 0.304412,3.633e-4 0.3554956,0.016077 0.562963,0.173175 0.1312996,0.099422 0.2415915,0.2340216 0.3221834,0.39319 0.04986,0.098473 0.053125,0.1213113 0.053125,0.3715884 0,0.2517844 -0.00305,0.2727731 -0.054662,0.3760838 C 8.7754326,8.5926201 8.5898818,8.7753696 8.3760455,8.8759847 8.2624165,8.9294498 8.2244275,8.9367777 8.0303665,8.9426639 7.85812,8.9478884 7.7915554,8.9418338 7.7133223,8.9138262 Z"
     id="path28" />
  <path
     style="fill:#deddda;fill-opacity:1;stroke:#ff8800;stroke-width:0"
     d="M 7.4074074,15.948561 C 7.3693827,15.944193 7.2493827,15.931136 7.1407407,15.919545 5.9182052,15.789115 4.6447145,15.325295 3.6049383,14.631767 2.4376735,13.853203 1.520884,12.817473 0.8978383,11.573457 0.43350374,10.646336 0.21503637,9.9034465 0.06159253,8.729839 0.03469412,8.5241079 0.03223074,7.4671236 0.05826108,7.3003834 0.06857628,7.2343083 0.09149308,7.0691358 0.10918729,6.9333333 0.22756723,6.0247716 0.55644356,5.0256249 1.0083331,4.2016725 1.534113,3.2429924 2.1990868,2.4558351 3.0716049,1.7592913 5.2785888,-0.00257575 8.2682989,-0.44686526 10.91358,0.5939249 c 1.027862,0.40441394 1.903488,0.9833149 2.716457,1.795926 0.677479,0.6771804 1.097878,1.26985 1.527692,2.153707 0.319721,0.6574649 0.519236,1.2443206 0.654644,1.9255779 0.116913,0.5882098 0.132987,0.8056146 0.123265,1.6671532 -0.0076,0.6717144 -0.01376,0.791868 -0.05191,1.00939 -0.231753,1.32137 -0.612543,2.298407 -1.281812,3.288889 -1.171078,1.733132 -2.924862,2.917415 -4.9724649,3.35777 -0.5668617,0.121909 -0.8527512,0.151244 -1.5405622,0.158079 -0.3367901,0.0033 -0.6434568,0.0025 -0.6814815,-0.0019 z m 1.2102455,-0.956673 c 0.8943493,-0.06084 1.9286681,-0.372041 2.7673061,-0.832608 1.763314,-0.968383 3.037654,-2.669848 3.477293,-4.6427903 0.118187,-0.5303787 0.137444,-0.7386716 0.138379,-1.4967366 5.67e-4,-0.4604743 -0.0078,-0.7690544 -0.02452,-0.8987654 C 14.937915,6.8236766 14.845178,6.3794718 14.765798,6.1135802 14.726877,5.9832099 14.681174,5.8276543 14.664236,5.7679012 14.580878,5.4738436 14.316877,4.8821025 14.104516,4.5133258 13.300989,3.117956 12.049305,2.0358657 10.567901,1.4558973 10.310431,1.3550977 9.8703915,1.2157572 9.6790123,1.1744263 9.0145713,1.0309314 8.8110147,1.0067079 8.1570465,0.99330997 7.541389,0.98069693 7.2719479,0.99895751 6.7851852,1.0862839 6.1683492,1.1969457 5.8466264,1.2885177 5.2938272,1.5107692 4.7803479,1.7172123 4.1413904,2.096109 3.6115538,2.5083439 3.3845069,2.684996 2.6853632,3.3847609 2.4963403,3.6245483 1.8650939,4.4253248 1.4246383,5.3221383 1.1865798,6.291358 1.0378408,6.8969266 1.0057219,7.1468237 0.9936285,7.7925926 0.9749131,8.7919642 1.0438997,9.2858199 1.3275043,10.182716 c 0.528948,1.672792 1.7274458,3.12383 3.2848414,3.977002 0.7914398,0.433567 1.7620132,0.733262 2.7160494,0.838667 0.1501323,0.01659 1.0139225,0.01223 1.2892578,-0.0065 z"
     id="path29" />
  <path
     style="fill:#fffffa;stroke:#ff8800;stroke-width:0;fill-opacity:1"
     d="M 10.027238,8.0764569 C 10.021315,8.0181094 10.012154,7.8813886 10.00688,7.7726331 9.995312,7.5340873 9.9323998,7.3362311 9.7567464,6.985972 9.6922643,6.8573924 9.6395062,6.7499206 9.6395062,6.7471457 c 0,-0.00277 0.098153,-0.1286845 0.2181186,-0.2797991 C 10.11734,6.1401946 10.275041,5.916193 10.25779,5.8989418 c -0.0069,-0.00689 -0.0027,-0.012522 0.0092,-0.012522 0.02483,0 0.228486,-0.3286284 0.228486,-0.3686875 0,-0.014506 0.0065,-0.026374 0.01446,-0.026374 0.02789,0 0.341095,-0.6483471 0.341095,-0.7060739 0,-0.013635 0.0064,-0.02479 0.01432,-0.02479 0.01157,0 0.03095,-0.04852 0.04732,-0.1185185 0.0013,-0.00543 0.01342,-0.029877 0.027,-0.054321 0.01358,-0.024444 0.01884,-0.044444 0.0117,-0.044444 -0.0071,0 -0.0035,-0.011458 0.0081,-0.025463 0.03363,-0.040519 0.143137,-0.3513407 0.130812,-0.3712839 -0.0061,-0.00994 -8.03e-4,-0.018068 0.01187,-0.018068 0.01267,0 0.01792,-0.013333 0.01166,-0.02963 -0.0063,-0.016296 -0.004,-0.02963 0.005,-0.02963 0.01504,0 0.103151,-0.2792224 0.111468,-0.3532536 0.002,-0.017562 0.01236,-0.054154 0.02308,-0.081314 0.01072,-0.02716 0.0446,-0.1582716 0.07527,-0.291358 0.03068,-0.1330864 0.06094,-0.241932 0.06725,-0.2418791 0.03515,2.95e-4 0.584814,0.4803401 0.82312,0.7188638 0.478452,0.4788909 0.797903,0.9229718 1.095585,1.5230153 0.09702,0.1955555 0.183131,0.3644444 0.191368,0.3753086 0.0082,0.010864 0.01637,0.033086 0.01806,0.049383 0.0017,0.016296 0.04023,0.1318519 0.08562,0.2567902 0.09134,0.2513866 0.217464,0.6932655 0.217464,0.7619109 0,0.033831 -0.04358,0.072737 -0.187654,0.1675075 -0.10321,0.067893 -0.187654,0.1295111 -0.187654,0.1369292 0,0.00742 -0.01147,0.013488 -0.02548,0.013488 -0.01402,0 -0.08735,0.035991 -0.162963,0.07998 C 12.877428,7.409053 12.324278,7.6577 11.861728,7.8145754 11.70963,7.8661604 11.582204,7.9157059 11.57856,7.9246765 c -0.0036,0.00897 -0.01421,0.011622 -0.02348,0.00589 -0.0212,-0.013105 -0.263851,0.052462 -0.272813,0.073718 -0.0036,0.00864 -0.01359,0.011411 -0.0221,0.00615 -0.0085,-0.00526 -0.121083,0.012162 -0.250165,0.038712 -0.228729,0.047046 -0.544366,0.092615 -0.830506,0.1199011 l -0.141491,0.013492 z"
     id="path30" />
  <path
     style="fill:#ffffff;fill-opacity:1;stroke:#ff8800;stroke-width:0"
     d="m 10.045965,8.1544484 c -0.0045,-0.014329 -0.01752,-0.152851 -0.02895,-0.3078258 C 9.9925566,7.5151536 9.9407071,7.3371575 9.7687034,6.9941922 9.7085091,6.8741681 9.6592593,6.7670145 9.6592593,6.7560729 c 0,-0.010942 0.098923,-0.1466451 0.219828,-0.3015637 C 10.117431,6.1491153 10.365883,5.78747 10.474648,5.5876148 c 0.03768,-0.069237 0.09571,-0.1747753 0.12895,-0.2345284 0.03324,-0.059753 0.105859,-0.2108642 0.161371,-0.3358024 0.05551,-0.1249383 0.109169,-0.2449383 0.119237,-0.2666667 0.114346,-0.2467677 0.305303,-0.8280635 0.415293,-1.2641975 0.04658,-0.1846914 0.09095,-0.3430671 0.09861,-0.3519459 0.01613,-0.018699 0.165471,0.1013677 0.512998,0.4124448 0.626763,0.5610252 0.973694,1.0056458 1.372703,1.759234 0.171722,0.3243249 0.228279,0.4544551 0.325167,0.7481683 0.06451,0.1955555 0.139204,0.44 0.16599,0.5432099 0.05746,0.2214147 0.06667,0.2017493 -0.174281,0.3724715 -0.445394,0.315582 -1.524908,0.7984324 -2.209222,0.9881511 -0.185588,0.051452 -0.889476,0.1719686 -1.109987,0.1900466 -0.08691,0.00713 -0.173624,0.017308 -0.192689,0.022628 -0.01907,0.00532 -0.03834,-0.00205 -0.04283,-0.01638 z"
     id="path31" />
  <path
     style="fill:#ffffff;fill-opacity:1;stroke:#ff8800;stroke-width:0"
     d="M 9.1127959,6.2917983 C 9.0523868,6.2494862 8.7591238,6.1050098 8.7171727,6.0968938 8.6975425,6.0930963 8.6592593,6.0808203 8.6320988,6.0696142 8.520272,6.0234754 8.3465274,5.9991907 7.9339953,5.9720389 7.8203407,5.9645584 7.7372128,5.9502734 7.7338592,5.9376468 7.7129252,5.8588304 7.594604,5.5506173 7.5852806,5.5506173 c -0.00629,0 -0.012634,-0.015556 -0.014091,-0.034568 -0.00356,-0.046485 -0.1851822,-0.4476332 -0.2064572,-0.4560081 -0.00926,-0.00364 -0.011806,-0.014755 -0.00567,-0.024691 0.00614,-0.00994 0.00123,-0.018066 -0.010919,-0.018066 -0.012147,0 -0.016591,-0.00889 -0.00988,-0.019753 0.00671,-0.010864 0.00131,-0.019753 -0.012003,-0.019753 -0.013316,0 -0.018409,-0.0058 -0.011318,-0.012893 C 7.3289873,4.950848 7.2157867,4.7399463 7.1815513,4.7163518 7.1699697,4.70837 7.1678855,4.7017033 7.1769197,4.701537 7.2084002,4.7009574 6.801626,4.0691358 6.7697723,4.0691358 c -0.011441,0 -0.015329,-0.00547 -0.00864,-0.012161 C 6.7751278,4.0429792 6.536244,3.7225868 6.3456605,3.4997422 6.1595739,3.2821557 5.5068074,2.6274888 5.4877085,2.6392925 c -0.00886,0.00547 -0.016104,-0.00191 -0.016104,-0.016405 0,-0.060883 1.0269878,-0.4016564 1.4123457,-0.4686422 0.076049,-0.013219 0.151605,-0.029188 0.1679013,-0.035486 0.016296,-0.0063 0.034932,-0.010494 0.041413,-0.00933 0.00648,0.00117 0.1220367,-0.011075 0.2567902,-0.02721 0.1605058,-0.019218 0.3880722,-0.027754 0.6598211,-0.024751 0.2281482,0.00252 0.4614815,0.00507 0.5185186,0.00565 0.057037,5.886e-4 0.1037037,0.00774 0.1037037,0.015885 0,0.00815 0.025553,0.014815 0.056784,0.014815 0.1782894,0 0.9800729,0.1760356 1.1557714,0.2537554 0.080278,0.035511 0.086172,0.043589 0.097749,0.1339922 0.014526,0.1134281 0.015631,0.5979929 0.00207,0.9060795 -0.018827,0.4276068 -0.082557,0.9101132 -0.1688602,1.2784496 -0.022201,0.094752 -0.034715,0.1814187 -0.027809,0.1925926 0.00691,0.011174 0.00422,0.020316 -0.00596,0.020316 -0.010184,0 -0.033561,0.06 -0.051947,0.1333334 C 9.6342985,5.234081 9.5013691,5.6271401 9.4078775,5.8462355 9.2965734,6.107074 9.1892008,6.3209877 9.1695789,6.3209877 c -0.00831,0 -0.033863,-0.013135 -0.056783,-0.029189 z"
     id="path32" />
  <path
     style="fill:#fffffa;fill-opacity:1;stroke:#ff8800;stroke-width:0"
     d="m 2.0882965,7.4743046 c -0.00743,-0.00743 -0.0094,-0.032183 -0.00439,-0.055015 0.00501,-0.022832 0.012862,-0.1081786 0.017447,-0.1896601 0.00459,-0.081481 0.013007,-0.1614815 0.018715,-0.1777777 0.015652,-0.044686 0.097963,-0.4584532 0.1002017,-0.5037038 0.00108,-0.021728 0.00727,-0.043951 0.013775,-0.049383 0.0065,-0.00543 0.039981,-0.1058623 0.0744,-0.2231784 C 2.4012037,5.9594123 2.4914936,5.7421843 2.7101714,5.3090704 2.922831,4.887876 3.0854591,4.6309321 3.3449376,4.3061728 3.5435396,4.0576057 4.0155599,3.5626833 4.0707198,3.5451763 4.1727802,3.5127836 4.9373521,3.9639506 5.4716049,4.3718261 6.1580026,4.8958565 6.7688192,5.5362289 7.0874303,6.0658368 L 7.1300085,6.136612 6.9279672,6.2731856 C 6.7458728,6.396276 6.4276569,6.6712782 6.4460433,6.6896646 c 0.00404,0.00404 -0.020228,0.036972 -0.053921,0.073192 -0.033692,0.03622 -0.1101474,0.1462262 -0.1699005,0.2444591 -0.096329,0.158363 -0.1159194,0.1795134 -0.1728537,0.1866184 -0.035316,0.00441 -0.070872,0.00147 -0.079012,-0.00652 -0.00814,-0.00799 -0.05997,-0.018089 -0.1151761,-0.02244 -0.055206,-0.00435 -0.1108576,-0.01439 -0.1236691,-0.022307 -0.047982,-0.029654 -0.3717272,-0.041432 -1.1389183,-0.041432 -0.7371198,0 -0.8086748,0.00311 -1.0666667,0.046327 -0.1520987,0.02548 -0.2862499,0.054291 -0.2981137,0.064026 -0.011864,0.00973 -0.026338,0.012932 -0.032165,0.00711 -0.00977,-0.00977 -0.1637487,0.019969 -0.232684,0.044936 -0.016296,0.0059 -0.047407,0.013199 -0.069136,0.016216 -0.053191,0.00738 -0.3677718,0.086481 -0.4049383,0.101816 -0.016296,0.00672 -0.040741,0.010434 -0.054321,0.00824 -0.01358,-0.00219 -0.024691,0.00582 -0.024691,0.017804 0,0.011982 -0.00726,0.017296 -0.016142,0.011809 -0.00888,-0.00549 -0.0511,0.00187 -0.093827,0.016347 -0.1147725,0.03889 -0.1963446,0.053708 -0.2116112,0.038442 z"
     id="path33" />
  <path
     style="fill:#fffffa;fill-opacity:1;stroke:#ff8800;stroke-width:0"
     d="m 7.3582898,15.937682 c -0.032048,-0.0086 -0.122597,-0.01951 -0.201219,-0.0243 -0.078622,-0.0048 -0.1500152,-0.01277 -0.1586518,-0.01772 -0.014524,-0.0083 -0.207087,-0.03512 -0.3218758,-0.04479 -0.02716,-0.0023 -0.062716,-0.0091 -0.079012,-0.0151 -0.064623,-0.02386 -0.2413903,-0.0527 -0.2584409,-0.04216 -0.00996,0.0062 -0.018102,0.0036 -0.018102,-0.0058 0,-0.0093 -0.055556,-0.02843 -0.1234568,-0.04243 C 5.9665673,15.69776 5.4231874,15.524499 5.0962963,15.394265 4.3351878,15.091038 3.6607354,14.699577 3.0222222,14.190444 2.6799585,13.917533 2.0819176,13.319449 1.810556,12.978691 1.3282315,12.373019 0.91959538,11.672876 0.61940235,10.937809 0.5695922,10.815841 0.5209055,10.713068 0.51120972,10.709424 c -0.009696,-0.0036 -0.0133246,-0.01359 -0.008064,-0.0221 0.005261,-0.0085 -0.0216239,-0.107752 -0.0597434,-0.220535 C 0.35243579,10.197649 0.21079153,9.616116 0.15770382,9.2938272 0.13443953,9.1525926 0.11065897,9.0237037 0.10485813,9.0074074 0.09905729,8.9911111 0.09187526,8.9511111 0.08889805,8.9185185 0.08592084,8.8859259 0.07857855,8.8148148 0.07258184,8.7604938 0.05884438,8.6360533 0.05939826,7.345908 0.07323483,7.2395062 0.07888599,7.1960494 0.08471998,7.1271605 0.08619927,7.0864198 c 0.0014793,-0.040741 0.0081288,-0.074074 0.01477663,-0.074074 0.006648,0 0.017787,-0.055556 0.0247537,-0.1234568 0.0185499,-0.1807982 0.13670577,-0.7424925 0.20805725,-0.9890708 0.0340206,-0.1175692 0.0567559,-0.2220137 0.0505229,-0.2320988 -0.006233,-0.010085 -0.001919,-0.018337 0.009586,-0.018337 0.0115054,0 0.0209188,-0.00916 0.0209188,-0.020355 0,-0.04571 0.2126144,-0.6019574 0.33753492,-0.8830683 C 0.97245308,4.250657 1.3195759,3.6617367 1.6459187,3.2299516 c 0.871163,-1.1526382 2.101113,-2.0941009 3.420748,-2.61840464 0.1195061,-0.0474809 0.2217284,-0.0911697 0.2271605,-0.0970861 0.00543,-0.005916 0.019525,-0.0107571 0.031317,-0.0107571 0.038942,0 0.452496,-0.13796225 0.4592587,-0.1532095 0.00364,-0.008216 0.013722,-0.0105522 0.022395,-0.005192 0.00867,0.00536 0.059025,-0.003393 0.1118932,-0.0194522 C 6.0573288,0.28373801 6.5169582,0.18484062 6.7358025,0.15003415 7.129229,0.08746092 7.5146724,0.0589224 7.9763012,0.05818665 8.5746487,0.05723301 8.9248245,0.08778252 9.469732,0.18847426 c 0.1402044,0.0259079 0.2616675,0.0429334 0.2699178,0.0378344 0.00825,-0.005099 0.017982,-0.002044 0.021626,0.00679 0.00364,0.008833 0.1221809,0.045561 0.2634152,0.0816168 0.141235,0.0360558 0.385679,0.10993928 0.54321,0.16418544 C 11.750792,0.8862324 12.700429,1.4837717 13.621,2.4 c 0.630735,0.6277594 1.027599,1.1697641 1.424655,1.945679 0.24378,0.4763864 0.505195,1.1109132 0.579889,1.4075463 0.01298,0.051528 0.03195,0.093688 0.04216,0.093688 0.01022,0 0.01369,0.00791 0.0077,0.017579 -0.006,0.00967 0.01536,0.1236151 0.04741,0.2532149 0.03205,0.1295998 0.06422,0.2728006 0.07148,0.3182236 0.0073,0.045423 0.02148,0.082588 0.0316,0.082588 0.01012,0 0.01334,0.00818 0.0072,0.01817 -0.0062,0.00999 0.0086,0.1322159 0.03286,0.2716049 0.04114,0.236479 0.04413,0.3129041 0.04463,1.1423236 2.98e-4,0.4888889 -0.0059,0.9555555 -0.01377,1.037037 -0.01532,0.1586517 -0.102746,0.5974469 -0.182575,0.9163763 -0.0269,0.1074634 -0.04419,0.2030194 -0.03843,0.2123454 0.0058,0.0093 0.003,0.01696 -0.0061,0.01696 -0.01492,0 -0.114176,0.317681 -0.114176,0.365432 0,0.01086 -0.0046,0.0242 -0.01015,0.02963 -0.01497,0.01457 -0.22017,0.557931 -0.223794,0.592593 -0.0017,0.0163 -0.0079,0.03407 -0.01379,0.03951 -0.0059,0.0054 -0.0787,0.147654 -0.161823,0.316049 -0.395547,0.801344 -0.894204,1.493391 -1.545012,2.144199 -0.1961,0.196099 -0.476545,0.45234 -0.623211,0.569423 -0.319352,0.254938 -0.797492,0.577698 -1.096297,0.740036 -0.119506,0.06493 -0.231358,0.12997 -0.248559,0.144541 -0.0172,0.01457 -0.04378,0.02943 -0.05907,0.03301 -0.01529,0.0036 -0.03232,0.01248 -0.03786,0.01975 -0.0055,0.0073 -0.02757,0.01629 -0.04896,0.02003 -0.02139,0.0037 -0.07917,0.02712 -0.128395,0.05197 -0.11581,0.05844 -0.430571,0.191021 -0.588267,0.247777 -0.0679,0.02444 -0.123456,0.05265 -0.123456,0.0627 0,0.01005 -0.0072,0.01383 -0.01598,0.0084 -0.0088,-0.0054 -0.122124,0.02372 -0.251852,0.06478 -0.129728,0.04106 -0.360314,0.104963 -0.5124123,0.141999 -0.1520988,0.03704 -0.2790756,0.07273 -0.2821707,0.07933 -0.00309,0.0066 -0.027539,0.0078 -0.054321,0.0027 -0.02756,-0.0053 -0.048694,-5e-6 -0.048694,0.01213 0,0.01179 -0.011111,0.01723 -0.024691,0.0121 -0.01358,-0.0051 -0.091358,0.0041 -0.1728395,0.02063 -0.081482,0.01648 -0.2059259,0.03463 -0.2765432,0.04032 -0.070617,0.0057 -0.1417284,0.01552 -0.1580247,0.02183 -0.016296,0.0063 -0.3274074,0.01517 -0.691358,0.01968 -0.3639506,0.0045 -0.6796691,0.01072 -0.7015968,0.0138 -0.021928,0.0031 -0.06609,-0.0014 -0.098138,-0.01 z m 1.4464681,-0.956076 c 0.1603461,-0.01691 0.3937606,-0.05228 0.5186989,-0.0786 0.1249383,-0.02632 0.2449383,-0.05116 0.2666667,-0.05519 0.097948,-0.01816 0.1793846,-0.03862 0.1975308,-0.04964 0.010864,-0.0066 0.039915,-0.01477 0.064557,-0.01815 0.086507,-0.0119 0.5929687,-0.18289 0.8286647,-0.279775 0.322638,-0.132623 0.657396,-0.296978 0.657396,-0.322759 0,-0.01161 0.0058,-0.01535 0.01279,-0.0083 0.01387,0.01387 0.164984,-0.06451 0.164984,-0.08557 0,-0.0071 0.01152,-0.01282 0.02559,-0.01282 0.04857,0 0.677727,-0.420633 0.74478,-0.497938 0.0163,-0.01879 0.03533,-0.0337 0.04231,-0.03313 0.0215,0.0017 0.332999,-0.265908 0.332999,-0.286124 0,-0.01046 0.01099,-0.01902 0.02442,-0.01902 0.02331,0 0.52867,-0.491377 0.52867,-0.514046 0,-0.006 0.04348,-0.05722 0.09661,-0.113818 0.09896,-0.105407 0.406768,-0.498062 0.390436,-0.498062 -0.005,0 0.01449,-0.02562 0.0433,-0.05694 0.06948,-0.07555 0.365127,-0.550356 0.365127,-0.58639 0,-0.01555 0.0073,-0.02827 0.01618,-0.02827 0.02055,0 0.141075,-0.236932 0.120733,-0.237339 -0.0083,-1.67e-4 -0.0051,-0.0068 0.007,-0.01482 0.06617,-0.04337 0.46058,-0.98584 0.431946,-1.032169 -0.0054,-0.0088 -0.0019,-0.01899 0.0079,-0.02263 0.03269,-0.01219 0.233987,-0.798734 0.210444,-0.822277 -0.0057,-0.00569 -0.0011,-0.021512 0.01026,-0.035162 0.01133,-0.013651 0.02368,-0.069411 0.02745,-0.1239113 0.0038,-0.054501 0.01238,-0.1080419 0.01914,-0.1189808 0.0068,-0.010939 0.01252,-0.044885 0.0128,-0.075437 2.8e-4,-0.030551 0.0061,-0.113326 0.01285,-0.1839433 0.0225,-0.2340166 0.01388,-1.5815777 -0.01093,-1.708642 C 14.952242,6.9397388 14.945342,6.900325 14.924421,6.7665923 14.881512,6.4923306 14.722103,5.886444 14.692857,5.886444 c -0.01027,0 -0.01318,-0.00888 -0.0065,-0.019725 0.0153,-0.024749 -0.07078,-0.2963247 -0.09392,-0.2963247 -0.0094,0 -0.0121,-0.00797 -0.0061,-0.01772 0.01431,-0.023155 -0.166166,-0.4563538 -0.190124,-0.4563538 -0.0101,0 -0.01336,-0.00809 -0.0072,-0.017983 0.02736,-0.044277 -0.494324,-0.9685636 -0.628135,-1.112881 -0.0277,-0.029877 -0.04606,-0.054321 -0.04079,-0.054321 0.0053,0 -0.02734,-0.048889 -0.07245,-0.108642 -0.04511,-0.059753 -0.09037,-0.1086419 -0.100571,-0.1086419 -0.0102,0 -0.01349,-0.00818 -0.0073,-0.018171 0.0062,-0.00999 -0.01228,-0.036661 -0.041,-0.059259 -0.02873,-0.022598 -0.04596,-0.041088 -0.03829,-0.041088 0.0301,0 -0.298577,-0.3626826 -0.556441,-0.614014 C 12.641624,2.7055338 12.280606,2.397438 12.260923,2.41246 c -0.0053,0.00401 -0.02804,-0.014929 -0.05063,-0.04209 -0.02259,-0.02716 -0.04137,-0.043594 -0.04173,-0.036519 -3.61e-4,0.00707 -0.02823,-0.012891 -0.06192,-0.044369 -0.0337,-0.031478 -0.06832,-0.052873 -0.07694,-0.047545 -0.0086,0.00533 -0.02032,-0.00242 -0.026,-0.017219 -0.01197,-0.031181 -0.426035,-0.2954999 -0.462916,-0.2954999 -0.0136,0 -0.02473,-0.00692 -0.02473,-0.015386 0,-0.024122 -0.387445,-0.2258562 -0.676193,-0.352079 -0.310408,-0.1356915 -0.722172,-0.2826707 -0.747701,-0.2668924 -0.0099,0.00615 -0.01808,0.00387 -0.01808,-0.00505 0,-0.015604 -0.2321129,-0.089654 -0.2957088,-0.094339 -0.017001,-0.00125 -0.039644,-0.00748 -0.050317,-0.013834 C 9.705068,1.1679496 9.6153357,1.1480408 9.5264806,1.1369133 9.4914771,1.1325297 9.4555435,1.124435 9.4466281,1.118925 9.4323637,1.1101091 9.3352778,1.0930235 9.2148148,1.0781297 9.1930864,1.0754432 9.1575309,1.0675349 9.1358025,1.0605556 9.097661,1.0483044 9.0147405,1.0383563 8.7209877,1.0107892 8.535136,0.99334815 7.3932788,0.99426756 7.2197531,1.011998 7.1437041,1.019768 7.0325926,1.03582 6.9728395,1.047668 6.9130865,1.059516 6.8330864,1.073158 6.7950617,1.077983 6.7570367,1.082803 6.6992597,1.09274 6.6666667,1.100055 6.5820697,1.119042 6.5801227,1.119431 6.4492772,1.143551 6.3840342,1.155578 6.2995895,1.174896 6.2616229,1.186481 6.2236559,1.198066 6.1659259,1.212238 6.1333333,1.217975 c -0.032593,0.00574 -0.068966,0.018406 -0.08083,0.028155 -0.011864,0.00975 -0.026036,0.013259 -0.031494,0.0078 -0.01317,-0.01317 -0.4837802,0.1486405 -0.7568117,0.2602161 -0.23203,0.09482 -0.6024691,0.2811757 -0.6024691,0.3030821 0,0.00727 -0.011111,0.013502 -0.024691,0.013843 -0.036701,9.212e-4 -0.3111111,0.1644938 -0.3111111,0.1854499 0,0.00993 -0.00753,0.015823 -0.016731,0.013107 C 4.2837432,2.0221173 4.0277948,2.1885367 3.7527407,2.39144 3.5679992,2.5277211 3.3871482,2.6927603 3.0314945,3.0496279 2.452129,3.6309701 2.2286135,3.9176867 1.8761966,4.5315974 1.7557022,4.7414987 1.609562,5.0366287 1.5965733,5.0962963 c -0.00355,0.016296 -0.012295,0.034091 -0.019438,0.039543 -0.030107,0.02298 -0.2793288,0.688209 -0.2996981,0.7999631 -0.00396,0.021728 -0.017518,0.064712 -0.030127,0.095519 -0.01261,0.030807 -0.025079,0.08414 -0.027711,0.1185185 -0.00263,0.034378 -0.010282,0.06695 -0.017001,0.072382 -0.020608,0.01666 -0.098687,0.3754211 -0.086128,0.3957424 0.00648,0.01049 0.00368,0.019072 -0.00624,0.019072 -0.014984,0 -0.077884,0.3353391 -0.081513,0.4345679 -5.959e-4,0.016296 -0.00786,0.096296 -0.016136,0.1777778 -0.0187128,0.1841738 -0.0198894,1.3268583 -0.00155,1.5012346 0.00743,0.070617 0.017963,0.1777612 0.023409,0.2380976 0.01135,0.1257438 0.1061405,0.6068181 0.1258505,0.6387095 0.00723,0.011695 0.014478,0.034753 0.016112,0.051241 0.00355,0.035848 0.04535,0.1955794 0.062118,0.2373843 0.00654,0.016296 0.01397,0.03917 0.016518,0.05083 0.078577,0.359578 0.4215602,1.163456 0.6889249,1.614691 0.148784,0.251104 0.3662882,0.566578 0.3906289,0.566578 0.012432,0 0.017004,0.0056 0.01016,0.01244 -0.01435,0.01435 0.2122876,0.313516 0.266019,0.351151 0.019737,0.01382 0.031185,0.02984 0.025441,0.03558 -0.034593,0.03459 0.9982196,1.017916 1.0412282,0.991336 0.00901,-0.0056 0.016381,-8.83e-4 0.016381,0.01041 0,0.02537 0.1943986,0.171325 0.2191182,0.164512 0.00986,-0.0027 0.017919,0.0037 0.017919,0.01421 0,0.03484 0.6100849,0.422001 0.6649837,0.422001 0.014506,0 0.026374,0.0066 0.026374,0.01459 0,0.0218 0.3979206,0.216423 0.4176073,0.204257 0.00933,-0.0058 0.016961,-0.0018 0.016961,0.0089 0,0.01065 0.1177778,0.06575 0.2617284,0.122444 0.3212867,0.126538 0.4691358,0.177976 0.4691358,0.163215 0,-0.0062 0.011111,-0.0025 0.024691,0.0082 0.03749,0.02951 0.5312713,0.16917 0.6855034,0.193892 0.027664,0.0044 0.1116367,0.02171 0.1866052,0.03838 0.074968,0.01667 0.1408172,0.02581 0.1463307,0.02029 0.00551,-0.0055 0.021906,-1.64e-4 0.036428,0.01189 0.014522,0.01205 0.04422,0.01725 0.065996,0.01156 0.021775,-0.0057 0.044926,-0.0017 0.051447,0.0088 0.00652,0.01055 0.035418,0.01733 0.064217,0.01506 0.028799,-0.0023 0.068066,0.0026 0.08726,0.01083 0.019193,0.0082 0.057183,0.01069 0.084422,0.0055 0.027239,-0.0052 0.054282,-0.0018 0.060095,0.0076 0.018928,0.03063 1.2049683,0.02001 1.5241084,-0.01364 z"
     id="path34" />
  <path
     style="fill:#fffffa;fill-opacity:1;stroke:#ff8800;stroke-width:0"
     d="M 11.761668,12.387731 C 11.44194,12.236473 10.881586,11.888092 10.5395,11.62789 9.9461208,11.176546 9.5044604,10.732313 9.0549457,10.134689 8.9046307,9.9348472 8.874631,9.8838464 8.8938052,9.8607429 8.9067634,9.8451291 8.9798473,9.7899681 9.0562137,9.7381628 9.2446278,9.6103469 9.4986273,9.3902972 9.5252864,9.331787 c 0.011988,-0.02631 0.02819,-0.047836 0.036005,-0.047836 0.01906,0 0.1568074,-0.1845768 0.2248076,-0.3012346 0.030081,-0.051605 0.048204,-0.093827 0.040275,-0.093827 -0.00793,0 0.00915,-0.018536 0.037948,-0.041191 0.046811,-0.036821 0.068571,-0.039787 0.205133,-0.027959 0.08402,0.00728 0.183878,0.017728 0.221903,0.023223 0.498632,0.072057 1.288651,0.099404 1.352034,0.0468 0.02391,-0.019843 0.03068,-0.020054 0.03068,-9.558e-4 0,0.026188 0.18384,0.018183 0.503704,-0.021935 0.08691,-0.010901 0.19358,-0.023879 0.237037,-0.02884 0.04346,-0.00496 0.101234,-0.014165 0.128395,-0.020452 0.02716,-0.00629 0.08049,-0.015167 0.118518,-0.019731 0.104283,-0.012518 0.481278,-0.089288 0.502869,-0.1024024 0.0104,-0.00632 0.03801,-0.013526 0.06135,-0.016015 0.08052,-0.00859 0.453086,-0.1141132 0.459694,-0.1302076 0.0036,-0.00888 0.01311,-0.012128 0.02104,-0.00723 0.0079,0.0049 0.06113,-0.00479 0.118228,-0.021525 0.0571,-0.016738 0.106676,-0.027358 0.110171,-0.023599 0.0035,0.00376 -0.0059,0.094555 -0.02087,0.2017696 -0.01497,0.1072148 -0.02238,0.2027703 -0.01646,0.2123457 0.0059,0.00958 0.0031,0.01741 -0.0062,0.01741 -0.0093,0 -0.03255,0.083626 -0.05164,0.1858349 -0.01909,0.1022092 -0.06026,0.2862766 -0.0915,0.4090388 -0.03124,0.1227622 -0.05244,0.2302476 -0.04712,0.2388565 0.0053,0.00861 0.0012,0.015653 -0.0091,0.015653 -0.01033,0 -0.02481,0.024444 -0.03218,0.054321 -0.02941,0.1192068 -0.214864,0.5632159 -0.332686,0.7965149 -0.148097,0.293244 -0.344036,0.622423 -0.502017,0.84339 -0.261913,0.366336 -0.828001,0.97246 -0.908194,0.972425 -0.0196,-9e-6 -0.08955,-0.02552 -0.155451,-0.0567 z"
     id="path35" />
  <path
     style="fill:#fffffa;fill-opacity:1;stroke:#ff8800;stroke-width:0"
     d="m 7.2888889,13.924371 c -0.077405,-0.02729 -0.5770031,-0.116722 -0.5938587,-0.106305 -0.00831,0.0051 -0.018094,0.0026 -0.021738,-0.0056 -0.00364,-0.0082 -0.1043377,-0.03992 -0.2237639,-0.07046 -0.1194261,-0.03053 -0.2549817,-0.07226 -0.3012345,-0.09272 l -0.084096,-0.0372 -0.00227,-0.539382 c -0.00125,-0.296661 8.139e-4,-0.55716 0.00459,-0.578889 0.00377,-0.02173 0.00702,-0.101728 0.00721,-0.177778 1.921e-4,-0.07605 0.00535,-0.142716 0.011463,-0.148148 0.016619,-0.01477 0.05979,-0.415727 0.046991,-0.436436 -0.00608,-0.0098 -0.00164,-0.01788 0.00987,-0.01788 0.011505,0 0.020919,-0.02124 0.020919,-0.04721 0,-0.02597 0.017758,-0.133513 0.039462,-0.238995 0.021704,-0.105483 0.034513,-0.199795 0.028464,-0.209582 -0.00605,-0.0098 -0.00311,-0.0178 0.00653,-0.0178 0.020621,0 0.0686,-0.193566 0.053882,-0.21738 -0.00553,-0.009 -0.00334,-0.01926 0.00487,-0.02291 0.00822,-0.0036 0.066528,-0.162181 0.1295819,-0.352305 0.09142,-0.275651 0.3414876,-0.8874069 0.3774448,-0.9233641 0.00418,-0.00418 0.089027,0.033848 0.1885579,0.084498 0.099531,0.05065 0.1915472,0.093876 0.2044804,0.096058 0.012933,0.00218 0.041293,0.013395 0.063021,0.024917 0.1007903,0.053447 0.3934349,0.1108781 0.676954,0.1328531 0.2418357,0.01875 0.3101059,0.03041 0.3289869,0.05624 0.013104,0.01792 0.053118,0.117565 0.088921,0.221433 0.035803,0.103868 0.071103,0.188851 0.078444,0.188851 0.00734,0 0.014616,0.01684 0.016167,0.03742 0.00783,0.103957 0.5462776,1.117852 0.6252767,1.177396 0.014414,0.01086 0.026265,0.02733 0.026336,0.03659 2.165e-4,0.02824 0.2626941,0.388098 0.2830745,0.388098 0.010477,0 0.016827,0.0076 0.014111,0.01698 -0.013629,0.04687 0.2993558,0.401018 0.9318671,1.054418 0.10243,0.105813 0.18209,0.196535 0.177021,0.201604 -0.0183,0.0183 -0.5652715,0.225161 -0.7582709,0.28677 -0.3647757,0.116445 -0.8743721,0.218003 -1.0938931,0.218003 -0.044778,0 -0.081423,0.0067 -0.081433,0.01481 -2.41e-5,0.02113 -1.2244457,0.02436 -1.2839336,0.0034 z"
     id="path36" />
  <path
     style="fill:#fffffa;fill-opacity:1;stroke:#ff8800;stroke-width:0"
     d="M 4.4306758,12.757973 C 3.5350481,12.08291 2.7970813,11.089913 2.4140175,10.044389 2.3254344,9.8026131 2.1728395,9.2632354 2.1728395,9.1918967 c 0,-0.057535 0.078809,-0.1158441 0.4379597,-0.3240336 0.3709534,-0.2150314 0.8003362,-0.426434 1.1422872,-0.5623944 0.1575309,-0.062635 0.2908642,-0.1192105 0.2962963,-0.1257243 0.00543,-0.00651 0.018765,-0.011843 0.02963,-0.011843 0.044751,0 0.2074075,-0.055746 0.2074075,-0.071083 0,-0.00911 0.013333,-0.01145 0.02963,-0.0052 0.016296,0.00625 0.02963,0.00375 0.02963,-0.00556 0,-0.00931 0.02,-0.018111 0.044444,-0.019556 0.024444,-0.00145 0.2,-0.042834 0.3901234,-0.091975 0.1901235,-0.049141 0.4079012,-0.095719 0.4839506,-0.1035072 0.076049,-0.00779 0.1470325,-0.019329 0.1577403,-0.025647 0.010708,-0.00632 0.048263,-0.00901 0.083457,-0.00597 0.035193,0.00303 0.073918,-6.241e-4 0.086055,-0.00812 0.012136,-0.0075 0.067914,-0.015073 0.1239504,-0.016828 0.056036,-0.00175 0.1107729,-0.00622 0.1216371,-0.00993 0.010864,-0.0037 0.048642,-0.00568 0.083951,-0.0044 l 0.064197,0.00234 -4.01e-5,0.2222223 c -4.17e-5,0.229363 0.049002,0.5679012 0.08227,0.5679012 0.010377,0 0.014004,0.00787 0.00806,0.017484 -0.015549,0.025159 0.028131,0.1405406 0.053205,0.1405406 0.011612,0 0.015324,0.00579 0.00825,0.012864 -0.00708,0.00707 0.012858,0.06263 0.044295,0.1234568 0.031437,0.060826 0.083868,0.1639264 0.1165114,0.2291116 L 6.3570898,9.2345679 6.1894783,9.4419753 C 5.9867565,9.6928293 5.7561738,10.014902 5.762963,10.037722 c 0.00272,0.0091 -0.00277,0.0166 -0.01219,0.0166 -0.018617,0 -0.1173122,0.14139 -0.1257973,0.180217 -0.00287,0.01314 -0.021102,0.04052 -0.040511,0.06083 -0.019409,0.02031 -0.029995,0.0455 -0.023526,0.05597 0.00647,0.01047 0.00281,0.01903 -0.00812,0.01903 -0.040888,0 -0.4468083,0.817157 -0.4241405,0.853835 0.0052,0.0084 0.00196,0.0153 -0.00721,0.0153 -0.018043,0 -0.115147,0.244971 -0.1062325,0.268001 0.00298,0.0077 -0.00303,0.01944 -0.013358,0.02609 -0.035336,0.02274 -0.2934202,0.857315 -0.3083131,0.997001 -0.00258,0.02415 -0.00981,0.05243 -0.016081,0.06283 -0.00627,0.01041 -0.026884,0.07447 -0.04581,0.142374 -0.018927,0.0679 -0.041659,0.123457 -0.050516,0.123457 -0.00886,0 -0.076575,-0.04558 -0.1504833,-0.101286 z"
     id="path37" />
  <path
     style="fill:#fffffa;fill-opacity:1;stroke:#ff8800;stroke-width:0"
     d="M 7.6966427,8.8976727 C 7.4595805,8.8107504 7.2701753,8.6335087 7.1371515,8.3741115 7.0877782,8.2778334 7.0809956,8.2404879 7.07189,8.0147775 7.0663,7.8762384 7.06631,7.7629051 7.0719068,7.7629256 c 0.0056,2.06e-5 0.025698,-0.043659 0.044667,-0.097066 C 7.1896895,7.4599961 7.4151806,7.2293155 7.6503043,7.1198449 7.7403089,7.0779399 7.7814944,7.0719669 7.9816,7.0717979 8.2654323,7.0715582 8.3639029,7.0994862 8.5354569,7.2288814 8.6841502,7.3410339 8.8040183,7.4867065 8.877483,7.6445369 8.92323,7.742819 8.9280274,7.7766573 8.9282021,8.0022843 8.9283918,8.247214 8.9272264,8.2538113 8.8601603,8.3874695 8.7500871,8.6068378 8.5402558,8.800515 8.3175666,8.8882909 8.2356453,8.9205812 8.1726664,8.9281239 7.9943305,8.9270032 7.855835,8.9261329 7.7442876,8.9151424 7.6966427,8.8976727 Z"
     id="path38" />
  <path
     style="fill:#ffffff;fill-opacity:1;stroke:#ff8800;stroke-width:0"
     d="M 8.9777778,6.2105237 C 8.7048356,6.0625786 8.4838127,6.003634 8.0987654,5.9760998 7.7487435,5.9510702 7.7479016,5.950833 7.7218738,5.8698839 7.6711763,5.7122102 7.4845282,5.2713246 7.3734707,5.0469136 7.2034236,4.7033037 7.0903058,4.509268 6.8783025,4.1975309 6.5226005,3.674494 6.4094476,3.5391296 5.8921127,3.0177561 L 5.4858797,2.6083518 5.582446,2.5667661 C 6.0367513,2.3711228 6.8809278,2.1407626 7.3128017,2.094584 7.5538206,2.068813 8.5633643,2.067636 8.6762598,2.092994 8.7225888,2.1034 8.8538272,2.126671 8.9679012,2.144707 9.4113481,2.214818 9.883293,2.3486698 9.9184105,2.4142872 9.9529215,2.4787722 9.9294835,3.6640213 9.8876395,3.9703695 9.8103538,4.5361888 9.7369865,4.8551159 9.5559204,5.4123457 9.42386,5.8187617 9.2057691,6.3042404 9.1577416,6.2987068 9.1456751,6.2973165 9.0646914,6.2576342 8.9777778,6.2105237 Z"
     id="path39" />
  <path
     style="fill:#ffffff;fill-opacity:1;stroke:#ff8800;stroke-width:0"
     d="m 10.046896,8.1616624 c -0.0045,-0.00743 -0.01443,-0.111292 -0.02211,-0.2307982 C 9.999068,7.5307283 9.9517492,7.362124 9.7539148,6.9657181 9.7004511,6.8585916 9.6610054,6.7597436 9.6662578,6.7460559 9.6715102,6.7323684 9.7988047,6.5577954 9.9491345,6.3581156 10.397752,5.7622264 10.554746,5.4913732 10.892333,4.7308642 c 0.1147,-0.2583946 0.305646,-0.8433162 0.415917,-1.2740741 0.04033,-0.1575308 0.07998,-0.2984004 0.08811,-0.3130435 0.01742,-0.031363 0.228115,0.1384036 0.620437,0.4999071 0.556606,0.512881 0.886164,0.9470303 1.275122,1.6798031 0.200462,0.3776573 0.289551,0.6071204 0.455395,1.1729391 0.08085,0.2758536 0.07933,0.3003413 -0.02385,0.3831411 -0.353272,0.2834864 -1.204114,0.6990516 -1.980247,0.9671854 -0.381755,0.1318862 -0.777576,0.2171377 -1.303704,0.2807901 -0.141234,0.017087 -0.285516,0.034801 -0.320626,0.039366 -0.03511,0.00456 -0.0675,0.00222 -0.07198,-0.00522 z"
     id="path40" />
  <path
     style="fill:#ffffff;fill-opacity:1;stroke:#ff8800;stroke-width:0"
     d="M 11.761831,12.376969 C 11.440556,12.230809 10.748848,11.783691 10.350617,11.464766 10.036421,11.21314 9.5379674,10.722063 9.2999313,10.42963 9.0884998,10.16988 8.908642,9.9199593 8.908642,9.885914 8.908642,9.871623 9.0104423,9.7834685 9.134865,9.6900149 9.2592876,9.5965613 9.4259543,9.4488494 9.5052353,9.3617663 9.6581788,9.1937716 9.837037,8.943768 9.837037,8.8979822 c 0,-0.074125 0.13625,-0.084717 0.503582,-0.039149 0.369725,0.045865 0.910629,0.075528 1.116171,0.061211 0.10321,-0.00719 0.242148,-0.01226 0.308751,-0.011269 0.154888,0.0023 0.695973,-0.064431 1.036921,-0.127892 0.247301,-0.04603 0.558322,-0.1214732 0.940834,-0.2282145 0.08968,-0.025025 0.167921,-0.040628 0.173876,-0.034673 0.03011,0.03011 -0.191914,1.1691431 -0.24935,1.279226 -0.0086,0.016467 -0.04852,0.1188289 -0.08873,0.2274703 -0.172382,0.465763 -0.529433,1.128512 -0.808723,1.501131 -0.302173,0.403149 -0.778884,0.899745 -0.861784,0.897731 -0.02577,-6.25e-4 -0.09181,-0.02159 -0.146755,-0.04658 z"
     id="path41" />
  <path
     style="fill:#ffffff;fill-opacity:1;stroke:#ff8800;stroke-width:0"
     d="m 7.2395062,13.905109 c -0.032593,-0.0095 -0.1792593,-0.03906 -0.325926,-0.06571 -0.2629458,-0.04778 -0.6161398,-0.140484 -0.7703684,-0.202194 l -0.079014,-0.03162 0.00116,-0.476868 c 0.00179,-0.73728 0.037052,-1.146773 0.1456655,-1.691682 0.080738,-0.405056 0.093483,-0.459712 0.1312775,-0.562963 0.019884,-0.05432 0.084284,-0.232099 0.1431106,-0.395062 0.1040107,-0.288132 0.2720738,-0.7017604 0.3085595,-0.7594112 0.014924,-0.023581 0.058686,-0.00923 0.2515549,0.082523 0.1284185,0.061089 0.282377,0.124681 0.3421301,0.1413164 0.1184506,0.032977 0.4355644,0.08041 0.6748565,0.1009438 0.08327,0.0071 0.1641025,0.02341 0.1796283,0.03616 0.015526,0.01274 0.080226,0.156497 0.1437787,0.31946 0.2139722,0.548672 0.6248261,1.287472 0.9184998,1.651652 0.038417,0.04764 0.086451,0.113286 0.1067425,0.145879 0.058726,0.09433 0.3344897,0.404377 0.7203213,0.809876 0.196408,0.20642 0.357173,0.379835 0.357256,0.385367 1.82e-4,0.01208 -0.413104,0.172964 -0.6615769,0.257538 -0.2317468,0.07888 -0.6864531,0.188233 -0.8987654,0.216142 -0.092346,0.01214 -0.2273912,0.03049 -0.3001014,0.04077 -0.1640717,0.02321 -1.3077936,0.02147 -1.3887875,-0.0021 z"
     id="path42" />
  <path
     style="fill:#ffffff;fill-opacity:1;stroke:#ff8800;stroke-width:0"
     d="M 4.3351696,12.669249 C 3.9042935,12.329801 3.3962332,11.778479 3.0831898,11.310662 2.6978548,10.73481 2.4765432,10.263509 2.2938188,9.6296296 2.1628213,9.1751934 2.1641904,9.1881117 2.2395106,9.1172034 2.3199266,9.0414979 2.9342596,8.6909431 3.2493827,8.5409434 3.5555479,8.3952077 4.0145522,8.2012473 4.1293063,8.1691161 4.1786963,8.1552869 4.2369167,8.1344402 4.258685,8.1227901 4.3157156,8.0922684 5.0920425,7.908684 5.3135802,7.8733305 c 0.1640423,-0.026178 0.5710161,-0.070861 0.6454061,-0.070861 0.020268,0 0.026233,0.05254 0.026348,0.2320988 2.558e-4,0.397908 0.03421,0.5362272 0.2297488,0.9359222 0.06928,0.1416134 0.1196416,0.2678525 0.111915,0.2805314 -0.00773,0.012679 -0.081868,0.1083148 -0.1647589,0.2125242 -0.082891,0.1042094 -0.19886,0.2582062 -0.2577094,0.3422153 -0.058849,0.084009 -0.143441,0.2031906 -0.1879811,0.2648486 -0.04454,0.06166 -0.1076809,0.160995 -0.1403128,0.220748 -0.032632,0.05975 -0.087885,0.156691 -0.1227852,0.215417 -0.2548941,0.428909 -0.5676498,1.231154 -0.7400603,1.898319 -0.080197,0.310331 -0.1166933,0.419875 -0.1427865,0.428573 -0.010331,0.0034 -0.1162762,-0.07055 -0.2354343,-0.164418 z"
     id="path43" />
  <path
     style="fill:#ffffff;fill-opacity:1;stroke:#ff8800;stroke-width:0"
     d="M 2.1029277,7.3037037 C 2.1800249,6.3527769 2.7263571,5.0657595 3.3921341,4.2666667 3.6286789,3.9827559 4.0481803,3.5555556 4.0904298,3.5555556 c 0.1296312,0 0.7861622,0.3902147 1.3131303,0.7804701 0.627791,0.4649216 1.2415447,1.0833454 1.5835423,1.5955919 C 7.0581,6.0379579 7.1128239,6.128224 7.1087115,6.1322088 7.1045993,6.1361936 7.0301235,6.190338 6.9432099,6.2525296 6.7005837,6.4261424 6.4858827,6.6113801 6.4215133,6.7026339 6.3894862,6.7480371 6.3053967,6.871088 6.2346473,6.9760804 6.1638981,7.0810726 6.0899372,7.171949 6.07029,7.1780277 6.050643,7.1841065 5.9634568,7.1754912 5.8765432,7.1588828 5.5734459,7.1009634 5.290273,7.0886809 4.4740741,7.0980514 3.749905,7.1063652 3.6432933,7.1117355 3.4666667,7.1487957 3.3580247,7.1715911 3.219508,7.1990596 3.1588517,7.2098364 3.0059172,7.2370084 2.5966811,7.339248 2.3628633,7.4086983 2.0753919,7.4940853 2.0871086,7.498818 2.1029277,7.3037037 Z"
     id="path44" />
  <path
     style="fill:#ffffff;fill-opacity:1;stroke:#ff8800;stroke-width:0"
     d="m 7.2592593,15.918601 c -0.065185,-0.0093 -0.2251852,-0.0309 -0.3555556,-0.04802 C 5.9803447,15.749283 4.9061829,15.373568 4.0294556,14.865238 3.412273,14.507393 2.9400887,14.140908 2.3997877,13.600374 1.7397448,12.940047 1.3033994,12.333353 0.88975903,11.500833 0.51044571,10.737401 0.36225807,10.282826 0.15419535,9.2444444 L 0.08888889,8.9185185 V 8.0197531 c 0,-0.6737047 0.0067496,-0.9358633 0.02695413,-1.0469136 C 0.2174603,6.41432 0.36638578,5.7468838 0.4133506,5.6395062 0.42285414,5.6177778 0.46421766,5.5066667 0.50526949,5.3925926 1.0405812,3.9050785 1.9150974,2.6918295 3.1407407,1.7363048 3.8472695,1.1854875 4.7022195,0.72549942 5.5407407,0.44503465 5.9739085,0.30015066 6.7275068,0.1450571 7.2296296,0.0974545 7.5400419,0.06802659 8.490338,0.06806574 8.7802469,0.09751839 9.2027247,0.14043908 9.7706027,0.24801843 10.124633,0.35220022 11.553494,0.77267611 12.58513,1.3839209 13.630016,2.4291396 14.289198,3.088532 14.660838,3.6054445 15.078942,4.4444444 15.404718,5.098172 15.592786,5.599262 15.72764,6.1728395 15.892363,6.8734645 15.889293,6.8389908 15.890384,8 c 9.46e-4,1.0075783 -3.25e-4,1.04349 -0.04476,1.2641975 -0.143387,0.7121748 -0.232457,1.0411855 -0.409091,1.5111115 -0.05717,0.152098 -0.109993,0.296735 -0.117384,0.321414 -0.02275,0.07596 -0.411141,0.812775 -0.538458,1.021505 -0.482071,0.790336 -1.270053,1.66215 -1.990566,2.20234 -0.32607,0.244464 -0.919114,0.621607 -1.214814,0.772554 -0.252524,0.128907 -0.896176,0.390106 -1.145679,0.464927 -0.6698137,0.200863 -1.1106988,0.295404 -1.5901238,0.340979 -0.2846716,0.02706 -1.4282578,0.04123 -1.5802469,0.01957 z m 1.4814814,-0.926885 c 1.1063787,-0.09135 2.3945393,-0.571391 3.3105383,-1.233691 0.120206,-0.08691 0.246733,-0.17836 0.28117,-0.203213 0.03444,-0.02485 0.216188,-0.183479 0.403892,-0.352501 0.403908,-0.363707 0.61746,-0.605072 1.037553,-1.172681 0.217256,-0.293547 0.572388,-0.949551 0.761448,-1.406558 0.134782,-0.325803 0.314979,-0.9318637 0.377599,-1.2699856 0.01207,-0.065185 0.03687,-0.1940741 0.0551,-0.2864197 0.02815,-0.1425571 0.03303,-0.3020769 0.0323,-1.0567902 C 14.999492,7.12632 14.999163,7.1192695 14.945504,6.8345679 14.890198,6.5411265 14.773183,6.0528245 14.734117,5.9524545 14.722096,5.9215676 14.700408,5.8518519 14.685923,5.7975309 14.652384,5.6717578 14.509471,5.3021774 14.395668,5.0469136 14.283917,4.7962532 14.058647,4.3926864 13.889292,4.1397523 13.817095,4.0319247 13.736734,3.9119247 13.710712,3.8730856 13.684689,3.8342465 13.6358,3.7702327 13.60207,3.7308328 13.568339,3.6914327 13.522963,3.6353102 13.501235,3.606116 13.409852,3.4833351 13.18583,3.2346607 12.978307,3.0256439 12.753294,2.7990114 12.340731,2.4342876 12.28642,2.4139858 c -0.0163,-0.00609 -0.07503,-0.049508 -0.130525,-0.096481 -0.05549,-0.046973 -0.106527,-0.085406 -0.113409,-0.085406 -0.0069,0 -0.05332,-0.031145 -0.103186,-0.069211 C 11.88943,2.1248213 11.784909,2.0566447 11.70703,2.0113841 11.629151,1.9661234 11.525432,1.9033667 11.476543,1.8719246 11.349021,1.789911 10.910833,1.578354 10.655787,1.475664 10.04658,1.2303771 9.3538716,1.0581016 8.7768476,1.0083747 8.470052,0.98193559 7.432881,0.98174592 7.2,1.0080863 6.9694906,1.0341585 6.4129638,1.1362801 6.2227791,1.1874044 6.1409914,1.20939 6.0296296,1.2394434 5.9753086,1.2541895 5.8117665,1.2985851 5.3968525,1.4493055 5.1615411,1.5497962 4.6922617,1.750204 3.9694127,2.1945177 3.5753086,2.5248063 3.3154878,2.7425557 2.6093116,3.4628782 2.4098811,3.7135802 2.1531816,4.0362744 1.8275399,4.5608071 1.6679597,4.908642 1.6330696,4.9846914 1.5801932,5.1002469 1.5504565,5.1654321 1.4624808,5.3582813 1.2885579,5.8484405 1.2351016,6.0541823 1.2077838,6.1593229 1.1815828,6.2515767 1.1768771,6.2591905 1.1506854,6.3015696 1.0260312,6.9984117 1.0085808,7.2 0.9821162,7.5057223 0.9817393,8.5190447 1.0079856,8.8 c 0.045854,0.4908437 0.1869135,1.088591 0.3775768,1.6 0.242074,0.649306 0.5505888,1.240123 0.8812785,1.687681 0.060696,0.08215 0.1430068,0.1938 0.1829144,0.248121 0.039907,0.05432 0.095996,0.120988 0.1246407,0.148149 0.028645,0.02716 0.052235,0.0567 0.052423,0.06564 0.00116,0.05517 0.7144918,0.748635 0.9944292,0.966729 0.3214204,0.250411 0.7003834,0.503919 0.9515911,0.636566 0.097778,0.05163 0.1866667,0.100446 0.1975309,0.108479 0.028428,0.02102 0.4871233,0.223909 0.6617284,0.292695 0.602239,0.237252 1.4415,0.428811 1.9950617,0.455368 0.3561926,0.01709 0.9966925,0.0085 1.3135802,-0.01771 z"
     id="path45" />
  <path
     style="fill:#000000;stroke:#ff8800;stroke-width:0"
     d="M 7.4668093,14.97123 C 6.3378696,14.878064 5.2498819,14.520526 4.3160494,13.935816 2.4891019,12.791891 1.3116613,10.934727 1.0536841,8.7901235 0.98176183,8.1922226 1.0132228,7.3195824 1.12846,6.7160494 1.6434405,4.0189363 3.6709363,1.8718894 6.3226159,1.215621 6.9048529,1.0715222 7.3634991,1.0179678 8.0098765,1.0186057 c 0.5496216,5.424e-4 0.8746663,0.03104 1.3530865,0.1269539 2.466794,0.494545 4.472905,2.268076 5.2732,4.6618478 0.144882,0.4333592 0.262435,0.9804391 0.320451,1.491358 0.03182,0.2801954 0.03182,1.1222738 0,1.4024692 -0.101665,0.8953041 -0.326489,1.6603304 -0.714013,2.4296294 -0.481258,0.955377 -1.128294,1.742197 -1.97362,2.4 -0.987434,0.768386 -2.196635,1.260855 -3.468981,1.412805 -0.3176237,0.03793 -1.02925,0.05264 -1.3331907,0.02756 z m 1.3930722,-1.02244 c 0.3373199,-0.0518 0.6668357,-0.126514 0.9421343,-0.213605 0.3318782,-0.104989 0.8251442,-0.307717 0.8251442,-0.339126 0,-0.0074 -0.07198,-0.0756 -0.159963,-0.151639 -0.08798,-0.07604 -0.26824,-0.249814 -0.400579,-0.386174 C 9.2666005,12.033922 8.6823166,11.116839 8.374673,10.202596 L 8.3015994,9.9854384 8.0075897,9.9828488 C 7.7616251,9.9806823 7.6825316,9.972078 7.5235777,9.930196 7.3130675,9.8747293 7.0984379,9.7819222 6.9268913,9.6721851 6.8648273,9.6324834 6.8068097,9.6 6.7979631,9.6 c -0.019222,0 -0.2333326,0.442545 -0.315377,0.651852 -0.2338124,0.596488 -0.3886776,1.283307 -0.458758,2.034568 -0.023328,0.250075 -0.029469,1.170288 -0.00873,1.308567 l 0.013084,0.08725 0.1315893,0.04225 c 0.356572,0.114478 0.8725203,0.219953 1.2673918,0.259091 0.3126329,0.03099 1.1343664,0.01104 1.432721,-0.03478 z M 4.7111206,12.641975 C 4.8810621,11.850503 5.2682888,10.890446 5.6897722,10.215588 5.852721,9.9546823 6.1400051,9.5714206 6.3102153,9.3878635 L 6.4428182,9.2448626 6.3515159,9.1075243 C 6.2258742,8.9185325 6.1291097,8.7016241 6.0699765,8.4764223 6.0293914,8.3218594 6.0195943,8.2359571 6.0174503,8.0158746 l -0.00264,-0.2705452 -0.079012,0.00817 C 5.8923457,7.7579951 5.7695206,7.7666289 5.6628581,7.772687 5.4199188,7.7864851 4.9808926,7.8601641 4.662208,7.9406197 3.8609734,8.1429003 3.1091103,8.4724134 2.3456482,8.9558801 l -0.2518827,0.159506 0.012223,0.069467 C 2.1678155,9.536224 2.35505,10.108919 2.541629,10.517346 c 0.4175988,0.914138 1.1218144,1.771728 1.928405,2.348401 0.1875314,0.134076 0.1584563,0.161063 0.2410866,-0.223772 z M 12.23416,12.261728 c 0.496793,-0.497297 0.834086,-0.963613 1.139442,-1.575308 0.301017,-0.603002 0.495298,-1.2319094 0.579699,-1.8765435 0.04674,-0.3570238 0.04812,-0.3988596 0.01276,-0.3888452 -0.01665,0.00472 -0.177357,0.053467 -0.357138,0.1083372 -1.226289,0.3742706 -2.519872,0.4553369 -3.583913,0.2245967 L 9.8607974,8.7183542 9.7686967,8.9002339 C 9.591006,9.2511362 9.2791463,9.5706019 8.9409142,9.748205 8.8582132,9.791631 8.7904535,9.83455 8.7903364,9.843582 c -4.077e-4,0.031434 0.2554246,0.39983 0.4275557,0.615677 0.2360652,0.296018 0.7308105,0.786314 1.0537129,1.044236 0.281182,0.224597 0.596746,0.445333 0.908642,0.635592 0.191629,0.116894 0.72783,0.402952 0.756729,0.403706 0.0088,2.29e-4 0.142526,-0.12625 0.297184,-0.281065 z M 8.2429,8.9779933 C 8.6951475,8.8601977 9.0074074,8.4607405 9.0074074,8 9.0074074,7.4462617 8.5537383,6.9925926 8,6.9925926 7.4462617,6.9925926 6.9925926,7.4462617 6.9925926,8 c 0,0.4563856 0.309885,0.8568403 0.7560397,0.9770066 0.1369647,0.03689 0.3547571,0.037325 0.4942677,9.867e-4 z M 10.528985,8.1869679 C 11.326182,8.0888535 12.100126,7.846995 12.901448,7.4455696 13.193992,7.2990187 13.531643,7.1045829 13.760982,6.9506094 L 13.90221,6.855791 13.863841,6.6822165 C 13.592324,5.4539447 12.895729,4.2837013 11.952432,3.471148 11.7282,3.2779957 11.391564,3.0222222 11.361578,3.0222222 c -0.01035,0 -0.02509,0.042222 -0.03275,0.093827 -0.0238,0.1602597 -0.165292,0.7016268 -0.255316,0.9768766 -0.313777,0.9593762 -0.775058,1.7944034 -1.3622412,2.4659743 l -0.1648397,0.1885302 0.077863,0.1077661 c 0.1185483,0.1640779 0.2470204,0.4441618 0.3037744,0.6622628 0.040514,0.1556916 0.051662,0.2480314 0.054078,0.4479371 l 0.00304,0.2518163 0.1487375,3.56e-5 c 0.08181,1.96e-5 0.259584,-0.013607 0.395062,-0.03028 z M 2.637037,7.3850121 C 3.3421029,7.1926489 3.9547747,7.1110234 4.691358,7.1113177 c 0.4793359,1.916e-4 0.8272755,0.031584 1.2108403,0.1092472 0.1354635,0.027428 0.2473302,0.047355 0.2485926,0.044282 C 6.2637343,6.989919 6.4834137,6.6847694 6.7030272,6.4977529 6.8315899,6.3882726 7.1038882,6.2115712 7.2,6.1752543 7.2616535,6.1519579 6.858045,5.5949349 6.48782,5.1923698 5.9069304,4.5607376 5.0606382,3.9352541 4.243772,3.5338232 L 4.0727293,3.4497681 3.9528737,3.5536008 C 3.7881815,3.696276 3.5023966,4.0009801 3.3163465,4.2322667 2.7353854,4.9544826 2.3219248,5.8235496 2.1249111,6.7365857 2.0724907,6.9795218 2.0148148,7.3810272 2.0148148,7.5030112 v 0.073827 L 2.217284,7.5105661 C 2.328642,7.4741163 2.5175309,7.417617 2.637037,7.3850121 Z M 9.3390485,6.1481481 C 9.6752737,5.4478991 9.8705264,4.7293213 9.9683678,3.8320988 10.003074,3.5138353 10.016979,2.5300633 9.9887759,2.3881975 9.9749543,2.3186723 9.9709185,2.3159968 9.8021393,2.2644613 9.1338811,2.0604137 8.5246457,1.9801582 7.804468,2.0013048 7.1222775,2.021336 6.5167336,2.1368089 5.911758,2.3622309 5.7168409,2.4348597 5.4150821,2.5643992 5.3876136,2.5872366 c -0.00817,0.00679 0.084279,0.100777 0.2054442,0.2088534 0.2420916,0.2159408 0.6097187,0.6060741 0.8459474,0.8977372 0.5494746,0.6784156 0.9608702,1.4041195 1.1928269,2.1041527 l 0.072146,0.2177327 0.2912207,0.00188 c 0.2455471,0.00158 0.3212891,0.00982 0.4829405,0.052513 0.2015887,0.05324 0.4587304,0.1660656 0.6082803,0.2668934 0.048889,0.032961 0.098522,0.060621 0.1102955,0.061466 0.011773,8.448e-4 0.075824,-0.1117973 0.1423332,-0.2503159 z"
     id="path46" />
</svg>
