<?xml version="1.0" encoding="UTF-8" standalone="no"?>
<svg
   width="16"
   height="16"
   fill="currentColor"
   class="bi bi-lightning-charge"
   viewBox="0 0 16 16"
   version="1.1"
   id="svg1"
   sodipodi:docname="inactive_volt.svg"
   inkscape:version="1.4.2 (ebf0e940d0, 2025-05-08)"
   xmlns:inkscape="http://www.inkscape.org/namespaces/inkscape"
   xmlns:sodipodi="http://sodipodi.sourceforge.net/DTD/sodipodi-0.dtd"
   xmlns="http://www.w3.org/2000/svg"
   xmlns:svg="http://www.w3.org/2000/svg">
  <defs
     id="defs1" />
  <sodipodi:namedview
     id="namedview1"
     pagecolor="#ffffff"
     bordercolor="#000000"
     borderopacity="0.25"
     inkscape:showpageshadow="2"
     inkscape:pageopacity="0.0"
     inkscape:pagecheckerboard="0"
     inkscape:deskcolor="#d1d1d1"
     inkscape:zoom="50.625"
     inkscape:cx="8"
     inkscape:cy="8"
     inkscape:window-width="1920"
     inkscape:window-height="1012"
     inkscape:window-x="0"
     inkscape:window-y="0"
     inkscape:window-maximized="1"
     inkscape:current-layer="svg1" />
  <path
     d="M11.251.068a.5.5 0 0 1 .227.58L9.677 6.5H13a.5.5 0 0 1 .364.843l-8 8.5a.5.5 0 0 1-.842-.49L6.323 9.5H3a.5.5 0 0 1-.364-.843l8-8.5a.5.5 0 0 1 .615-.09zM4.157 8.5H7a.5.5 0 0 1 .478.647L6.11 13.59l5.732-6.09H9a.5.5 0 0 1-.478-.647L9.89 2.41z"
     id="path1" />
  <path
     style="fill:#6f6f6d;stroke:#1d671d;stroke-width:0;fill-opacity:1"
     d="M 4.9185185,15.980391 C 4.8116909,15.960361 4.6915388,15.890154 4.6234542,15.807981 4.5461938,15.714732 4.4950971,15.548698 4.5133434,15.450186 4.5242507,15.391298 6.2989361,9.6014374 6.3344322,9.5089361 6.3433758,9.4856292 6.082786,9.4814118 4.6095208,9.48102 L 2.8740741,9.4805586 2.7760872,9.4266991 C 2.5339015,9.2935791 2.4452051,9.0147561 2.5704809,8.7803629 2.5987707,8.7274321 4.2166883,6.9939704 6.6607002,4.3980393 9.9159265,0.94046884 10.72173,0.09475852 10.794474,0.05954378 c 0.190843,-0.09238536 0.443351,-0.03495384 0.581984,0.13236879 0.07734,0.0933443 0.128452,0.25934934 0.110199,0.35790122 -0.01091,0.0588881 -1.7855931,5.84874881 -1.8210892,5.94125011 -0.00894,0.023308 0.2504352,0.027455 1.7175612,0.027455 1.878365,0 1.791872,-0.00493 1.928454,0.1099927 0.03412,0.028708 0.08626,0.093481 0.115876,0.1439411 0.07419,0.126419 0.0761,0.3077158 0.0046,0.4425132 -0.03233,0.060998 -1.444951,1.5754868 -4.0919443,4.3870391 -3.2103266,3.409909 -4.0602317,4.302126 -4.1283951,4.333928 -0.101951,0.04757 -0.1985547,0.06221 -0.2932411,0.04446 z M 8.9944946,10.543982 C 10.566041,8.8740367 11.851852,7.5029256 11.851852,7.4970686 c 0,-0.00586 -0.664445,-0.010844 -1.476543,-0.011083 C 8.9325719,7.4855621 8.8967303,7.4846309 8.8098765,7.4453154 8.7609877,7.423185 8.6954189,7.3811581 8.6641683,7.351922 8.5829481,7.2759376 8.5140032,7.1188889 8.5137732,7.0093393 8.5136361,6.9441029 8.7142756,6.2656595 9.205391,4.6706975 9.585887,3.4349869 9.8917886,2.418562 9.8851723,2.4119755 c -0.00662,-0.00659 -0.02682,0.00617 -0.044897,0.028351 -0.018077,0.02218 -1.3039787,1.3900672 -2.857559,3.0397495 -1.5535802,1.6496826 -2.8276543,3.0070912 -2.8312757,3.0164635 -0.00365,0.00946 0.6511827,0.017126 1.471605,0.017233 L 7.1012346,8.5139662 7.2,8.5606576 c 0.1732077,0.081884 0.2851382,0.2502501 0.285986,0.4301805 3.107e-4,0.065964 -0.1956174,0.7285946 -0.6909243,2.3367129 -0.3802469,1.234551 -0.691358,2.249415 -0.691358,2.255252 0,0.0058 0.00752,0.0076 0.016717,0.004 0.00919,-0.0036 1.3025276,-1.372903 2.8740741,-3.042849 z"
     id="path2" />
  <path
     style="fill:#ffffff;stroke:#ff8800;stroke-width:0"
     d="M 4.8486479,15.948813 C 4.6751066,15.887195 4.5511538,15.731482 4.5305946,15.549266 4.5192836,15.449015 4.6385568,15.047646 5.8191182,11.213228 6.1062145,10.280751 6.3369562,9.5110918 6.3318775,9.5028743 6.326799,9.4946568 5.5447251,9.4823856 4.5939356,9.4756045 2.7119526,9.4621823 2.8288443,9.4698977 2.6859651,9.3496727 2.5530556,9.2378366 2.4906747,8.9961347 2.555407,8.84381 2.5702635,8.8088504 2.6391242,8.7180247 2.7084307,8.6419753 3.1278911,8.1817051 4.5530042,6.6564664 6.122861,4.9876543 9.7234485,1.160105 10.720764,0.11266423 10.807034,0.06805221 c 0.202938,-0.10494327 0.50339,-9.7188e-4 0.611914,0.21175261 0.09005,0.17651062 0.09571,0.14995459 -0.327518,1.53747918 -0.213741,0.7007407 -0.623502,2.0370101 -0.910581,2.9694876 -0.2870781,0.9324774 -0.5169081,1.7035885 -0.5107329,1.7135802 0.0066,0.010671 0.4732929,0.018965 1.1310499,0.020101 1.655725,0.00286 2.348681,0.020627 2.426111,0.062204 0.133608,0.071742 0.243173,0.2584008 0.243894,0.4155083 7.99e-4,0.1739674 0.02671,0.1394493 -0.670509,0.8931927 C 11.469068,9.3309011 6.7720148,14.318834 5.6639554,15.470027 5.295523,15.852802 5.2196282,15.922364 5.1413406,15.94904 5.0310894,15.98661 4.9549231,15.98655 4.8486479,15.948813 Z m 1.5638848,-2.650048 c 0.9285276,-0.978684 5.1118113,-5.4271948 5.3564293,-5.6960357 0.04559,-0.050104 0.08289,-0.095481 0.08289,-0.1008375 0,-0.00536 -0.66,-0.016028 -1.466667,-0.023715 C 9.5785185,7.4704909 8.8869355,7.4559964 8.848334,7.4459672 8.7441391,7.4188962 8.624732,7.3063727 8.5732802,7.1867698 8.4968437,7.0090882 8.4799526,7.0762465 9.1575787,4.8636198 9.3148863,4.3499688 9.4382598,3.9210799 9.4317416,3.9105333 c -0.00652,-0.010546 -0.00406,-0.019175 0.00546,-0.019175 0.023148,0 0.089202,-0.2122923 0.073805,-0.2372045 -0.00666,-0.010772 -0.00393,-0.019586 0.00606,-0.019586 0.021885,0 0.086028,-0.2160446 0.071245,-0.2399644 -0.00572,-0.00925 -0.00222,-0.016826 0.00777,-0.016826 0.020951,0 0.08634,-0.2155394 0.072288,-0.2382774 -0.00515,-0.00833 -0.00172,-0.01812 0.00761,-0.021764 0.013618,-0.00532 0.087902,-0.2400802 0.2136205,-0.6751078 0.00714,-0.024696 0.00152,-0.034214 -0.017494,-0.02963 C 9.8566979,2.4167139 9.5561942,2.7264198 9.2043166,3.1012346 8.8524391,3.4760494 7.7325719,4.6671605 6.7157229,5.7481481 4.441025,8.1663245 4.1482751,8.4799787 4.1482042,8.499005 4.1481734,8.507285 4.8057849,8.51373 5.6095633,8.513328 l 1.4614151,-7.311e-4 0.096263,0.04878 C 7.30462,8.6309924 7.3782141,8.6988905 7.428192,8.8021308 7.510865,8.9729106 7.5378615,8.8717717 6.5500336,12.092057 6.3045521,12.892318 6.1037037,13.556762 6.1037037,13.5686 c 0,0.01184 0.00729,0.02152 0.016201,0.02152 0.00891,0 0.1405932,-0.131111 0.2926277,-0.291358 z"
     id="path3" />
  <path
     style="fill:#ffffff;stroke:#ff8800;stroke-width:0"
     d="M 4.8061156,15.913475 C 4.6387696,15.83376 4.5267939,15.643825 4.5499797,15.479013 4.5698368,15.33786 4.8403188,14.430186 5.530787,12.187654 6.0409501,10.530724 6.3183166,9.6086781 6.3247887,9.548164 L 6.3308687,9.491358 6.1530909,9.486398 C 6.0553086,9.4836768 5.2864198,9.4732478 4.4444444,9.4632267 3.4270945,9.4511182 2.8889385,9.4376174 2.8401196,9.4229788 2.6714136,9.3723909 2.5486949,9.1884715 2.5483411,8.9856885 2.5481874,8.8975623 2.5591892,8.8586738 2.6024691,8.7943595 2.7020887,8.6463243 6.5191421,4.5682082 9.3723188,1.5614942 10.674657,0.18907367 10.798915,0.06522512 10.890388,0.04842612 c 0.186053,-0.03416879 0.386635,0.04892566 0.496655,0.2057485 0.05308,0.0756581 0.05959,0.10025325 0.0574,0.21681663 -0.003,0.16202732 -0.03287,0.2650429 -0.824348,2.84752725 C 9.9542894,5.4909406 9.6908235,6.3605161 9.6708004,6.4516802 l -0.013269,0.060414 0.6559406,0.013089 c 0.360767,0.0072 1.012267,0.013412 1.447777,0.013807 0.435511,3.949e-4 0.937679,0.00886 1.115929,0.018811 0.315168,0.017595 0.326046,0.019659 0.395062,0.07498 0.11132,0.089232 0.178614,0.2281523 0.179077,0.3696877 4.5e-4,0.137746 -0.02014,0.1779157 -0.187324,0.3654321 -0.412043,0.4621571 -2.952683,3.173005 -5.7475976,6.132653 -1.519589,1.609154 -2.204689,2.321216 -2.2968688,2.387262 -0.1179617,0.08452 -0.270032,0.09396 -0.413411,0.02566 z m 1.5888156,-2.58508 C 6.6506783,13.067543 7.5426214,12.12211 9.8666667,9.6484608 11.909943,7.4736547 11.869832,7.5172014 11.848724,7.4966333 11.845012,7.4930161 11.177179,7.4799959 10.36465,7.467699 9.5016476,7.4546384 8.8660425,7.4372496 8.8361444,7.4258825 8.682083,7.3673082 8.5535937,7.1876907 8.5532717,7.0304494 8.5530378,6.9161892 8.6436097,6.5862305 8.9649,5.5308642 9.1054661,5.0691358 9.2621229,4.5491358 9.3130262,4.3753086 9.3639295,4.2014815 9.4232385,4.0059259 9.4448241,3.9407407 9.4664101,3.8755557 9.4963831,3.7777778 9.5114311,3.7234568 9.5413441,3.6154793 9.5896901,3.4608093 9.6225689,3.3679012 9.6341029,3.3353082 9.6555389,3.2641975 9.6702049,3.2098765 9.6848709,3.1555555 9.7417409,2.9654718 9.796583,2.7874682 9.851425,2.6094647 9.896296,2.4516869 9.896296,2.436851 c 0,-0.058743 -0.06211,-0.020372 -0.1909434,0.1179626 -0.07424,0.079715 -0.6285083,0.6686043 -1.2317065,1.308642 -3.1782313,3.3723378 -4.3254983,4.6001916 -4.3254983,4.6293318 0,0.014367 0.4489502,0.020793 1.4526389,0.020793 1.3906641,0 1.4557653,0.00161 1.5259259,0.037699 0.2141626,0.1101667 0.3202007,0.2417837 0.3202007,0.3974402 0,0.1531591 -0.082675,0.4422195 -0.7794823,2.7253544 -0.5764764,1.888862 -0.5637276,1.846247 -0.5637276,1.884338 0,0.01744 0.00779,0.03171 0.017311,0.03171 0.00952,0 0.1327834,-0.117777 0.2739167,-0.261728 z"
     id="path4" />
  <path
     style="fill:#000000;stroke:#ff8800;stroke-width:0"
     d="M 6.150543,13.501235 C 6.156823,13.479505 6.4644061,12.478399 6.8340652,11.276552 7.3379346,9.6383561 7.5059558,9.0672681 7.5053059,8.99507 7.5036235,8.8082048 7.4140087,8.6527285 7.2536516,8.5584652 L 7.1604938,8.5037037 5.6751606,8.4938272 4.1898275,8.4839506 7.0183706,5.4785724 C 8.5740691,3.8256144 9.848959,2.4750672 9.851459,2.4773565 9.853959,2.4796465 9.549677,3.4765104 9.175277,4.6926112 8.6597944,6.3669667 8.4946724,6.9276788 8.4950554,7.0024691 c 9.669e-4,0.1887878 0.089916,0.3442031 0.251293,0.4390657 l 0.093158,0.054761 1.4851846,0.00988 1.485185,0.00988 L 9.1322449,10.3605 c -1.4726974,1.564444 -2.7486157,2.92 -2.835374,3.012346 -0.086758,0.09234 -0.1526056,0.150123 -0.1463277,0.128395 z"
     id="path5" />
</svg>
