<?xml version="1.0" encoding="UTF-8" standalone="no"?>
<svg
   width="16"
   height="16"
   fill="currentColor"
   class="bi bi-thermometer-low"
   viewBox="0 0 16 16"
   version="1.1"
   id="svg2"
   sodipodi:docname="inactive_temperature_low.svg"
   inkscape:version="1.4.2 (ebf0e940d0, 2025-05-08)"
   xmlns:inkscape="http://www.inkscape.org/namespaces/inkscape"
   xmlns:sodipodi="http://sodipodi.sourceforge.net/DTD/sodipodi-0.dtd"
   xmlns="http://www.w3.org/2000/svg"
   xmlns:svg="http://www.w3.org/2000/svg">
  <defs
     id="defs2" />
  <sodipodi:namedview
     id="namedview2"
     pagecolor="#ffffff"
     bordercolor="#000000"
     borderopacity="0.25"
     inkscape:showpageshadow="2"
     inkscape:pageopacity="0.0"
     inkscape:pagecheckerboard="0"
     inkscape:deskcolor="#d1d1d1"
     inkscape:zoom="50.625"
     inkscape:cx="8"
     inkscape:cy="8"
     inkscape:window-width="1920"
     inkscape:window-height="1012"
     inkscape:window-x="0"
     inkscape:window-y="0"
     inkscape:window-maximized="1"
     inkscape:current-layer="svg2" />
  <path
     d="M9.5 12.5a1.5 1.5 0 1 1-2-1.415V9.5a.5.5 0 0 1 1 0v1.585a1.5 1.5 0 0 1 1 1.415"
     id="path1" />
  <path
     d="M5.5 2.5a2.5 2.5 0 0 1 5 0v7.55a3.5 3.5 0 1 1-5 0zM8 1a1.5 1.5 0 0 0-1.5 1.5v7.987l-.167.15a2.5 2.5 0 1 0 3.333 0l-.166-.15V2.5A1.5 1.5 0 0 0 8 1"
     id="path2" />
  <path
     style="fill:#deddda;stroke:#1d671d;stroke-width:0"
     d="M 7.4850066,15.951199 C 6.5626299,15.801005 5.7500072,15.314311 5.2097765,14.588525 4.5994805,13.768607 4.3750527,12.734762 4.5947333,11.755277 4.7263277,11.16854 5.009628,10.611935 5.3918826,10.189103 L 5.5111111,10.057218 5.5112276,6.1891028 C 5.5113563,1.9130489 5.5053122,2.1253529 5.6382264,1.7281445 5.768867,1.3377309 5.9540042,1.0376056 6.2414964,0.75018558 6.7268211,0.26498276 7.3195793,0.0182668 8,0.0182668 c 0.6816292,0 1.2723168,0.24585415 1.7585037,0.73191878 0.2874923,0.28742002 0.4726293,0.58754532 0.6032703,0.97795892 0.132914,0.3972084 0.12687,0.1849044 0.126998,4.4609583 l 1.17e-4,3.8681152 0.119228,0.131885 c 0.276308,0.305639 0.551844,0.774321 0.688117,1.170475 0.376387,1.094184 0.187951,2.296626 -0.50601,3.228947 -0.503731,0.676749 -1.2504085,1.148826 -2.1087425,1.333223 -0.2572046,0.05526 -0.9354704,0.07195 -1.1964749,0.02945 z m 0.998944,-0.988114 c 0.4778442,-0.0985 0.887777,-0.309579 1.2342783,-0.635542 0.3736811,-0.351533 0.6319701,-0.81396 0.7428791,-1.330012 0.05011,-0.233139 0.05152,-0.754898 0.0027,-0.981564 -0.07612,-0.353127 -0.23662,-0.721299 -0.430995,-0.988635 -0.095341,-0.13113 -0.4857329,-0.538443 -0.5160726,-0.538443 -0.00851,0 -0.015601,-1.8466668 -0.015762,-4.1037038 C 9.5006246,1.916743 9.5073132,2.1886131 9.3908954,1.912017 9.21099,1.484581 8.8373541,1.1621745 8.3741659,1.0346918 8.1984385,0.9863266 7.8015615,0.9863266 7.6258341,1.0346918 7.1626459,1.1621745 6.78901,1.484581 6.6091046,1.912017 6.4926961,2.1885912 6.4993754,1.9177643 6.4990574,6.3741904 l -2.92e-4,4.0927086 -0.1135802,0.104822 c -0.2954843,0.2727 -0.4788891,0.5071 -0.624405,0.79802 -0.1720276,0.343923 -0.2481396,0.645909 -0.2633981,1.045074 -0.049386,1.291945 0.8854747,2.397166 2.1793541,2.576499 0.1874712,0.02598 0.6171068,0.01096 0.8072144,-0.02823 z"
     id="path3" />
  <path
     style="fill:#6f6f6d;stroke:#1d671d;stroke-width:0;fill-opacity:1"
     d="M 7.437037,15.93301 C 6.4691571,15.747811 5.6687222,15.235994 5.1405803,14.464604 4.4894072,13.513517 4.3472634,12.319775 4.7586094,11.256764 c 0.1396223,-0.360816 0.399334,-0.791429 0.630177,-1.044861 l 0.1173542,-0.128838 0.013394,-3.8217793 c 0.00749,-2.1372251 0.021782,-3.925564 0.032424,-4.0572371 0.057157,-0.7072403 0.5015861,-1.39617512 1.1723138,-1.8172709 0.7380802,-0.46338104 1.7672233,-0.47446034 2.5131842,-0.0270558 0.4180845,0.25075435 0.7564413,0.61075648 0.9680904,1.0300208 0.152768,0.3026256 0.221948,0.5431836 0.243236,0.8458105 0.01018,0.1447668 0.02263,1.9669683 0.02766,4.0493369 l 0.0091,3.7861249 0.142224,0.164492 c 0.372437,0.43075 0.671436,1.033461 0.777357,1.566962 0.214423,1.080005 -0.07878,2.165578 -0.811164,3.003296 -0.460988,0.527288 -1.1789391,0.944342 -1.8927694,1.099498 -0.2338126,0.05082 -1.0499904,0.06874 -1.2641976,0.02775 z m 1.1555556,-0.986116 c 0.9281165,-0.239959 1.5968514,-0.900164 1.8506894,-1.827081 0.04908,-0.179226 0.05245,-0.218468 0.05281,-0.616109 3.71e-4,-0.400121 -0.0027,-0.435766 -0.05242,-0.61611 -0.0621,-0.225076 -0.172909,-0.489531 -0.293241,-0.699843 -0.08266,-0.144469 -0.37722,-0.491829 -0.5446932,-0.642326 l -0.07996,-0.07186 -0.012698,-3.8886348 C 9.506095,4.4461819 9.4955018,2.5762963 9.4895388,2.4296296 9.4765331,2.1097545 9.4616972,2.0354975 9.373777,1.8502234 9.195348,1.4742199 8.8677906,1.1869908 8.4641975,1.0526293 8.3203018,1.0047245 8.278798,1.0000168 8,0.9999762 7.7241995,0.99993602 7.6788043,1.0049412 7.5423872,1.0504314 7.2571283,1.1455551 6.9904308,1.3273131 6.8160798,1.5454201 6.7099642,1.6781669 6.5754066,1.9320848 6.5354084,2.0750631 6.5162489,2.1435506 6.5093351,3.0765813 6.5041019,6.2998746 l -0.00672,4.1369114 -0.2333576,0.239798 c -0.3354459,0.344702 -0.5223868,0.640558 -0.6551638,1.03687 -0.1591354,0.474988 -0.1569612,1.1036 0.0055,1.59025 0.2458325,0.736386 0.8098762,1.309618 1.5430871,1.568226 0.3337511,0.117716 0.4942483,0.141463 0.8919316,0.131969 0.2945875,-0.007 0.3877332,-0.01681 0.5432099,-0.05701 z"
     id="path4" />
  <path
     style="fill:#6f6f6d;stroke:#1d671d;stroke-width:0;fill-opacity:1"
     d="M 7.6938272,13.957215 C 7.234878,13.851296 6.8689555,13.562085 6.6670368,13.145679 6.5480992,12.9004 6.5114201,12.717762 6.5228819,12.427879 6.5334905,12.159574 6.5888765,11.966881 6.7184312,11.747544 6.8687631,11.493032 7.173854,11.222781 7.4146707,11.130812 l 0.089948,-0.03435 0.00572,-0.861811 C 7.5166655,9.2799274 7.5116952,9.3174361 7.6515941,9.1686394 7.7515871,9.0622868 7.8527929,9.0187452 8,9.0187452 c 0.1472071,0 0.2484129,0.043542 0.3484059,0.1498942 0.1398989,0.1487967 0.1349286,0.111288 0.1412599,1.0660106 l 0.00572,0.861811 0.089948,0.03435 c 0.2408166,0.09197 0.5459075,0.36222 0.6962394,0.616732 0.1315927,0.222787 0.1851808,0.411487 0.1955372,0.688542 0.00742,0.198466 0.00186,0.266517 -0.03309,0.404939 -0.1324421,0.524581 -0.4826781,0.901746 -0.9995716,1.076428 -0.1939198,0.06553 -0.5558669,0.08471 -0.7506172,0.03976 z"
     id="path5" />
  <path
     style="fill:#ffffff;stroke:#ff8800;stroke-width:0"
     d="M 7.3481481,15.902347 C 6.8894839,15.805059 6.4711583,15.629811 6.0839506,15.372739 5.5622428,15.026371 5.1784622,14.587081 4.8976158,14.014815 4.668107,13.547157 4.5676295,13.149781 4.549274,12.637167 4.535392,12.24949 4.560966,11.982895 4.642706,11.663194 c 0.1330697,-0.520463 0.4395755,-1.10036 0.7724994,-1.46154 l 0.077142,-0.08369 -7.399e-4,-3.8180752 c -4.07e-4,-2.0999414 0.00392,-3.8134141 0.00962,-3.8077172 0.0057,0.0057 0.011741,1.3739554 0.01343,3.0405743 l 0.00307,3.0302161 0.014184,-3.0419753 c 0.0078,-1.6730865 0.019924,-3.133041 0.026938,-3.2443434 C 5.6025657,1.5829884 5.9823312,0.93173612 6.601647,0.48837395 7.0245402,0.18562863 7.4560292,0.0507383 8,0.05122653 8.3188241,0.05151269 8.4445485,0.06859309 8.7240733,0.14959616 9.6058029,0.40511143 10.342919,1.2793776 10.429133,2.1719048 c 0.02345,0.2427435 0.0399,2.5177734 0.03996,5.5252288 l 4.5e-5,2.3736764 0.11358,0.131392 c 0.405414,0.468988 0.71525,1.096726 0.828854,1.679279 0.02659,0.136368 0.03469,0.279004 0.03476,0.612346 8.3e-5,0.377114 -0.0059,0.463295 -0.04523,0.651852 -0.24559,1.177291 -1.011646,2.105995 -2.1095052,2.557393 -0.4697856,0.193158 -0.7301756,0.237661 -1.3804857,0.235937 -0.3022222,-8.02e-4 -0.4345185,-0.0094 -0.562963,-0.03666 z m 1.180247,-0.928768 c 0.057037,-0.01307 0.1037037,-0.03244 0.1037037,-0.04305 0,-0.0106 0.0091,-0.01366 0.020221,-0.0068 0.053929,0.03333 0.5119046,-0.167151 0.7797792,-0.341352 0.1991148,-0.129487 0.568321,-0.510842 0.698287,-0.721266 0.12409,-0.200909 0.240406,-0.462667 0.312039,-0.702216 0.0452,-0.15114 0.05237,-0.216504 0.06106,-0.556443 0.01117,-0.436797 -0.006,-0.590828 -0.09571,-0.859088 C 10.263193,11.311082 10.071323,11.006405 9.7068832,10.6304 L 9.5470999,10.465546 9.5339311,9.4056122 C 9.5266882,8.8226491 9.5190704,7.3545679 9.5170023,6.1432099 9.5149343,4.9318519 9.507986,3.5318519 9.5015615,3.0320988 L 9.4898807,2.1234568 9.4376966,1.9785757 C 9.3651484,1.7771569 9.2773154,1.6368248 9.1160494,1.464676 8.9006487,1.2347392 8.5548792,1.0330567 8.3496101,1.0176227 c -0.041295,-0.0031 -0.080554,-0.011118 -0.087243,-0.0178069 -0.015876,-0.0158765 -0.5088581,-0.0158765 -0.5247344,0 -0.00669,0.006689 -0.046785,0.0147439 -0.089103,0.0179001 C 7.4647646,1.0314216 7.108404,1.2305174 6.9068162,1.4321052 6.7891729,1.5497485 6.7211518,1.6488867 6.6146155,1.8579772 l -0.084945,0.1667142 -0.014475,0.474074 c -0.00796,0.2607408 -0.017137,2.1504674 -0.020391,4.1993926 l -0.00592,3.725319 -0.1956363,0.205545 c -0.4621181,0.485525 -0.6812788,0.889345 -0.7747618,1.427557 -0.048538,0.27945 -0.029116,0.827573 0.038416,1.084151 0.1273185,0.483727 0.3997181,0.926999 0.7724042,1.256922 0.3161386,0.279864 0.7777978,0.508195 1.1867379,0.586946 0.168188,0.03239 0.8555836,0.02491 1.0123457,-0.01102 z"
     id="path6" />
  <path
     style="fill:#ffffff;stroke:#ff8800;stroke-width:0"
     d="M 7.6444444,13.93448 C 7.4878795,13.893622 7.1978417,13.744842 7.0716049,13.640633 7.0118519,13.591306 6.9202732,13.499762 6.8680968,13.437202 6.756647,13.303573 6.6101808,13.017048 6.5680175,12.850171 c -0.04403,-0.174263 -0.039422,-0.539353 0.00921,-0.72949 0.074105,-0.289747 0.265277,-0.576529 0.5187976,-0.778262 0.1318731,-0.104934 0.3331235,-0.221431 0.3825268,-0.221431 0.033586,0 0.028773,0.09802 0.045102,-0.918519 0.015357,-0.9560051 0.00781,-0.9097414 0.1720289,-1.0542942 0.1864229,-0.164096 0.4222171,-0.164096 0.60864,0 0.1642207,0.1445528 0.1566719,0.098289 0.1720288,1.0542942 0.0075,0.467161 0.014507,0.86004 0.015561,0.873065 0.00105,0.01303 0.058853,0.05086 0.1284409,0.08407 0.3772591,0.180049 0.7022114,0.569251 0.8024243,0.96108 0.054648,0.213671 0.053813,0.557352 -0.00184,0.758188 -0.083679,0.301966 -0.2841803,0.605269 -0.5160616,0.78066 -0.1633807,0.123578 -0.4066185,0.239524 -0.5789468,0.275972 -0.1745657,0.03692 -0.5381783,0.03638 -0.6814815,-10e-4 z"
     id="path7" />
  <path
     style="fill:#ffffff;stroke:#ff8800;stroke-width:0"
     d="M 7.4271605,15.907278 C 7.3018455,15.88614 6.9178866,15.776171 6.7847781,15.723295 6.261962,15.51561 5.748778,15.159458 5.4108972,14.769815 5.0212536,14.320478 4.7160076,13.694121 4.6097719,13.125926 c -0.029278,-0.156594 -0.036932,-0.291685 -0.036932,-0.651852 0,-0.403026 0.00517,-0.47739 0.045754,-0.658641 0.1268361,-0.5664 0.4429769,-1.204245 0.7808954,-1.575534 l 0.109756,-0.120594 0.021623,-3.4744673 C 5.5427613,4.7338807 5.5600285,2.9214815 5.5692399,2.617284 5.5842983,2.1199996 5.591078,2.0447119 5.6364377,1.8710647 5.8479997,1.0611574 6.5866394,0.32752656 7.3876543,0.13172317 7.6737284,0.06179405 8.085616,0.03989072 8.3654321,0.07972697 9.3024032,0.21311967 10.122784,0.95652022 10.37011,1.8962963 c 0.03883,0.1475556 0.04614,0.2421029 0.06029,0.7802469 0.0089,0.3367901 0.01676,1.3101235 0.01755,2.162963 7.95e-4,0.8528395 0.0073,2.3833908 0.01456,3.4012253 l 0.01311,1.8506075 0.126412,0.154331 c 0.367898,0.449149 0.638808,0.983856 0.778746,1.537046 0.05054,0.199777 0.07388,0.91266 0.03857,1.177982 -0.0843,0.633475 -0.39885,1.31298 -0.842329,1.819637 -0.382742,0.437266 -0.9568282,0.810758 -1.5509856,1.009047 -0.3132328,0.104535 -0.5456261,0.132075 -1.0878418,0.128916 -0.2539142,-0.0015 -0.4838846,-0.0064 -0.5110451,-0.01102 z m 1.1654321,-0.94036 c 0.048889,-0.0169 0.1385782,-0.04471 0.1993092,-0.0618 0.1293827,-0.03641 0.463844,-0.196686 0.6232982,-0.298688 0.148915,-0.09526 0.4965217,-0.435582 0.64236,-0.628899 0.195773,-0.259508 0.386409,-0.701588 0.433543,-1.005376 0.01259,-0.08112 0.01799,-0.312728 0.01319,-0.564716 -0.008,-0.418691 -0.0094,-0.431129 -0.07279,-0.624727 C 10.290939,11.353158 10.10608,11.048989 9.7462887,10.655249 L 9.5619558,10.453534 9.5500314,9.8242979 C 9.543473,9.4782179 9.5307878,7.6039506 9.5218418,5.6592593 L 9.5055767,2.1234568 9.4435147,1.962579 C 9.3301462,1.6687035 9.1217622,1.4096608 8.850588,1.2255099 8.5560523,1.0254946 8.3661766,0.97819996 7.9141886,0.99226997 7.6577975,1.0002512 7.5958959,1.0086635 7.4830455,1.0508616 7.127186,1.1839281 6.8207502,1.4548547 6.6279188,1.8068984 L 6.5101586,2.0218878 6.4961668,4.028228 c -0.0077,1.103487 -0.014703,2.991484 -0.015573,4.1955488 l -0.00158,2.1892092 -0.1925925,0.207072 c -0.4504006,0.484264 -0.6714833,0.881002 -0.7646629,1.372205 -0.035877,0.18913 -0.041106,0.72632 -0.00934,0.959394 0.065359,0.479527 0.3594323,1.02869 0.7450113,1.39126 0.3242522,0.304902 0.7858682,0.549416 1.2092371,0.640522 0.1824462,0.03926 0.9992073,0.02728 1.1259259,-0.01652 z"
     id="path8" />
  <path
     style="fill:#ffffff;stroke:#ff8800;stroke-width:0"
     d="M 7.6049383,13.908342 C 7.4552442,13.859824 7.2409819,13.748639 7.1111111,13.652084 6.8933723,13.490202 6.6698243,13.156715 6.5869119,12.870088 c -0.040905,-0.141409 -0.046118,-0.513796 -0.00969,-0.69231 0.055542,-0.272196 0.2592815,-0.60034 0.4929944,-0.794019 0.1389516,-0.11515 0.3505129,-0.243018 0.402079,-0.243018 0.045512,0 0.050367,-0.06975 0.063826,-0.917055 0.00655,-0.4120348 0.020118,-0.794257 0.030161,-0.849383 0.015338,-0.084188 0.0343,-0.1152097 0.1184854,-0.1938349 0.070299,-0.065656 0.1323255,-0.1029378 0.20773,-0.1248584 0.098041,-0.028501 0.1169686,-0.028501 0.2150094,0 0.075404,0.021921 0.1374315,0.059203 0.20773,0.1248584 0.08488,0.079274 0.1030896,0.1093136 0.1189337,0.1961988 0.01029,0.056426 0.024675,0.4608704 0.031966,0.8987651 0.00801,0.481123 0.021092,0.80608 0.033056,0.821208 0.010889,0.01377 0.078713,0.05599 0.1507202,0.09383 0.171938,0.09035 0.3523204,0.238015 0.4767414,0.39027 0.1216572,0.148872 0.2640511,0.435356 0.2967502,0.597035 0.034487,0.17052 0.029852,0.527855 -0.00881,0.678747 -0.071861,0.280501 -0.3011233,0.627777 -0.5257082,0.796318 -0.135891,0.101981 -0.4306594,0.24247 -0.5688735,0.27113 -0.1688415,0.03501 -0.5870327,0.02587 -0.7150771,-0.01563 z"
     id="path9" />
</svg>
