<?xml version="1.0" encoding="UTF-8" standalone="no"?>
<svg
   width="16"
   height="16"
   fill="currentColor"
   class="bi bi-thermometer-half"
   viewBox="0 0 16 16"
   version="1.1"
   id="svg2"
   sodipodi:docname="inactive_temperature_medium.svg"
   inkscape:version="1.4.2 (ebf0e940d0, 2025-05-08)"
   xmlns:inkscape="http://www.inkscape.org/namespaces/inkscape"
   xmlns:sodipodi="http://sodipodi.sourceforge.net/DTD/sodipodi-0.dtd"
   xmlns="http://www.w3.org/2000/svg"
   xmlns:svg="http://www.w3.org/2000/svg">
  <defs
     id="defs2" />
  <sodipodi:namedview
     id="namedview2"
     pagecolor="#ffffff"
     bordercolor="#000000"
     borderopacity="0.25"
     inkscape:showpageshadow="2"
     inkscape:pageopacity="0.0"
     inkscape:pagecheckerboard="0"
     inkscape:deskcolor="#d1d1d1"
     inkscape:zoom="50.625"
     inkscape:cx="8"
     inkscape:cy="8"
     inkscape:window-width="1920"
     inkscape:window-height="1012"
     inkscape:window-x="0"
     inkscape:window-y="0"
     inkscape:window-maximized="1"
     inkscape:current-layer="svg2" />
  <path
     d="M9.5 12.5a1.5 1.5 0 1 1-2-1.415V6.5a.5.5 0 0 1 1 0v4.585a1.5 1.5 0 0 1 1 1.415"
     id="path1" />
  <path
     d="M5.5 2.5a2.5 2.5 0 0 1 5 0v7.55a3.5 3.5 0 1 1-5 0zM8 1a1.5 1.5 0 0 0-1.5 1.5v7.987l-.167.15a2.5 2.5 0 1 0 3.333 0l-.166-.15V2.5A1.5 1.5 0 0 0 8 1"
     id="path2" />
  <path
     style="fill:#ffffff;stroke:#1d671d;stroke-width:0;fill-opacity:1"
     d="M 7.4850066,15.951199 C 6.5626299,15.801005 5.7500072,15.314311 5.2097765,14.588525 4.5994805,13.768607 4.3750527,12.734762 4.5947333,11.755277 4.7263277,11.16854 5.009628,10.611935 5.3918826,10.189103 L 5.5111111,10.057218 5.5112276,6.1891028 C 5.5113563,1.9130489 5.5053122,2.1253529 5.6382264,1.7281445 5.768867,1.3377309 5.9540042,1.0376056 6.2414964,0.75018558 6.7268211,0.26498276 7.3195793,0.0182668 8,0.0182668 c 0.6816292,0 1.2723168,0.24585415 1.7585037,0.73191878 0.2874923,0.28742002 0.4726293,0.58754532 0.6032703,0.97795892 0.132914,0.3972084 0.12687,0.1849044 0.126998,4.4609583 l 1.17e-4,3.8681152 0.119228,0.131885 c 0.276308,0.305639 0.551844,0.774321 0.688117,1.170475 0.376387,1.094184 0.187951,2.296626 -0.50601,3.228947 -0.503731,0.676749 -1.2504085,1.148826 -2.1087425,1.333223 -0.2572046,0.05526 -0.9354704,0.07195 -1.1964749,0.02945 z m 0.998944,-0.988114 c 0.4778442,-0.0985 0.887777,-0.309579 1.2342783,-0.635542 0.3736811,-0.351533 0.6319701,-0.81396 0.7428791,-1.330012 0.05011,-0.233139 0.05152,-0.754898 0.0027,-0.981564 -0.07612,-0.353127 -0.23662,-0.721299 -0.430995,-0.988635 -0.095341,-0.13113 -0.4857329,-0.538443 -0.5160726,-0.538443 -0.00851,0 -0.015601,-1.8466668 -0.015762,-4.1037038 C 9.5006246,1.916743 9.5073132,2.1886131 9.3908954,1.912017 9.21099,1.484581 8.8373541,1.1621745 8.3741659,1.0346918 8.1984385,0.9863266 7.8015615,0.9863266 7.6258341,1.0346918 7.1626459,1.1621745 6.78901,1.484581 6.6091046,1.912017 6.4926961,2.1885912 6.4993754,1.9177643 6.4990574,6.3741904 l -2.92e-4,4.0927086 -0.1135802,0.104822 c -0.2954843,0.2727 -0.4788891,0.5071 -0.624405,0.79802 -0.1720276,0.343923 -0.2481396,0.645909 -0.2633981,1.045074 -0.049386,1.291945 0.8854747,2.397166 2.1793541,2.576499 0.1874712,0.02598 0.6171068,0.01096 0.8072144,-0.02823 z"
     id="path3" />
  <path
     style="fill:#ffffff;stroke:#1d671d;stroke-width:0;fill-opacity:1"
     d="M 7.6938272,13.957215 C 7.234878,13.851296 6.8689555,13.562085 6.6670368,13.145679 6.5480992,12.9004 6.5114201,12.717762 6.5228819,12.427879 c 0.010609,-0.268305 0.065995,-0.460998 0.1955493,-0.680335 0.1504562,-0.254722 0.4554273,-0.524765 0.6967047,-0.616909 l 0.090413,-0.03453 0.00525,-2.3628671 0.00525,-2.3628675 0.042713,-0.079012 C 7.6550903,6.1131696 7.8092897,6.017445 8,6.017445 c 0.1907103,0 0.3449097,0.095725 0.4412371,0.273913 l 0.042713,0.079012 0.00533,2.3628964 0.00533,2.3628966 0.090338,0.0345 c 0.2412025,0.09212 0.5461931,0.362192 0.6966291,0.61688 0.1315927,0.222787 0.1851808,0.411487 0.1955372,0.688542 0.00742,0.198466 0.00186,0.266517 -0.03309,0.404939 -0.1324421,0.524581 -0.4826781,0.901746 -0.9995716,1.076428 -0.1939198,0.06553 -0.5558669,0.08471 -0.7506172,0.03976 z"
     id="path4" />
  <path
     style="fill:#000000;stroke:#ff8800;stroke-width:0"
     d="M 7.762963,14.981561 C 7.7358025,14.97689 7.651358,14.963145 7.5753086,14.951017 7.2367679,14.897027 6.8089036,14.713488 6.5209825,14.498747 6.3300082,14.356312 6.0612539,14.076159 5.9398666,13.892984 5.7934896,13.672098 5.6534805,13.359296 5.5858148,13.101975 5.5290744,12.886202 5.5244632,12.8438 5.5229015,12.523457 c -0.0013,-0.265982 0.0066,-0.383461 0.034255,-0.509552 0.1146465,-0.522747 0.3441705,-0.933164 0.7376036,-1.318924 l 0.2229474,-0.2186 0.00534,-4.1369558 0.00534,-4.1369561 0.053815,-0.1580247 C 6.6627604,1.8079171 6.7635934,1.6506149 6.9633512,1.4498555 7.1144576,1.2979914 7.1712464,1.2558278 7.3291389,1.1782715 7.5866811,1.0517674 7.7241355,1.0191684 8,1.0191684 c 0.2758645,0 0.4133189,0.032599 0.670861,0.1591031 0.1578926,0.077556 0.2146815,0.1197199 0.3657879,0.271584 0.1997576,0.2007594 0.3005908,0.3580616 0.3811405,0.5945889 l 0.053816,0.1580247 0.00534,4.1372763 0.00534,4.1372766 0.2224585,0.21837 c 0.5442541,0.534253 0.8121031,1.191351 0.7773711,1.907077 -0.03026,0.623594 -0.25705,1.157729 -0.6804867,1.602689 -0.3583299,0.376543 -0.7779175,0.614365 -1.2880558,0.730069 -0.1604397,0.03639 -0.6372839,0.06582 -0.7506172,0.04633 z m 0.54894,-1.008063 c 0.6978849,-0.144152 1.1893316,-0.749144 1.1893316,-1.464116 0,-0.261791 -0.040437,-0.443704 -0.148355,-0.667407 C 9.2022078,11.529649 8.9673912,11.29162 8.6666667,11.146375 L 8.5135802,11.072437 V 8.7595565 c 0,-2.6248999 0.010516,-2.4496873 -0.157084,-2.6172873 C 8.260754,6.046527 8.1215409,5.9851852 8,5.9851852 c -0.1215409,0 -0.260754,0.061342 -0.3564962,0.157084 -0.1676051,0.1676052 -0.157084,-0.0078 -0.157084,2.6188099 v 2.3144019 l -0.083951,0.03708 c -0.3495242,0.15438 -0.6147757,0.415743 -0.7735385,0.762199 -0.2120704,0.462784 -0.1668299,1.042938 0.113827,1.459689 0.3450017,0.512298 0.9634366,0.764161 1.5691457,0.639049 z"
     id="path5" />
</svg>
