<?xml version="1.0" encoding="UTF-8" standalone="no"?>
<svg
   width="16"
   height="16"
   fill="currentColor"
   class="bi bi-fan"
   viewBox="0 0 16 16"
   version="1.1"
   id="svg2"
   sodipodi:docname="active_fan.svg"
   inkscape:version="1.4.2 (ebf0e940d0, 2025-05-08)"
   xmlns:inkscape="http://www.inkscape.org/namespaces/inkscape"
   xmlns:sodipodi="http://sodipodi.sourceforge.net/DTD/sodipodi-0.dtd"
   xmlns="http://www.w3.org/2000/svg"
   xmlns:svg="http://www.w3.org/2000/svg">
  <defs
     id="defs2" />
  <sodipodi:namedview
     id="namedview2"
     pagecolor="#ffffff"
     bordercolor="#000000"
     borderopacity="0.25"
     inkscape:showpageshadow="2"
     inkscape:pageopacity="0.0"
     inkscape:pagecheckerboard="0"
     inkscape:deskcolor="#d1d1d1"
     inkscape:zoom="35.797281"
     inkscape:cx="7.8078556"
     inkscape:cy="8.1849792"
     inkscape:window-width="1920"
     inkscape:window-height="1008"
     inkscape:window-x="0"
     inkscape:window-y="0"
     inkscape:window-maximized="1"
     inkscape:current-layer="svg2" />
  <path
     d="M10 3c0 1.313-.304 2.508-.8 3.4a2 2 0 0 0-1.484-.38c-.28-.982-.91-2.04-1.838-2.969a8 8 0 0 0-.491-.454A6 6 0 0 1 8 2c.691 0 1.355.117 1.973.332Q10 2.661 10 3m0 5q0 .11-.012.217c1.018-.019 2.2-.353 3.331-1.006a8 8 0 0 0 .57-.361 6 6 0 0 0-2.53-3.823 9 9 0 0 1-.145.64c-.34 1.269-.944 2.346-1.656 3.079.277.343.442.78.442 1.254m-.137.728a2 2 0 0 1-1.07 1.109c.525.87 1.405 1.725 2.535 2.377q.3.174.605.317a6 6 0 0 0 2.053-4.111q-.311.11-.641.199c-1.264.339-2.493.356-3.482.11ZM8 10c-.45 0-.866-.149-1.2-.4-.494.89-.796 2.082-.796 3.391q0 .346.027.678A6 6 0 0 0 8 14c.94 0 1.83-.216 2.623-.602a8 8 0 0 1-.497-.458c-.925-.926-1.555-1.981-1.836-2.96Q8.149 10 8 10M6 8q0-.12.014-.239c-1.02.017-2.205.351-3.34 1.007a8 8 0 0 0-.568.359 6 6 0 0 0 2.525 3.839 8 8 0 0 1 .148-.653c.34-1.267.94-2.342 1.65-3.075A2 2 0 0 1 6 8m-3.347-.632c1.267-.34 2.498-.355 3.488-.107.196-.494.583-.89 1.07-1.1-.524-.874-1.406-1.733-2.541-2.388a8 8 0 0 0-.594-.312 6 6 0 0 0-2.06 4.106q.309-.11.637-.199M8 9a1 1 0 1 0 0-2 1 1 0 0 0 0 2"
     id="path1"
     style="font-variation-settings:normal;opacity:1;vector-effect:none;fill:#e82127;fill-opacity:0.30000001;stroke:#1d671d;stroke-width:0;stroke-linecap:butt;stroke-linejoin:miter;stroke-miterlimit:4;stroke-dasharray:none;stroke-dashoffset:0;stroke-opacity:1;-inkscape-stroke:none;stop-color:#000000;stop-opacity:1" />
  <path
     d="M8 15A7 7 0 1 1 8 1a7 7 0 0 1 0 14m0 1A8 8 0 1 0 8 0a8 8 0 0 0 0 16"
     id="path2" />
  <path
     style="fill:none;stroke:#1d671d;stroke-width:0"
     d="M 2.0346749,7.4835949 C 2.0348881,7.3515054 2.1166472,6.8579184 2.1835857,6.5846068 2.3918025,5.7344527 2.7853326,4.9343704 3.3288981,4.2560829 3.4972159,4.0460478 3.8922246,3.6289845 4.0147317,3.5319572 l 0.074218,-0.058782 0.2518215,0.1331825 C 5.4913746,4.2148852 6.4460755,5.0369675 7.0542127,5.9428725 L 7.1915621,6.1474734 7.040254,6.2337 C 6.8398121,6.3479265 6.6917223,6.4607589 6.5511998,6.6063194 6.4190779,6.7431779 6.2197037,7.0350323 6.1707275,7.1632751 6.1467933,7.2259461 6.1286552,7.2476525 6.1057952,7.2409829 6.0416753,7.2222754 5.7716415,7.171666 5.5506173,7.1369325 5.2222923,7.0853367 4.1562441,7.0854931 3.7728395,7.1371931 3.4582778,7.1796101 3.070536,7.2523925 2.7950617,7.3207303 c -0.1675045,0.041553 -0.6331214,0.180298 -0.7306053,0.217706 -0.023036,0.00884 -0.029864,-0.00373 -0.029781,-0.054841 z"
     id="path3" />
  <path
     style="fill:none;stroke:#1d671d;stroke-width:0"
     d="M 2.0346749,7.4835949 C 2.0348881,7.3515054 2.1166472,6.8579184 2.1835857,6.5846068 2.3918025,5.7344527 2.7853326,4.9343704 3.3288981,4.2560829 3.4972159,4.0460478 3.8922246,3.6289845 4.0147317,3.5319572 l 0.074218,-0.058782 0.2518215,0.1331825 C 5.4913746,4.2148852 6.4460755,5.0369675 7.0542127,5.9428725 L 7.1915621,6.1474734 7.040254,6.2337 C 6.8398121,6.3479265 6.6917223,6.4607589 6.5511998,6.6063194 6.4190779,6.7431779 6.2197037,7.0350323 6.1707275,7.1632751 6.1467933,7.2259461 6.1286552,7.2476525 6.1057952,7.2409829 6.0416753,7.2222754 5.7716415,7.171666 5.5506173,7.1369325 5.2222923,7.0853367 4.1562441,7.0854931 3.7728395,7.1371931 3.4582778,7.1796101 3.070536,7.2523925 2.7950617,7.3207303 c -0.1675045,0.041553 -0.6331214,0.180298 -0.7306053,0.217706 -0.023036,0.00884 -0.029864,-0.00373 -0.029781,-0.054841 z"
     id="path4" />
  <path
     style="fill:#e82127;stroke:#1d671d;stroke-width:0;fill-opacity:0.30411232"
     d="M 9.0392225,6.2803729 C 8.7313209,6.0904126 8.3987386,6.0002598 7.9950985,5.9973428 L 7.7235305,5.9953803 7.6611716,5.8075666 C 7.4706424,5.2337284 7.1425696,4.6082256 6.7313217,4.034718 6.430781,3.6155976 6.0920479,3.2369286 5.6140719,2.785747 L 5.4108598,2.5939266 5.6320841,2.4994792 C 6.9481367,1.9376159 8.3823117,1.859794 9.7535311,2.2758394 9.9319571,2.3299761 9.9580527,2.3435667 9.9697685,2.3884561 9.9977369,2.4956169 9.9828845,3.5193162 9.9489152,3.825777 9.8566686,4.6579953 9.6687455,5.3765948 9.3738704,6.0246914 9.3170252,6.1496296 9.2533335,6.2797754 9.2323332,6.313904 l -0.038182,0.062052 z"
     id="path5" />
  <path
     d="m 11.369141,3.0429688 -0.0625,0.28125 C 11.039516,4.5153818 10.508288,5.6510842 9.8535156,6.4277344 9.7630797,6.5350038 9.6644104,6.6504682 9.6347656,6.6855469 L 9.5820313,6.75 9.6875,6.9101562 c 0.2165369,0.3291304 0.353362,0.8269245 0.322266,1.1738282 l -0.011719,0.1132812 h 0.1464841 c 0.07989,0 0.248742,-0.012887 0.376953,-0.029297 C 11.552381,8.0360212 12.582167,7.6566772 13.560547,7.0488281 13.680314,6.974419 13.799342,6.895971 13.826172,6.875 L 13.875,6.8378906 13.830078,6.6328125 C 13.7675,6.3521964 13.596692,5.8472519 13.464844,5.5527344 13.049094,4.6240477 12.396888,3.8129815 11.560547,3.1855469 Z"
     style="fill:#e82127;stroke:#1d671d;stroke-width:0;fill-opacity:0.30000001"
     id="path21" />
  <path
     style="fill:#e82127;fill-opacity:0.30000001;stroke:#1d671d;stroke-width:0"
     d="M 11.682961,12.39254 C 10.575285,11.823254 9.5603213,10.957163 8.9574742,10.066823 L 8.8112784,9.850908 8.9611662,9.7654908 C 9.1602234,9.6520531 9.3085556,9.5389531 9.4488003,9.3936806 9.5807432,9.2570075 9.7802769,8.9650182 9.8291093,8.8371525 c 0.018176,-0.047594 0.042951,-0.086418 0.055056,-0.086276 0.012104,1.427e-4 0.1064522,0.017767 0.2096617,0.039166 0.539666,0.1118893 1.417346,0.1430045 2.014815,0.071429 0.575312,-0.068922 1.209213,-0.2054077 1.657131,-0.3567997 l 0.205279,-0.069382 -0.01331,0.1626022 c -0.01947,0.2377816 -0.08368,0.5963905 -0.159608,0.89145 -0.222126,0.863133 -0.633259,1.664263 -1.203887,2.345881 -0.222917,0.266274 -0.624784,0.668481 -0.667918,0.668481 -0.01489,0 -0.124402,-0.05002 -0.243364,-0.111164 z"
     id="path7" />
  <path
     style="fill:#e82127;fill-opacity:0.30000001;stroke:#1d671d;stroke-width:0"
     d="M 2.0346749,7.4835949 C 2.0348881,7.3515054 2.1166472,6.8579184 2.1835857,6.5846068 2.3918025,5.7344527 2.7853326,4.9343704 3.3288981,4.2560829 3.4972159,4.0460478 3.8922246,3.6289845 4.0147317,3.5319572 l 0.074218,-0.058782 0.2518215,0.1331825 C 5.4913746,4.2148852 6.4460755,5.0369675 7.0542127,5.9428725 L 7.1915621,6.1474734 7.040254,6.2337 C 6.8398121,6.3479265 6.6917223,6.4607589 6.5511998,6.6063194 6.4190779,6.7431779 6.2197037,7.0350323 6.1707275,7.1632751 6.1467933,7.2259461 6.1286552,7.2476525 6.1057952,7.2409829 6.0416753,7.2222754 5.7716415,7.171666 5.5506173,7.1369325 5.2222923,7.0853367 4.1562441,7.0854931 3.7728395,7.1371931 3.4582778,7.1796101 3.070536,7.2523925 2.7950617,7.3207303 c -0.1675045,0.041553 -0.6331214,0.180298 -0.7306053,0.217706 -0.023036,0.00884 -0.029864,-0.00373 -0.029781,-0.054841 z"
     id="path10" />
  <path
     style="fill:#deddda;fill-opacity:1;stroke:#1d671d;stroke-width:0"
     d="M 7.7698346,8.9596087 C 7.336847,8.8545817 7.0123457,8.4434941 7.0123457,8 7.0123457,7.4668757 7.4668757,7.0123457 8,7.0123457 c 0.5331243,0 0.9876543,0.45453 0.9876543,0.9876543 0,0.5410436 -0.4610479,0.994066 -1.0034414,0.9859743 C 7.9222785,8.9850505 7.8258083,8.973186 7.7698346,8.9596087 Z"
     id="path11" />
  <path
     style="fill:#deddda;fill-opacity:1;stroke:#1d671d;stroke-width:0"
     d="M 7.6444444,15.978965 C 5.9556976,15.90661 4.3334068,15.292263 2.982716,14.213609 2.6633051,13.95853 2.0369073,13.332391 1.7858962,13.017284 0.78235149,11.757485 0.18378732,10.273991 0.04046029,8.691358 0.01396035,8.3987429 0.01396035,7.6012571 0.04046029,7.308642 0.18386833,5.7251149 0.78311176,4.2399488 1.78591,2.982716 2.0391431,2.6652316 2.6657124,2.0387253 2.982716,1.7860305 4.2448358,0.7799503 5.723219,0.18442376 7.3185185,0.03947018 7.6666501,0.00783794 8.4317906,0.01289538 8.7802469,0.04913195 10.349615,0.21233323 11.779046,0.79826254 13.017284,1.78591 c 0.317484,0.2532331 0.943991,0.8798024 1.196685,1.196806 1.012236,1.2698418 1.611471,2.7649644 1.747441,4.3599556 0.03124,0.3664178 0.01408,1.3124207 -0.02948,1.6252296 -0.219308,1.5750128 -0.788619,2.9026888 -1.757488,4.0985928 -0.221627,0.27356 -0.824846,0.877926 -1.097901,1.099987 -0.937915,0.762758 -2.020911,1.306104 -3.1615856,1.58619 -0.5161633,0.126741 -1.0184754,0.201971 -1.4590953,0.218525 -0.1475142,0.0055 -0.3170967,0.0127 -0.3768498,0.0159 -0.059753,0.0032 -0.2553086,-4.55e-4 -0.4345679,-0.0081 z M 8.8098765,14.962442 C 11.618104,14.636402 13.938121,12.671144 14.736032,9.9424701 14.918436,9.318689 15.000135,8.7221347 15.000704,8.0098765 15.00138,7.1647905 14.897024,6.5162837 14.635629,5.741152 13.960327,3.7386353 12.386511,2.1324166 10.390123,1.4082374 9.6195725,1.128724 8.8702368,0.99998329 8.0098765,0.99929568 7.4914189,0.99888132 7.2483427,1.0183495 6.7828344,1.0975704 4.9186202,1.4148255 3.2232865,2.5234611 2.1631783,4.1185185 1.5422234,5.0528182 1.1728553,6.064176 1.0341523,7.2098765 c -0.0477964,0.3948032 -0.0477964,1.1854438 0,1.580247 0.2277117,1.8809215 1.1348111,3.5195825 2.5982202,4.6936455 1.1102835,0.890757 2.4927985,1.419771 3.9626892,1.516306 0.2313705,0.01519 0.9521069,-0.0071 1.2148148,-0.03763 z"
     id="path12" />
  <path
     style="fill:#e82127;fill-opacity:0.79821497;stroke:#ff8800;stroke-width:0"
     d="M 9.6530115,7.9872976 C 9.6524957,7.6667989 9.5428668,7.3145713 9.361652,7.0511847 L 9.3102394,6.976459 9.4090471,6.860007 C 9.5741825,6.6653836 9.8013028,6.3589161 9.9114509,6.1820818 10.265284,5.61403 10.551111,4.9034494 10.720546,4.17063 c 0.02646,-0.1144472 0.05045,-0.2103712 0.05329,-0.2131645 0.0029,-0.0028 0.105002,0.074082 0.227006,0.1708342 0.436615,0.3462481 0.787183,0.7250217 1.083433,1.1706029 0.305487,0.4594742 0.51994,0.9461548 0.672266,1.5256402 l 0.05535,0.210568 -0.03991,0.032503 c -0.06643,0.0541 -0.344267,0.2232342 -0.569453,0.3466515 -0.769927,0.4219732 -1.627309,0.6855508 -2.3994152,0.7376318 l -0.1498271,0.010106 z"
     id="path13" />
  <path
     style="fill:#e82127;fill-opacity:0.80000001;stroke:#ff8800;stroke-width:0"
     d="m 3.1256877,7.5318611 c 0,-0.1144963 0.070424,-0.5109476 0.1362699,-0.7671296 C 3.4281396,6.1181783 3.7559001,5.4641436 4.1735757,4.9456293 4.3288483,4.7528695 4.7078439,4.3551486 4.7658255,4.3241177 c 0.038288,-0.020491 0.055078,-0.014248 0.2569368,0.09555 0.9570585,0.5205725 1.6823132,1.1485919 2.1955508,1.9011919 0.054964,0.080598 0.096875,0.1514913 0.093135,0.1575417 -0.00374,0.00605 -0.04871,0.034456 -0.099934,0.063124 C 6.9143624,6.7078262 6.6611555,6.9734565 6.5041264,7.2836202 6.4645187,7.361853 6.4563187,7.369151 6.4186465,7.3596958 6.3957283,7.3539438 6.2704592,7.3306064 6.1402706,7.3078352 5.9304429,7.2711342 5.8474662,7.265651 5.4095395,7.2595472 4.7306524,7.2500847 4.4207374,7.2796107 3.8436259,7.4087335 3.6884201,7.4434592 3.241126,7.5692785 3.1540333,7.6027087 3.129345,7.612185 3.1256877,7.6030438 3.1256877,7.5318611 Z"
     id="path15" />
  <path
     style="fill:#e82127;fill-opacity:0.80000001;stroke:#ff8800;stroke-width:0"
     d="M 5.0693914,11.923696 C 4.1691345,11.245224 3.5334261,10.290617 3.2528944,9.1959657 3.2163784,9.0534782 3.1892185,8.9347018 3.1925391,8.9320179 3.3005794,8.844696 3.7329802,8.5931452 4.0327494,8.4432226 4.7025104,8.1082568 5.4161693,7.8964482 6.0736383,7.8375021 6.1760877,7.8283169 6.2791271,7.8207768 6.302615,7.8207463 L 6.34532,7.820691 6.35311,8.0434071 c 0.011099,0.3174579 0.090877,0.5878637 0.2479539,0.8404254 0.039538,0.063572 0.071887,0.120184 0.071887,0.1258038 0,0.00562 -0.06741,0.090752 -0.1498,0.1891819 -0.575417,0.6874437 -0.9878699,1.5371408 -1.2278608,2.5295268 -0.038241,0.158129 -0.077378,0.287371 -0.086971,0.287206 -0.00959,-1.66e-4 -0.072109,-0.0415 -0.1389239,-0.09186 z"
     id="path16" />
  <path
     style="fill:#ffffff;fill-opacity:1;stroke:#ff8800;stroke-width:0"
     d="M 7.7711022,8.7621495 C 7.5140271,8.6775007 7.3147534,8.4758568 7.2377999,8.2225043 7.1935414,8.0767927 7.2008292,7.8589488 7.2546155,7.7198651 7.3318294,7.5202009 7.5194158,7.3321394 7.7221458,7.2511505 c 0.077775,-0.03107 0.122764,-0.037044 0.2789987,-0.037044 0.1562346,0 0.2012241,0.00597 0.2789986,0.037044 0.2019424,0.080674 0.3880404,0.2667723 0.4687147,0.4687147 0.03107,0.077775 0.037044,0.122764 0.037044,0.2789986 0,0.1562347 -0.00597,0.2012242 -0.037044,0.2789987 -0.080945,0.2026189 -0.2687353,0.3900019 -0.4687147,0.4676968 -0.1308331,0.050831 -0.380357,0.058963 -0.5090409,0.01659 z"
     id="path17" />
  <path
     style="fill:#e82127;fill-opacity:0.80000001;stroke:#ff8800;stroke-width:0"
     d="M 7.4146562,12.865736 C 7.1818271,12.833986 6.8709769,12.768736 6.6277944,12.700571 6.4348896,12.646501 6.4113711,12.636001 6.401029,12.599355 6.379416,12.522775 6.394319,11.614564 6.420971,11.384148 6.493254,10.759204 6.6170139,10.261407 6.8214233,9.7734152 6.8878813,9.6147568 7.0043329,9.3656649 7.0208368,9.3468641 c 0.00217,-0.00247 0.057175,0.028325 0.1222333,0.068436 0.2451874,0.1511682 0.4947091,0.2202518 0.8360992,0.2314862 l 0.2452844,0.00804 0.076321,0.212694 c 0.3036054,0.8461087 0.925024,1.7555877 1.6332893,2.3904067 0.093897,0.08416 0.167528,0.158194 0.16362,0.164517 -0.0039,0.0063 -0.08545,0.04439 -0.1812049,0.08461 -0.459551,0.192984 -0.8742148,0.302703 -1.3564201,0.358906 -0.2619781,0.03054 -0.9207047,0.03039 -1.1454024,-2.51e-4 z"
     id="path18" />
  <path
     style="fill:#e82127;fill-opacity:0.80000001;stroke:#ff8800;stroke-width:0"
     d="M 11.013885,11.584858 C 10.067102,11.081871 9.3081469,10.430512 8.781622,9.6690612 L 8.6793342,9.521134 8.7303212,9.4929372 C 9.070137,9.3050123 9.3363099,9.0353403 9.4975675,8.7156046 c 0.026957,-0.053449 0.053316,-0.085019 0.070961,-0.084988 0.01544,2.7e-5 0.1009616,0.014101 0.1900481,0.031276 0.2858354,0.055106 0.5478014,0.073824 1.0204444,0.072913 0.493363,-9.512e-4 0.662668,-0.016964 1.125729,-0.1064782 0.303895,-0.058746 0.563677,-0.123201 0.801228,-0.1987954 0.09769,-0.031088 0.178835,-0.055062 0.180315,-0.053275 0.0075,0.00902 -0.04362,0.3882898 -0.073,0.5418526 -0.147134,0.7690443 -0.500185,1.5299814 -0.99763,2.1502074 -0.17758,0.221409 -0.558793,0.607452 -0.599546,0.607141 -0.01769,-1.36e-4 -0.108692,-0.0409 -0.202232,-0.0906 z"
     id="path19" />
  <path
     style="fill:#ffffff;fill-opacity:1;stroke:#ff8800;stroke-width:0"
     d="M 7.4507226,15.960029 C 6.0441774,15.849339 4.7768565,15.416443 3.6049383,14.646374 3.0777393,14.299951 2.6185041,13.905574 2.1190325,13.370323 0.99745736,12.168406 0.26665971,10.562683 0.07044944,8.8691358 0.02788525,8.5017521 0.02788525,7.4982479 0.07044944,7.1308642 0.23795858,5.6850449 0.78368764,4.3266783 1.6649888,3.1619186 1.8715768,2.8888843 2.0574584,2.682064 2.4174447,2.3247018 3.0495832,1.6971714 3.6408676,1.2734458 4.4444444,0.87211514 5.705469,0.2423212 6.9694663,-0.02524436 8.3817389,0.03866039 c 1.6157523,0.07311213 3.1739401,0.6448845 4.4832991,1.64513321 0.437111,0.3339182 1.106674,1.0029033 1.442144,1.440898 0.902351,1.1781218 1.457603,2.5570184 1.624769,4.0348999 0.04831,0.4271301 0.03137,1.5632484 -0.02885,1.9342145 -0.207896,1.280728 -0.600002,2.311508 -1.255787,3.301256 -0.364699,0.550422 -0.720957,0.96675 -1.25472,1.466279 -1.219348,1.141143 -2.84397,1.882001 -4.5349132,2.068006 -0.3426279,0.03769 -1.1062973,0.05434 -1.4069572,0.03068 z m 1.0628576,-0.967832 c 0.4002318,-0.02431 0.7415281,-0.07683 1.1557768,-0.177849 1.004422,-0.244947 1.899698,-0.683239 2.712913,-1.328138 0.302806,-0.240133 0.840128,-0.774738 1.076838,-1.071395 0.833694,-1.044824 1.350486,-2.267551 1.506951,-3.5654323 0.04265,-0.3538092 0.04793,-1.2940804 0.0092,-1.6395062 C 14.886582,6.4189067 14.635177,5.5683791 14.277828,4.850384 14.049305,4.3912304 13.664027,3.8179889 13.297912,3.392403 12.674098,2.6672565 11.7878,2.0056413 10.911203,1.6107416 10.011577,1.2054674 9.205501,1.0236889 8.1777778,0.99432597 7.0139451,0.96107421 5.9639141,1.1855069 4.9283951,1.688846 3.526926,2.3700642 2.3777952,3.515745 1.6989031,4.908642 1.464206,5.3901748 1.3363293,5.7378374 1.2048459,6.2518519 0.65856188,8.3874659 1.1425851,10.656389 2.5120555,12.37957 c 0.2521286,0.317249 0.7824492,0.848186 1.0928828,1.094153 1.1263812,0.89247 2.3356446,1.372556 3.8419753,1.52529 0.1542096,0.01564 0.7608221,0.01176 1.0666666,-0.0068 z"
     id="path20" />
  <path
     id="path22"
     style="fill:#e82127;fill-opacity:0.80000001;stroke:#1d671d;stroke-width:0;-inkscape-stroke:none"
     d="M 8.8693887,6.196491 C 8.5891121,6.058497 8.294205,5.9920752 7.9617995,5.9920752 c -0.167905,0 -0.2423465,-0.010439 -0.2490158,-0.034919 C 7.6740868,5.8151162 7.4990275,5.3714561 7.390372,5.1400552 7.159484,4.6483387 6.7679899,4.0394284 6.4158847,3.6243866 6.3007389,3.4886593 6.2723682,3.4387301 6.3005087,3.4213384 6.3210327,3.4086538 6.4705921,3.3598674 6.6328628,3.3129241 7.4825016,3.0671322 8.3626659,3.0522159 9.2143867,3.2691747 9.6471022,3.3794004 9.6056231,3.2930431 9.5877824,4.0465633 9.5719421,4.7155946 9.5434025,4.9461674 9.4117112,5.4690602 9.3376377,5.7631761 9.1641153,6.2707377 9.1285928,6.2971948 9.116627,6.3061069 8.9999852,6.2607903 8.8693887,6.196491 Z M 8.8320012,6.5666363 C 8.5746757,6.4189596 8.2842297,6.3470202 7.9444531,6.3468033 L 7.7824778,6.3466998 7.7366809,6.2130781 C 7.6126397,5.8511621 7.4438138,5.494479 7.228479,5.1393857 6.9439025,4.6701107 6.6781629,4.3392997 6.2185487,3.8821543 L 5.8984405,3.5637657 6.1439653,3.4659914 c 1.0063659,-0.400761 2.0290599,-0.473948 3.0471994,-0.2180667 0.3073949,0.077256 0.3955377,0.1116018 0.4145185,0.1615252 0.035615,0.093676 0.00689,1.0432478 -0.041619,1.3757405 C 9.4705574,5.426121 9.285148,6.0515484 9.0522644,6.5116061 L 8.981095,6.6522 Z" />
</svg>
